<?xml version="1.0" encoding="UTF-8"?>
<svg width="352px" height="422px" viewBox="0 0 352 422" version="1.1" xmlns="http://www.w3.org/2000/svg" xmlns:xlink="http://www.w3.org/1999/xlink">
    <!-- Generator: Sketch 53.2 (72643) - https://sketchapp.com -->
    <title>Group 73</title>
    <desc>Created with Sketch.</desc>
    <defs>
        <rect id="path-1" x="0" y="0" width="352" height="422"></rect>
        <rect id="path-3" x="0" y="0" width="313" height="651" rx="49"></rect>
        <filter x="-2.2%" y="-0.8%" width="104.5%" height="102.2%" filterUnits="objectBoundingBox" id="filter-4">
            <feOffset dx="0" dy="2" in="SourceAlpha" result="shadowOffsetOuter1"></feOffset>
            <feGaussianBlur stdDeviation="2" in="shadowOffsetOuter1" result="shadowBlurOuter1"></feGaussianBlur>
            <feColorMatrix values="0 0 0 0 0   0 0 0 0 0   0 0 0 0 0  0 0 0 0.158271416 0" type="matrix" in="shadowBlurOuter1"></feColorMatrix>
        </filter>
        <rect id="path-5" x="0.7176" y="-1.27897692e-13" width="253.3128" height="115.5336" rx="5.7408"></rect>
        <filter x="-2.2%" y="-3.0%" width="104.3%" height="109.5%" filterUnits="objectBoundingBox" id="filter-6">
            <feOffset dx="0" dy="2" in="SourceAlpha" result="shadowOffsetOuter1"></feOffset>
            <feGaussianBlur stdDeviation="1.5" in="shadowOffsetOuter1" result="shadowBlurOuter1"></feGaussianBlur>
            <feColorMatrix values="0 0 0 0 0   0 0 0 0 0   0 0 0 0 0  0 0 0 0.04 0" type="matrix" in="shadowBlurOuter1" result="shadowMatrixOuter1"></feColorMatrix>
            <feOffset dx="0" dy="2" in="SourceAlpha" result="shadowOffsetOuter2"></feOffset>
            <feGaussianBlur stdDeviation="1" in="shadowOffsetOuter2" result="shadowBlurOuter2"></feGaussianBlur>
            <feColorMatrix values="0 0 0 0 0   0 0 0 0 0   0 0 0 0 0  0 0 0 0.0462522645 0" type="matrix" in="shadowBlurOuter2" result="shadowMatrixOuter2"></feColorMatrix>
            <feMerge>
                <feMergeNode in="shadowMatrixOuter1"></feMergeNode>
                <feMergeNode in="shadowMatrixOuter2"></feMergeNode>
            </feMerge>
        </filter>
        <path d="M5.7408,1.70530257e-13 L249.0072,1.71418435e-13 C252.177756,1.70836013e-13 254.748,2.57024371 254.748,5.7408 L254.748,57.408 L-2.27373675e-13,57.408 L-2.26485497e-13,5.7408 C-2.26873778e-13,2.57024371 2.57024371,1.72000857e-13 5.7408,1.71418435e-13 Z" id="path-7"></path>
        <filter x="-0.2%" y="-0.9%" width="100.4%" height="103.5%" filterUnits="objectBoundingBox" id="filter-8">
            <feOffset dx="0" dy="1" in="SourceAlpha" result="shadowOffsetOuter1"></feOffset>
            <feColorMatrix values="0 0 0 0 0.90196079   0 0 0 0 0.909803927   0 0 0 0 0.925490201  0 0 0 1 0" type="matrix" in="shadowOffsetOuter1"></feColorMatrix>
        </filter>
        <path d="M5.7408,1.77635684e-13 L249.0072,1.78523862e-13 C252.177756,1.77941441e-13 254.748,2.57024371 254.748,5.7408 L254.748,57.408 L-1.98951966e-13,57.408 L-1.98063788e-13,5.7408 C-1.98452069e-13,2.57024371 2.57024371,1.79106284e-13 5.7408,1.78523862e-13 Z" id="path-9"></path>
        <filter x="-0.2%" y="-0.9%" width="100.4%" height="103.5%" filterUnits="objectBoundingBox" id="filter-10">
            <feOffset dx="0" dy="1" in="SourceAlpha" result="shadowOffsetOuter1"></feOffset>
            <feColorMatrix values="0 0 0 0 0.90196079   0 0 0 0 0.909803927   0 0 0 0 0.925490201  0 0 0 1 0" type="matrix" in="shadowOffsetOuter1"></feColorMatrix>
        </filter>
        <polygon id="path-11" points="16.4201459 4.90705126 16.4201459 0.00795859035 0.144973004 0.00795859035 0.144973004 4.90705126"></polygon>
        <rect id="path-13" x="1" y="4.26325641e-14" width="253.3128" height="185.8584" rx="5.7408"></rect>
        <filter x="-2.2%" y="-1.9%" width="104.3%" height="105.9%" filterUnits="objectBoundingBox" id="filter-14">
            <feOffset dx="0" dy="2" in="SourceAlpha" result="shadowOffsetOuter1"></feOffset>
            <feGaussianBlur stdDeviation="1.5" in="shadowOffsetOuter1" result="shadowBlurOuter1"></feGaussianBlur>
            <feColorMatrix values="0 0 0 0 0   0 0 0 0 0   0 0 0 0 0  0 0 0 0.04 0" type="matrix" in="shadowBlurOuter1" result="shadowMatrixOuter1"></feColorMatrix>
            <feOffset dx="0" dy="2" in="SourceAlpha" result="shadowOffsetOuter2"></feOffset>
            <feGaussianBlur stdDeviation="1" in="shadowOffsetOuter2" result="shadowBlurOuter2"></feGaussianBlur>
            <feColorMatrix values="0 0 0 0 0   0 0 0 0 0   0 0 0 0 0  0 0 0 0.0462522645 0" type="matrix" in="shadowBlurOuter2" result="shadowMatrixOuter2"></feColorMatrix>
            <feMerge>
                <feMergeNode in="shadowMatrixOuter1"></feMergeNode>
                <feMergeNode in="shadowMatrixOuter2"></feMergeNode>
            </feMerge>
        </filter>
        <path d="M5.7408,-1.13686838e-13 L249.0072,-1.14575016e-13 C252.177756,-9.82613198e-14 254.748,2.57024371 254.748,5.7408 L254.748,65.3016 L-1.98951966e-13,65.3016 L-1.98951966e-13,5.7408 C-1.99340247e-13,2.57024371 2.57024371,-1.13992594e-13 5.7408,-1.14575016e-13 Z" id="path-15"></path>
        <filter x="-0.2%" y="-0.8%" width="100.4%" height="103.1%" filterUnits="objectBoundingBox" id="filter-16">
            <feOffset dx="0" dy="1" in="SourceAlpha" result="shadowOffsetOuter1"></feOffset>
            <feColorMatrix values="0 0 0 0 0.90196079   0 0 0 0 0.909803927   0 0 0 0 0.925490201  0 0 0 1 0" type="matrix" in="shadowOffsetOuter1"></feColorMatrix>
        </filter>
        <linearGradient x1="50%" y1="63.5819203%" x2="50%" y2="3.061617e-15%" id="linearGradient-17">
            <stop stop-color="#FFFFFF" offset="0%"></stop>
            <stop stop-color="#FFFFFF" stop-opacity="0" offset="100%"></stop>
        </linearGradient>
    </defs>
    <g id="Page-3" stroke="none" stroke-width="1" fill="none" fill-rule="evenodd">
        <g id="Group-73">
            <g id="Group-18">
                <mask id="mask-2" fill="white">
                    <use xlink:href="#path-1"></use>
                </mask>
                <use id="Mask" fill="#FFFFFF" xlink:href="#path-1"></use>
                <g id="hero-phone" mask="url(#mask-2)">
                    <g transform="translate(20.000000, 34.000000)">
                        <g id="phone">
                            <g id="Rectangle">
                                <use fill="black" fill-opacity="1" filter="url(#filter-4)" xlink:href="#path-3"></use>
                                <use fill="#FAFBFC" fill-rule="evenodd" xlink:href="#path-3"></use>
                            </g>
                            <g id="Group-15" transform="translate(126.000000, 38.000000)" fill="#DAE1E8">
                                <rect id="Rectangle" x="0" y="0" width="52" height="6" rx="3"></rect>
                                <rect id="Rectangle" x="54" y="0" width="8" height="6" rx="3"></rect>
                            </g>
                            <g id="Group-4" transform="translate(17.000000, 70.000000)">
                                <rect id="Mask" fill="#E7EFF3" x="5.68434189e-14" y="1" width="279.9" height="518.1072" rx="6"></rect>
                                <g id="header">
                                    <g id="Group-10" transform="translate(0.000000, 0.431200)">
                                        <g id="Group-9">
                                            <path d="M6,0.5688 L274,0.5688 C277.313708,0.5688 280,3.2550915 280,6.5688 L280,138.5688 L0,138.5688 L0,6.5688 C-4.05812251e-16,3.2550915 2.6862915,0.5688 6,0.5688 Z" id="Combined-Shape" fill="#1A4283"></path>
                                            <text id="Hi-John!" font-family="OpenSans-Bold, Open Sans" font-size="24.53" font-weight="bold" fill="#FFFFFF">
                                                <tspan x="26" y="49.5688">Hi John!</tspan>
                                            </text>
                                            <text id="Welcome-to-your-Ever" opacity="0.736583891" font-family="OpenSans-Semibold, Open Sans" font-size="12.05" font-weight="500" fill="#FFFFFF">
                                                <tspan x="27" y="80.5688">Welcome to your EverCheck Wallet</tspan>
                                            </text>
                                        </g>
                                    </g>
                                </g>
                            </g>
                            <path d="M39.5811555,314.176 L39.5811555,307.004205 L40.7535625,307.004205 L40.7535625,313.170379 L43.7900477,313.170379 L43.7900477,314.176 L39.5811555,314.176 Z M46.0563742,314.176 L44.9035891,314.176 L44.9035891,308.750552 L46.0563742,308.750552 L46.0563742,314.176 Z M44.8349125,307.313249 C44.8349125,307.107219 44.8913248,306.94861 45.0041512,306.837419 C45.1169775,306.726228 45.2780388,306.670633 45.4873398,306.670633 C45.6901002,306.670633 45.8478912,306.726228 45.9607176,306.837419 C46.0735439,306.94861 46.1299562,307.107219 46.1299562,307.313249 C46.1299562,307.509469 46.0735439,307.66399 45.9607176,307.776816 C45.8478912,307.889642 45.6901002,307.946055 45.4873398,307.946055 C45.2780388,307.946055 45.1169775,307.889642 45.0041512,307.776816 C44.8913248,307.66399 44.8349125,307.509469 44.8349125,307.313249 Z M49.8924508,314.274109 C49.0715982,314.274109 48.4477924,314.034561 48.0210145,313.555458 C47.5942365,313.076355 47.3808508,312.388779 47.3808508,311.492709 C47.3808508,310.580287 47.6040474,309.878812 48.0504473,309.388262 C48.4968472,308.897713 49.1419098,308.652442 49.9856547,308.652442 C50.5579622,308.652442 51.0730313,308.758726 51.5308773,308.971298 L51.1825891,309.898431 C50.6953101,309.708752 50.2930656,309.613914 49.9758437,309.613914 C49.0372594,309.613914 48.5679742,310.236902 48.5679742,311.482898 C48.5679742,312.091179 48.6848867,312.5482 48.9187152,312.853976 C49.1525437,313.159752 49.4951056,313.312637 49.9464109,313.312637 C50.4598526,313.312637 50.9454891,313.185097 51.4033352,312.930011 L51.4033352,313.935632 C51.1973044,314.056634 50.9773781,314.143297 50.7435496,314.195622 C50.5097211,314.247947 50.2260243,314.274109 49.8924508,314.274109 Z M55.0480984,314.274109 C54.2043536,314.274109 53.5445746,314.028021 53.0687418,313.535836 C52.5929089,313.043652 52.3549961,312.365886 52.3549961,311.50252 C52.3549961,310.61626 52.57574,309.919691 53.0172344,309.41279 C53.4587288,308.905889 54.0653657,308.652442 54.8371633,308.652442 C55.5533653,308.652442 56.1191237,308.869916 56.5344555,309.30487 C56.9497872,309.739823 57.15745,310.338284 57.15745,311.100271 L57.15745,311.723266 L53.5421195,311.723266 C53.5584712,312.249789 53.7007283,312.654486 53.9688953,312.937369 C54.2370623,313.220253 54.6147796,313.361692 55.1020586,313.361692 C55.4225508,313.361692 55.7209639,313.331442 55.9973066,313.270941 C56.2736494,313.21044 56.5704273,313.109879 56.8876492,312.969255 L56.8876492,313.906199 C56.6064009,314.040283 56.3218866,314.135121 56.0340977,314.190716 C55.7463087,314.246312 55.4176456,314.274109 55.0480984,314.274109 Z M54.8371633,309.525616 C54.4708864,309.525616 54.1773788,309.641711 53.9566316,309.873904 C53.7358844,310.106097 53.6042557,310.444571 53.5617414,310.889336 L56.0242867,310.889336 C56.0177461,310.441301 55.9098268,310.102009 55.7005258,309.871451 C55.4912247,309.640893 55.2034401,309.525616 54.8371633,309.525616 Z M63.2402312,314.176 L62.0825406,314.176 L62.0825406,310.840281 C62.0825406,310.421679 61.9983309,310.109367 61.829909,309.903337 C61.661487,309.697306 61.3941417,309.594292 61.0278648,309.594292 C60.5405858,309.594292 60.1841253,309.738184 59.9584727,310.025973 C59.73282,310.313762 59.6199953,310.796129 59.6199953,311.473087 L59.6199953,314.176 L58.4672102,314.176 L58.4672102,308.750552 L59.3698164,308.750552 L59.5316969,309.461845 L59.5905625,309.461845 C59.7540789,309.203489 59.9862688,309.004001 60.2871391,308.863377 C60.5880093,308.722753 60.9215779,308.652442 61.2878547,308.652442 C62.5894456,308.652442 63.2402312,309.314674 63.2402312,310.639157 L63.2402312,314.176 Z M68.4890828,312.630777 C68.4890828,313.160571 68.2961363,313.566903 67.9102375,313.849786 C67.5243387,314.13267 66.9716614,314.274109 66.2521891,314.274109 C65.5294464,314.274109 64.9489717,314.164555 64.5107477,313.945443 L64.5107477,312.949633 C65.1484618,313.243962 65.7420176,313.391125 66.2914328,313.391125 C67.0010942,313.391125 67.3559195,313.176922 67.3559195,312.748509 C67.3559195,312.611155 67.3166762,312.496695 67.2381883,312.405126 C67.1597004,312.313557 67.0305243,312.218718 66.8506562,312.120609 C66.6707882,312.022499 66.4206118,311.911309 66.1001195,311.787037 C65.4754867,311.545032 65.0528031,311.303032 64.8320559,311.061027 C64.6113087,310.819023 64.5009367,310.505076 64.5009367,310.119177 C64.5009367,309.654791 64.6881602,309.294242 65.0626129,309.037521 C65.4370655,308.780801 65.9464116,308.652442 66.5906664,308.652442 C67.2283805,308.652442 67.8317472,308.781618 68.4007844,309.039974 L68.0279687,309.908242 C67.4425799,309.666238 66.9504028,309.545237 66.5514227,309.545237 C65.9431415,309.545237 65.6390055,309.718562 65.6390055,310.065217 C65.6390055,310.235274 65.7183098,310.379167 65.8769207,310.496898 C66.0355317,310.61463 66.3813637,310.776509 66.9144273,310.98254 C67.3624624,311.155867 67.6878552,311.314476 67.8906156,311.45837 C68.093376,311.602265 68.2438089,311.768231 68.3419187,311.956275 C68.4400286,312.144319 68.4890828,312.369151 68.4890828,312.630777 Z M72.1044133,314.274109 C71.2606684,314.274109 70.6008895,314.028021 70.1250566,313.535836 C69.6492238,313.043652 69.4113109,312.365886 69.4113109,311.50252 C69.4113109,310.61626 69.6320548,309.919691 70.0735492,309.41279 C70.5150436,308.905889 71.1216805,308.652442 71.8934781,308.652442 C72.6096801,308.652442 73.1754385,308.869916 73.5907703,309.30487 C74.0061021,309.739823 74.2137648,310.338284 74.2137648,311.100271 L74.2137648,311.723266 L70.5984344,311.723266 C70.614786,312.249789 70.7570432,312.654486 71.0252102,312.937369 C71.2933771,313.220253 71.6710944,313.361692 72.1583734,313.361692 C72.4788657,313.361692 72.7772787,313.331442 73.0536215,313.270941 C73.3299643,313.21044 73.6267422,313.109879 73.9439641,312.969255 L73.9439641,313.906199 C73.6627158,314.040283 73.3782014,314.135121 73.0904125,314.190716 C72.8026236,314.246312 72.4739604,314.274109 72.1044133,314.274109 Z M71.8934781,309.525616 C71.5272013,309.525616 71.2336937,309.641711 71.0129465,309.873904 C70.7921993,310.106097 70.6605705,310.444571 70.6180562,310.889336 L73.0806016,310.889336 C73.0740609,310.441301 72.9661417,310.102009 72.7568406,309.871451 C72.5475396,309.640893 72.259755,309.525616 71.8934781,309.525616 Z M79.1682883,312.630777 C79.1682883,313.160571 78.9753418,313.566903 78.589443,313.849786 C78.2035442,314.13267 77.6508669,314.274109 76.9313945,314.274109 C76.2086519,314.274109 75.6281772,314.164555 75.1899531,313.945443 L75.1899531,312.949633 C75.8276673,313.243962 76.421223,313.391125 76.9706383,313.391125 C77.6802996,313.391125 78.035125,313.176922 78.035125,312.748509 C78.035125,312.611155 77.9958816,312.496695 77.9173937,312.405126 C77.8389059,312.313557 77.7097298,312.218718 77.5298617,312.120609 C77.3499936,312.022499 77.0998172,311.911309 76.779325,311.787037 C76.1546922,311.545032 75.7320085,311.303032 75.5112613,311.061027 C75.2905141,310.819023 75.1801422,310.505076 75.1801422,310.119177 C75.1801422,309.654791 75.3673657,309.294242 75.7418184,309.037521 C76.116271,308.780801 76.6256171,308.652442 77.2698719,308.652442 C77.907586,308.652442 78.5109526,308.781618 79.0799898,309.039974 L78.7071742,309.908242 C78.1217854,309.666238 77.6296082,309.545237 77.2306281,309.545237 C76.622347,309.545237 76.3182109,309.718562 76.3182109,310.065217 C76.3182109,310.235274 76.3975152,310.379167 76.5561262,310.496898 C76.7147371,310.61463 77.0605692,310.776509 77.5936328,310.98254 C78.0416679,311.155867 78.3670607,311.314476 78.5698211,311.45837 C78.7725815,311.602265 78.9230144,311.768231 79.0211242,311.956275 C79.1192341,312.144319 79.1682883,312.369151 79.1682883,312.630777 Z M84.4122344,308.549427 C84.4122344,308.755458 84.4670116,308.95004 84.5765676,309.133178 C84.6861236,309.316317 84.8390092,309.510898 85.0352289,309.716929 C85.4047761,309.507628 85.6639457,309.312229 85.8127457,309.130725 C85.9615457,308.949222 86.0359445,308.745647 86.0359445,308.519995 C86.0359445,308.307423 85.9648159,308.137369 85.8225566,308.009826 C85.6802973,307.882283 85.4914387,307.818512 85.255975,307.818512 C84.997619,307.818512 84.792409,307.884736 84.6403387,308.017184 C84.4882684,308.149632 84.4122344,308.327045 84.4122344,308.549427 Z M85.1431492,313.283205 C85.7416194,313.283205 86.2534182,313.108245 86.6785609,312.75832 L84.7997664,310.908958 C84.4531115,311.13134 84.2143811,311.339821 84.083568,311.534405 C83.9527548,311.72899 83.8873492,311.950551 83.8873492,312.199096 C83.8873492,312.519588 84.0009914,312.780393 84.2282793,312.981518 C84.4555672,313.182644 84.7605207,313.283205 85.1431492,313.283205 Z M82.670793,312.277584 C82.670793,311.849171 82.7754419,311.475541 82.984743,311.156684 C83.194044,310.837827 83.5717613,310.521427 84.1179062,310.207476 C83.807225,309.844469 83.5954744,309.537881 83.482648,309.2877 C83.3698217,309.03752 83.3134094,308.778351 83.3134094,308.510184 C83.3134094,308.013094 83.4908221,307.62066 83.8456527,307.332871 C84.2004834,307.045082 84.6771267,306.90119 85.2755969,306.90119 C85.8544451,306.90119 86.309014,307.040994 86.6393172,307.320607 C86.9696204,307.600221 87.1347695,307.97712 87.1347695,308.451318 C87.1347695,308.824135 87.0243976,309.162609 86.8036504,309.46675 C86.5829032,309.770891 86.2141791,310.075027 85.6974672,310.379167 L87.3947594,312.017594 C87.659656,311.667669 87.8803999,311.154235 88.0569977,310.477277 L89.2441211,310.477277 C89.0151981,311.40605 88.6489267,312.16312 88.1452961,312.748509 L89.6218422,314.176 L88.1354852,314.176 L87.4045703,313.464707 C87.0709968,313.732874 86.7153538,313.934814 86.3376309,314.070532 C85.9599079,314.206251 85.5421296,314.274109 85.0842836,314.274109 C84.332108,314.274109 83.7418225,314.095879 83.3134094,313.739413 C82.8849963,313.382947 82.670793,312.895676 82.670793,312.277584 Z M95.2582258,314.274109 C94.4373732,314.274109 93.8135674,314.034561 93.3867895,313.555458 C92.9600115,313.076355 92.7466258,312.388779 92.7466258,311.492709 C92.7466258,310.580287 92.9698224,309.878812 93.4162223,309.388262 C93.8626222,308.897713 94.5076848,308.652442 95.3514297,308.652442 C95.9237372,308.652442 96.4388063,308.758726 96.8966523,308.971298 L96.5483641,309.898431 C96.0610851,309.708752 95.6588406,309.613914 95.3416187,309.613914 C94.4030344,309.613914 93.9337492,310.236902 93.9337492,311.482898 C93.9337492,312.091179 94.0506617,312.5482 94.2844902,312.853976 C94.5183187,313.159752 94.8608806,313.312637 95.3121859,313.312637 C95.8256276,313.312637 96.3112641,313.185097 96.7691102,312.930011 L96.7691102,313.935632 C96.5630794,314.056634 96.3431531,314.143297 96.1093246,314.195622 C95.8754961,314.247947 95.5917993,314.274109 95.2582258,314.274109 Z M100.413873,314.274109 C99.5701286,314.274109 98.9103496,314.028021 98.4345168,313.535836 C97.9586839,313.043652 97.7207711,312.365886 97.7207711,311.50252 C97.7207711,310.61626 97.941515,309.919691 98.3830094,309.41279 C98.8245038,308.905889 99.4311407,308.652442 100.202938,308.652442 C100.91914,308.652442 101.484899,308.869916 101.90023,309.30487 C102.315562,309.739823 102.523225,310.338284 102.523225,311.100271 L102.523225,311.723266 L98.9078945,311.723266 C98.9242462,312.249789 99.0665033,312.654486 99.3346703,312.937369 C99.6028373,313.220253 99.9805546,313.361692 100.467834,313.361692 C100.788326,313.361692 101.086739,313.331442 101.363082,313.270941 C101.639424,313.21044 101.936202,313.109879 102.253424,312.969255 L102.253424,313.906199 C101.972176,314.040283 101.687662,314.135121 101.399873,314.190716 C101.112084,314.246312 100.783421,314.274109 100.413873,314.274109 Z M100.202938,309.525616 C99.8366614,309.525616 99.5431538,309.641711 99.3224066,309.873904 C99.1016594,310.106097 98.9700307,310.444571 98.9275164,310.889336 L101.390062,310.889336 C101.383521,310.441301 101.275602,310.102009 101.066301,309.871451 C100.857,309.640893 100.569215,309.525616 100.202938,309.525616 Z M106.584953,308.652442 C106.817146,308.652442 107.008458,308.668794 107.158893,308.701497 L107.046067,309.775795 C106.882551,309.736551 106.712496,309.716929 106.535898,309.716929 C106.074782,309.716929 105.701153,309.867362 105.414999,310.168232 C105.128845,310.469102 104.98577,310.859901 104.98577,311.340639 L104.98577,314.176 L103.832985,314.176 L103.832985,308.750552 L104.735591,308.750552 L104.887661,309.707118 L104.946527,309.707118 C105.126395,309.383355 105.361037,309.126638 105.650461,308.936959 C105.939885,308.74728 106.25138,308.652442 106.584953,308.652442 Z M110.185567,313.34207 C110.466815,313.34207 110.74806,313.297922 111.029308,313.209623 L111.029308,314.077891 C110.901765,314.133486 110.737433,314.180088 110.536308,314.217696 C110.335183,314.255305 110.126703,314.274109 109.910861,314.274109 C108.818571,314.274109 108.272434,313.69854 108.272434,312.547384 L108.272434,309.623725 L107.531709,309.623725 L107.531709,309.113556 L108.326395,308.691686 L108.718832,307.543806 L109.430125,307.543806 L109.430125,308.750552 L110.975348,308.750552 L110.975348,309.623725 L109.430125,309.623725 L109.430125,312.527762 C109.430125,312.80574 109.499618,313.010951 109.638607,313.143399 C109.777596,313.275847 109.959914,313.34207 110.185567,313.34207 Z M113.266202,314.176 L112.113416,314.176 L112.113416,308.750552 L113.266202,308.750552 L113.266202,314.176 Z M112.04474,307.313249 C112.04474,307.107219 112.101152,306.94861 112.213979,306.837419 C112.326805,306.726228 112.487866,306.670633 112.697167,306.670633 C112.899928,306.670633 113.057719,306.726228 113.170545,306.837419 C113.283371,306.94861 113.339784,307.107219 113.339784,307.313249 C113.339784,307.509469 113.283371,307.66399 113.170545,307.776816 C113.057719,307.889642 112.899928,307.946055 112.697167,307.946055 C112.487866,307.946055 112.326805,307.889642 112.213979,307.776816 C112.101152,307.66399 112.04474,307.509469 112.04474,307.313249 Z M117.636974,309.623725 L116.312498,309.623725 L116.312498,314.176 L115.154807,314.176 L115.154807,309.623725 L114.262012,309.623725 L114.262012,309.084123 L115.154807,308.73093 L115.154807,308.377736 C115.154807,307.736751 115.30524,307.261743 115.60611,306.952697 C115.90698,306.643651 116.366455,306.48913 116.984547,306.48913 C117.390068,306.48913 117.789042,306.556171 118.181481,306.690255 L117.877342,307.563428 C117.592824,307.471859 117.32139,307.426075 117.063034,307.426075 C116.801408,307.426075 116.610914,307.507014 116.491547,307.668896 C116.37218,307.830777 116.312498,308.073595 116.312498,308.397358 L116.312498,308.750552 L117.636974,308.750552 L117.636974,309.623725 Z M119.711987,314.176 L118.559202,314.176 L118.559202,308.750552 L119.711987,308.750552 L119.711987,314.176 Z M118.490526,307.313249 C118.490526,307.107219 118.546938,306.94861 118.659764,306.837419 C118.772591,306.726228 118.933652,306.670633 119.142953,306.670633 C119.345714,306.670633 119.503505,306.726228 119.616331,306.837419 C119.729157,306.94861 119.78557,307.107219 119.78557,307.313249 C119.78557,307.509469 119.729157,307.66399 119.616331,307.776816 C119.503505,307.889642 119.345714,307.946055 119.142953,307.946055 C118.933652,307.946055 118.772591,307.889642 118.659764,307.776816 C118.546938,307.66399 118.490526,307.509469 118.490526,307.313249 Z M123.55297,314.274109 C122.732117,314.274109 122.108311,314.034561 121.681533,313.555458 C121.254755,313.076355 121.04137,312.388779 121.04137,311.492709 C121.04137,310.580287 121.264566,309.878812 121.710966,309.388262 C122.157366,308.897713 122.802429,308.652442 123.646173,308.652442 C124.218481,308.652442 124.73355,308.758726 125.191396,308.971298 L124.843108,309.898431 C124.355829,309.708752 123.953584,309.613914 123.636362,309.613914 C122.697778,309.613914 122.228493,310.236902 122.228493,311.482898 C122.228493,312.091179 122.345405,312.5482 122.579234,312.853976 C122.813062,313.159752 123.155624,313.312637 123.60693,313.312637 C124.120371,313.312637 124.606008,313.185097 125.063854,312.930011 L125.063854,313.935632 C124.857823,314.056634 124.637897,314.143297 124.404068,314.195622 C124.17024,314.247947 123.886543,314.274109 123.55297,314.274109 Z M129.73386,314.176 L129.503303,313.420558 L129.464059,313.420558 C129.202433,313.750861 128.939176,313.975693 128.674279,314.09506 C128.409382,314.214427 128.069273,314.274109 127.653941,314.274109 C127.120878,314.274109 126.704735,314.130217 126.4055,313.842428 C126.106265,313.554639 125.956649,313.147489 125.956649,312.620966 C125.956649,312.06174 126.164312,311.639874 126.579644,311.355355 C126.994976,311.070837 127.627775,310.915499 128.47806,310.889336 L129.415005,310.859903 L129.415005,310.57048 C129.415005,310.223826 129.334065,309.964656 129.172184,309.792964 C129.010303,309.621271 128.759309,309.535427 128.419195,309.535427 C128.141217,309.535427 127.874689,309.576305 127.619603,309.658063 C127.364517,309.739822 127.119246,309.836295 126.883783,309.947486 L126.510967,309.123367 C126.805297,308.969662 127.127419,308.852749 127.477345,308.772626 C127.82727,308.692503 128.157568,308.652442 128.468249,308.652442 C129.158289,308.652442 129.679081,308.802875 130.030641,309.103745 C130.382201,309.404616 130.557979,309.877171 130.557979,310.521426 L130.557979,314.176 L129.73386,314.176 Z M128.016946,313.391125 C128.435548,313.391125 128.771569,313.274212 129.02502,313.040384 C129.27847,312.806555 129.405194,312.47871 129.405194,312.056837 L129.405194,311.585912 L128.708617,311.615345 C128.165743,311.634967 127.770856,311.725718 127.523946,311.887599 C127.277037,312.04948 127.153584,312.297204 127.153584,312.630777 C127.153584,312.872782 127.22553,313.060005 127.369424,313.192454 C127.513319,313.324902 127.729157,313.391125 128.016946,313.391125 Z M134.188026,313.34207 C134.469274,313.34207 134.750518,313.297922 135.031766,313.209623 L135.031766,314.077891 C134.904224,314.133486 134.739892,314.180088 134.538767,314.217696 C134.337642,314.255305 134.129161,314.274109 133.91332,314.274109 C132.82103,314.274109 132.274893,313.69854 132.274893,312.547384 L132.274893,309.623725 L131.534167,309.623725 L131.534167,309.113556 L132.328853,308.691686 L132.721291,307.543806 L133.432584,307.543806 L133.432584,308.750552 L134.977806,308.750552 L134.977806,309.623725 L133.432584,309.623725 L133.432584,312.527762 C133.432584,312.80574 133.502077,313.010951 133.641066,313.143399 C133.780055,313.275847 133.962373,313.34207 134.188026,313.34207 Z M137.26866,314.176 L136.115875,314.176 L136.115875,308.750552 L137.26866,308.750552 L137.26866,314.176 Z M136.047198,307.313249 C136.047198,307.107219 136.103611,306.94861 136.216437,306.837419 C136.329263,306.726228 136.490325,306.670633 136.699626,306.670633 C136.902386,306.670633 137.060177,306.726228 137.173004,306.837419 C137.28583,306.94861 137.342242,307.107219 137.342242,307.313249 C137.342242,307.509469 137.28583,307.66399 137.173004,307.776816 C137.060177,307.889642 136.902386,307.946055 136.699626,307.946055 C136.490325,307.946055 136.329263,307.889642 136.216437,307.776816 C136.103611,307.66399 136.047198,307.509469 136.047198,307.313249 Z M143.729162,311.453465 C143.729162,312.339724 143.501878,313.031388 143.047302,313.528478 C142.592727,314.025568 141.959927,314.274109 141.148886,314.274109 C140.641985,314.274109 140.193957,314.15965 139.804787,313.930727 C139.415618,313.701804 139.116388,313.37314 138.907087,312.944727 C138.697786,312.516314 138.593137,312.019232 138.593137,311.453465 C138.593137,310.573746 138.818786,309.886988 139.270091,309.393168 C139.721397,308.899348 140.357466,308.652442 141.178319,308.652442 C141.963198,308.652442 142.584551,308.905071 143.042397,309.410337 C143.500243,309.915603 143.729162,310.596639 143.729162,311.453465 Z M139.78026,311.453465 C139.78026,312.706001 140.243005,313.332259 141.168508,313.332259 C142.0842,313.332259 142.542039,312.706001 142.542039,311.453465 C142.542039,310.21401 142.08093,309.594292 141.158697,309.594292 C140.674688,309.594292 140.323951,309.754536 140.106474,310.075028 C139.888997,310.39552 139.78026,310.854995 139.78026,311.453465 Z M149.82666,314.176 L148.66897,314.176 L148.66897,310.840281 C148.66897,310.421679 148.58476,310.109367 148.416338,309.903337 C148.247916,309.697306 147.980571,309.594292 147.614294,309.594292 C147.127015,309.594292 146.770554,309.738184 146.544902,310.025973 C146.319249,310.313762 146.206424,310.796129 146.206424,311.473087 L146.206424,314.176 L145.053639,314.176 L145.053639,308.750552 L145.956245,308.750552 L146.118126,309.461845 L146.176991,309.461845 C146.340508,309.203489 146.572698,309.004001 146.873568,308.863377 C147.174438,308.722753 147.508007,308.652442 147.874284,308.652442 C149.175874,308.652442 149.82666,309.314674 149.82666,310.639157 L149.82666,314.176 Z M155.075512,312.630777 C155.075512,313.160571 154.882565,313.566903 154.496666,313.849786 C154.110768,314.13267 153.55809,314.274109 152.838618,314.274109 C152.115875,314.274109 151.535401,314.164555 151.097177,313.945443 L151.097177,312.949633 C151.734891,313.243962 152.328446,313.391125 152.877862,313.391125 C153.587523,313.391125 153.942348,313.176922 153.942348,312.748509 C153.942348,312.611155 153.903105,312.496695 153.824617,312.405126 C153.746129,312.313557 153.616953,312.218718 153.437085,312.120609 C153.257217,312.022499 153.007041,311.911309 152.686548,311.787037 C152.061916,311.545032 151.639232,311.303032 151.418485,311.061027 C151.197738,310.819023 151.087366,310.505076 151.087366,310.119177 C151.087366,309.654791 151.274589,309.294242 151.649042,309.037521 C152.023494,308.780801 152.532841,308.652442 153.177095,308.652442 C153.814809,308.652442 154.418176,308.781618 154.987213,309.039974 L154.614398,309.908242 C154.029009,309.666238 153.536832,309.545237 153.137852,309.545237 C152.52957,309.545237 152.225434,309.718562 152.225434,310.065217 C152.225434,310.235274 152.304739,310.379167 152.46335,310.496898 C152.621961,310.61463 152.967793,310.776509 153.500856,310.98254 C153.948891,311.155867 154.274284,311.314476 154.477045,311.45837 C154.679805,311.602265 154.830238,311.768231 154.928348,311.956275 C155.026458,312.144319 155.075512,312.369151 155.075512,312.630777 Z" id="Licenses&amp;certifcations" fill="#4B5353" fill-rule="nonzero"></path>
                        </g>
                        <g id="top-card" transform="translate(31.676000, 175.108000)">
                            <g id="background">
                                <use fill="black" fill-opacity="1" filter="url(#filter-6)" xlink:href="#path-5"></use>
                                <use fill="#FFFFFF" fill-rule="evenodd" xlink:href="#path-5"></use>
                            </g>
                            <g id="cell-2" transform="translate(0.000000, 58.125600)">
                                <g id="cell-bg" transform="translate(127.374000, 28.704000) scale(1, -1) translate(-127.374000, -28.704000) ">
                                    <use fill="black" fill-opacity="1" filter="url(#filter-8)" xlink:href="#path-7"></use>
                                    <use fill="#FFFFFF" fill-rule="evenodd" xlink:href="#path-7"></use>
                                </g>
                                <text id="My-workplaces" font-family="OpenSans-Semibold, Open Sans" font-size="10.0464" font-weight="500" fill="#282E2E">
                                    <tspan x="59.324" y="31.7664">My workplaces</tspan>
                                </text>
                                <g id="content" transform="translate(7.324000, 7.466400)">
                                    <g id="ed-icon">
                                        <g>
                                            <path d="M20.5,40.3588 C9.53228761,40.3588 0.6412,31.4677124 0.6412,20.5 C0.6412,9.53228761 9.53228761,0.6412 20.5,0.6412 C31.4677124,0.6412 40.3588,9.53228761 40.3588,20.5 C40.3588,31.4677124 31.4677124,40.3588 20.5,40.3588 Z M20.5,39.6412 C31.0713929,39.6412 39.6412,31.0713929 39.6412,20.5 C39.6412,9.92860715 31.0713929,1.3588 20.5,1.3588 C9.92860715,1.3588 1.3588,9.92860715 1.3588,20.5 C1.3588,31.0713929 9.92860715,39.6412 20.5,39.6412 Z" id="Oval" fill="#E6E8EC" fill-rule="nonzero"></path>
                                            <g id="Group-6" transform="translate(3.000000, 3.000000)">
                                                <g id="icon-bg-/-neutral" fill="#0073E9" fill-opacity="0.102592">
                                                    <circle id="Oval-3" cx="17.545619" cy="17.545619" r="17.545619"></circle>
                                                </g>
                                                <g id="Group" transform="translate(6.000000, 8.300000)">
                                                    <g id="Group-9" transform="translate(0.015464, 0.000000)">
                                                        <path d="M8.46108573,0.0531512259 L13.6798416,0.0531512259 C14.4033902,0.0531512259 14.9899421,0.63970319 14.9899421,1.36325171 L14.9899421,16.8881027 L7.15098525,16.8881027 L7.15098525,1.36325171 C7.15098525,0.63970319 7.73753722,0.0531512259 8.46108573,0.0531512259 Z" id="Rectangle-5" fill="#0073E9" fill-rule="nonzero"></path>
                                                        <g id="Group-6" transform="translate(14.906695, 3.594701)" fill-rule="nonzero">
                                                            <polygon id="Rectangle-5" fill="#0073E9" points="0 0 7.66666667 0 7.66666667 13.2934013 0 13.2934013"></polygon>
                                                            <rect id="Rectangle-6" fill="#F2F2F2" x="1.35684768" y="2.58048379" width="1.7663106" height="1.72032253"></rect>
                                                            <rect id="Rectangle-6" fill="#F2F2F2" x="4.00631358" y="2.58048379" width="1.7663106" height="1.72032253"></rect>
                                                            <rect id="Rectangle-6" fill="#F2F2F2" x="1.35684768" y="5.59104821" width="1.7663106" height="1.72032253"></rect>
                                                            <rect id="Rectangle-6" fill="#F2F2F2" x="4.00631358" y="5.59104821" width="1.7663106" height="1.72032253"></rect>
                                                            <rect id="Rectangle-6" fill="#F2F2F2" x="1.35684768" y="8.60161264" width="1.7663106" height="1.72032253"></rect>
                                                            <rect id="Rectangle-6" fill="#F2F2F2" x="4.00631358" y="8.60161264" width="1.7663106" height="1.72032253"></rect>
                                                        </g>
                                                        <g id="Group-6" transform="translate(0.042586, 3.594701)" fill-rule="nonzero">
                                                            <polygon id="Rectangle-5" fill="#0073E9" points="0.04804161 0 7.38137494 0 7.38137494 13.2934013 0.04804161 13.2934013"></polygon>
                                                            <rect id="Rectangle-6" fill="#F2F2F2" x="1.67298025" y="2.58048379" width="1.7663106" height="1.72032253"></rect>
                                                            <rect id="Rectangle-6" fill="#F2F2F2" x="4.32244614" y="2.58048379" width="1.7663106" height="1.72032253"></rect>
                                                            <rect id="Rectangle-6" fill="#F2F2F2" x="1.67298025" y="5.59104821" width="1.7663106" height="1.72032253"></rect>
                                                            <rect id="Rectangle-6" fill="#F2F2F2" x="4.32244614" y="5.59104821" width="1.7663106" height="1.72032253"></rect>
                                                            <rect id="Rectangle-6" fill="#F2F2F2" x="1.67298025" y="8.60161264" width="1.7663106" height="1.72032253"></rect>
                                                            <rect id="Rectangle-6" fill="#27699F" x="10.4804472" y="10.6347211" width="1.7663106" height="2.58048379"></rect>
                                                            <rect id="Rectangle-6" fill="#F2F2F2" x="4.32244614" y="8.60161264" width="1.7663106" height="1.72032253"></rect>
                                                        </g>
                                                        <g id="Group-61" transform="translate(9.511419, 2.930031)">
                                                            <ellipse id="Oval" fill="#FFFFFF" fill-rule="nonzero" cx="1.68602375" cy="1.66167517" rx="1.68602375" ry="1.66167517"></ellipse>
                                                            <polygon id="+" fill="#0073E9" points="1.48341647 1.85492074 0.845969812 1.85492074 0.845969812 1.40070753 1.48341647 1.40070753 1.48341647 0.778706599 1.9443658 0.778706599 1.9443658 1.40070753 2.58181245 1.40070753 2.58181245 1.85492074 1.9443658 1.85492074 1.9443658 2.46675272 1.48341647 2.46675272"></polygon>
                                                        </g>
                                                    </g>
                                                </g>
                                            </g>
                                        </g>
                                    </g>
                                    <g id="status/complete" opacity="0.5" transform="translate(221.000000, 15.300000)">
                                        <g id="Group-2" transform="translate(0.000000, 2.000000)"></g>
                                        <polygon id="c" fill="#CFD5DF" fill-rule="nonzero" points="2.16551797 0.0139909091 7.45781797 5.30629091 2.16551797 10.5985909 0.925135156 9.3582081 4.97705234 5.30629091 0.925135156 1.25437372"></polygon>
                                    </g>
                                </g>
                            </g>
                            <g id="cell-1">
                                <g id="cell-bg">
                                    <use fill="black" fill-opacity="1" filter="url(#filter-10)" xlink:href="#path-9"></use>
                                    <use fill="#FFFFFF" fill-rule="evenodd" xlink:href="#path-9"></use>
                                </g>
                                <g id="content" transform="translate(7.611200, 9.046400)">
                                    <g id="cred-icon">
                                        <path d="M20.0164,39.3916 C9.31577252,39.3916 0.6412,30.7170275 0.6412,20.0164 C0.6412,9.31577252 9.31577252,0.6412 20.0164,0.6412 C30.7170275,0.6412 39.3916,9.31577252 39.3916,20.0164 C39.3916,30.7170275 30.7170275,39.3916 20.0164,39.3916 Z M20.0164,38.674 C30.3207079,38.674 38.674,30.3207079 38.674,20.0164 C38.674,9.71209205 30.3207079,1.3588 20.0164,1.3588 C9.71209205,1.3588 1.3588,9.71209205 1.3588,20.0164 C1.3588,30.3207079 9.71209205,38.674 20.0164,38.674 Z" id="Oval" fill="#E6E8EC" fill-rule="nonzero"></path>
                                        <g id="Group-6" transform="translate(2.712800, 2.845600)">
                                            <g id="icon-bg-/-Cred" fill="#F7F2FF">
                                                <circle id="Oval-3" cx="17.3719" cy="17.3719" r="17.3719"></circle>
                                            </g>
                                            <g id="icon-/-product-/-credentialing" transform="translate(4.604600, 4.186000)">
                                                <g id="Group-25" transform="translate(4.240364, 3.816327)">
                                                    <g id="Group-12">
                                                        <g id="Group-5">
                                                            <g id="Group-3" transform="translate(0.609194, 5.741131)">
                                                                <mask id="mask-12" fill="white">
                                                                    <use xlink:href="#path-11"></use>
                                                                </mask>
                                                                <g id="Clip-2"></g>
                                                                <path d="M1.93280586,4.90705126 L14.6322217,4.90705126 C15.6156897,4.90705126 16.420283,4.1770993 16.420283,3.28507397 L16.420283,1.62993588 C16.420283,0.737910549 15.6156897,0.00795859035 14.6322217,0.00795859035 L1.93280586,0.00795859035 C0.949566323,0.00795859035 0.144973004,0.737910549 0.144973004,1.62993588 L0.144973004,3.28507397 C0.144973004,4.1770993 0.949566323,4.90705126 1.93280586,4.90705126" id="Fill-1" fill="#6A5297" mask="url(#mask-12)"></path>
                                                            </g>
                                                            <polygon id="Fill-4" fill="#FFFFFF" transform="translate(8.559022, 8.201273) rotate(-2.000000) translate(-8.559022, -8.201273) " points="16.7118688 14.8636909 1.94180163 16.0344742 0.406175196 1.53885521 15.1760139 0.36807196"></polygon>
                                                            <ellipse id="Oval-3" fill="#F0E7FF" opacity="0.216243004" cx="8.09406981" cy="5.78113024" rx="2.67977026" ry="2.43647634"></ellipse>
                                                            <g id="Group-4" transform="translate(4.566846, 1.720886)" fill="#8B6FC0">
                                                                <polygon id="Fill-6" points="2.90699814 5.7855372 0.031973494 3.00138158 1.1457303 2.05348649 2.96815547 3.81819697 7.38220099 -1.69614545e-16 8.43543096 1.00370413"></polygon>
                                                            </g>
                                                            <path d="M1.29885547,17.9116606 L16.4846977,17.9116606 C16.7841928,17.9116606 17.0293174,17.6892761 17.0293174,17.4175648 L17.0293174,8.33648162 C17.0293174,8.06477037 16.7841928,7.8423858 16.4846977,7.8423858 L1.29885547,7.8423858 C0.999360339,7.8423858 0.754235799,8.06477037 0.754235799,8.33648162 L0.754235799,17.4175648 C0.754235799,17.6892761 0.999360339,17.9116606 1.29885547,17.9116606" id="Fill-8" fill="#6A5297"></path>
                                                            <path d="M8.97605099,17.9116606 L16.4846748,17.9116606 C16.78417,17.9116606 17.0292945,17.6892761 17.0292945,17.4175648 L17.0292945,8.33648162 C17.0292945,8.06477037 16.78417,7.8423858 16.4846748,7.8423858 L8.97605099,7.8423858 C8.67655586,7.8423858 8.43143132,8.06477037 8.43143132,8.33648162 L8.43143132,17.4175648 C8.43143132,17.6892761 8.67655586,17.9116606 8.97605099,17.9116606" id="Fill-10" fill="#8B6FC0"></path>
                                                            <path d="M7.9244129,8.83515777 C7.9244129,9.08910945 8.1513747,9.29501622 8.43129425,9.29501622 C8.71121381,9.29501622 8.93817561,9.08910945 8.93817561,8.83515777 C8.93817561,8.58120609 8.71121381,8.37529932 8.43129425,8.37529932 C8.1513747,8.37529932 7.9244129,8.58120609 7.9244129,8.83515777" id="Fill-15" fill="#FEFEFE"></path>
                                                            <path d="M2.27652088,19.0054487 L15.507078,19.0054487 C16.3443393,19.0054487 17.0294544,18.383891 17.0294544,17.6243016 L17.0294544,17.6243016 C17.0294544,16.8647122 16.3443393,16.2431546 15.507078,16.2431546 L2.27652088,16.2431546 C1.43925951,16.2431546 0.75414442,16.8647122 0.75414442,17.6243016 L0.75414442,17.6243016 C0.75414442,18.383891 1.43925951,19.0054487 2.27652088,19.0054487" id="Fill-12" fill="#AC8BE9"></path>
                                                        </g>
                                                    </g>
                                                </g>
                                            </g>
                                        </g>
                                    </g>
                                    <path d="M55.9966117,24.1992 L53.916693,18.2096227 L53.8774492,18.2096227 C53.9330448,19.0991521 53.9608422,19.9330735 53.9608422,20.7114117 L53.9608422,24.1992 L52.8963555,24.1992 L52.8963555,17.0274047 L54.5494984,17.0274047 L56.5411187,22.7324648 L56.5705516,22.7324648 L58.6210375,17.0274047 L60.2790859,17.0274047 L60.2790859,24.1992 L59.1508281,24.1992 L59.1508281,20.6525461 C59.1508281,20.2960802 59.1598214,19.8317005 59.1778082,19.259393 C59.195795,18.6870854 59.2113288,18.3404358 59.2244102,18.2194336 L59.1851664,18.2194336 L57.0316656,24.1992 L55.9966117,24.1992 Z M61.2209359,18.7737516 L62.4767359,18.7737516 L63.5804664,21.8494805 C63.7472532,22.2877045 63.8584427,22.6997598 63.9140383,23.0856586 L63.953282,23.0856586 C63.982715,22.9057905 64.0366746,22.6874993 64.1151625,22.4307785 C64.1936504,22.1740577 64.6089759,20.9550609 65.3611516,18.7737516 L66.6071406,18.7737516 L64.2868539,24.9203039 C63.8649815,26.0485674 63.1618713,26.6126906 62.1775023,26.6126906 C61.9224167,26.6126906 61.6738754,26.5848932 61.4318711,26.5292977 L61.4318711,25.6168805 C61.6051985,25.6561244 61.8030505,25.6757461 62.0254328,25.6757461 C62.5813887,25.6757461 62.9721872,25.3536235 63.1978398,24.7093687 L63.3989641,24.1992 L61.2209359,18.7737516 Z M72.2288078,24.2973094 C71.4079553,24.2973094 70.7841494,24.0577614 70.3573715,23.5786582 C69.9305936,23.099555 69.7172078,22.4119787 69.7172078,21.5159086 C69.7172078,20.6034868 69.9404044,19.9020118 70.3868043,19.4114625 C70.8332042,18.9209132 71.4782669,18.6756422 72.3220117,18.6756422 C72.8943193,18.6756422 73.4093883,18.7819263 73.8672344,18.9944977 L73.5189461,19.9216312 C73.0316671,19.7319522 72.6294227,19.6371141 72.3122008,19.6371141 C71.3736164,19.6371141 70.9043312,20.2601024 70.9043312,21.5060977 C70.9043312,22.1143788 71.0212438,22.5714004 71.2550723,22.8771762 C71.4889008,23.1829519 71.8314626,23.3358375 72.282768,23.3358375 C72.7962096,23.3358375 73.2818461,23.2082966 73.7396922,22.9532109 L73.7396922,23.958832 C73.5336615,24.0798342 73.3137352,24.1664966 73.0799066,24.2188219 C72.8460781,24.2711471 72.5623814,24.2973094 72.2288078,24.2973094 Z M77.767082,18.6756422 C77.9992754,18.6756422 78.1905867,18.6919936 78.3410219,18.7246969 L78.2281961,19.7989945 C78.0646797,19.7597506 77.8946251,19.7401289 77.7180273,19.7401289 C77.256911,19.7401289 76.8832815,19.8905618 76.5971277,20.191432 C76.310974,20.4923023 76.1678992,20.8831007 76.1678992,21.3638391 L76.1678992,24.1992 L75.0151141,24.1992 L75.0151141,18.7737516 L75.9177203,18.7737516 L76.0697898,19.730318 L76.1286555,19.730318 C76.3085236,19.4065554 76.5431661,19.1498384 76.8325902,18.9601594 C77.1220143,18.7704803 77.4335085,18.6756422 77.767082,18.6756422 Z M81.7159844,24.2973094 C80.8722395,24.2973094 80.2124606,24.0512208 79.7366277,23.5590363 C79.2607949,23.0668518 79.022882,22.3890863 79.022882,21.5257195 C79.022882,20.6394604 79.2436259,19.9428908 79.6851203,19.4359898 C80.1266147,18.9290889 80.7332516,18.6756422 81.5050492,18.6756422 C82.2212512,18.6756422 82.7870096,18.8931158 83.2023414,19.3280695 C83.6176732,19.7630233 83.8253359,20.3614845 83.8253359,21.1234711 L83.8253359,21.7464656 L80.2100055,21.7464656 C80.2263571,22.2729886 80.3686143,22.6776857 80.6367812,22.9605691 C80.9049482,23.2434526 81.2826655,23.3848922 81.7699445,23.3848922 C82.0904368,23.3848922 82.3888498,23.3546421 82.6651926,23.294141 C82.9415354,23.2336399 83.2383133,23.1330788 83.5555352,22.9924547 L83.5555352,23.9293992 C83.2742869,24.0634827 82.9897725,24.1583208 82.7019836,24.2139164 C82.4141947,24.269512 82.0855315,24.2973094 81.7159844,24.2973094 Z M81.5050492,19.5488156 C81.1387724,19.5488156 80.8452648,19.6649106 80.6245176,19.8971039 C80.4037704,20.1292973 80.2721416,20.4677712 80.2296273,20.9125359 L82.6921727,20.9125359 C82.685632,20.4645009 82.5777128,20.1252094 82.3684117,19.8946512 C82.1591107,19.664093 81.8713261,19.5488156 81.5050492,19.5488156 Z M86.9648359,24.2973094 C86.2878779,24.2973094 85.7597277,24.0520384 85.3803695,23.5614891 C85.0010114,23.0709397 84.8113352,22.3825458 84.8113352,21.4962867 C84.8113352,20.6067573 85.0034641,19.9142755 85.3877277,19.4188207 C85.7719914,18.9233659 86.3042294,18.6756422 86.9844578,18.6756422 C87.6973895,18.6756422 88.2402559,18.9388997 88.6130734,19.4654227 L88.6719391,19.4654227 C88.6163435,19.0762535 88.5885461,18.7688472 88.5885461,18.5431945 L88.5885461,16.5662906 L89.7462367,16.5662906 L89.7462367,24.1992 L88.8436305,24.1992 L88.6425062,23.487907 L88.5885461,23.487907 C88.2189989,24.0275113 87.6777676,24.2973094 86.9648359,24.2973094 Z M87.2738805,23.3652703 C87.7480782,23.3652703 88.0930927,23.2320064 88.3089344,22.9654746 C88.5247761,22.6989428 88.6359656,22.2664483 88.6425062,21.6679781 L88.6425062,21.5060977 C88.6425062,20.8225989 88.5313167,20.3369624 88.3089344,20.0491734 C88.086552,19.7613845 87.7382672,19.6174922 87.2640695,19.6174922 C86.8585488,19.6174922 86.546237,19.7818237 86.327125,20.1104918 C86.108013,20.4391598 85.9984586,20.9076274 85.9984586,21.5159086 C85.9984586,22.1176491 86.1047427,22.5763058 86.3173141,22.8918926 C86.5298854,23.2074793 86.8487377,23.3652703 87.2738805,23.3652703 Z M93.7638156,24.2973094 C92.9200708,24.2973094 92.2602918,24.0512208 91.784459,23.5590363 C91.3086261,23.0668518 91.0707133,22.3890863 91.0707133,21.5257195 C91.0707133,20.6394604 91.2914572,19.9428908 91.7329516,19.4359898 C92.174446,18.9290889 92.7810829,18.6756422 93.5528805,18.6756422 C94.2690825,18.6756422 94.8348409,18.8931158 95.2501727,19.3280695 C95.6655044,19.7630233 95.8731672,20.3614845 95.8731672,21.1234711 L95.8731672,21.7464656 L92.2578367,21.7464656 C92.2741884,22.2729886 92.4164455,22.6776857 92.6846125,22.9605691 C92.9527795,23.2434526 93.3304968,23.3848922 93.8177758,23.3848922 C94.138268,23.3848922 94.436681,23.3546421 94.7130238,23.294141 C94.9893666,23.2336399 95.2861445,23.1330788 95.6033664,22.9924547 L95.6033664,23.9293992 C95.3221181,24.0634827 95.0376038,24.1583208 94.7498148,24.2139164 C94.4620259,24.269512 94.1333628,24.2973094 93.7638156,24.2973094 Z M93.5528805,19.5488156 C93.1866036,19.5488156 92.893096,19.6649106 92.6723488,19.8971039 C92.4516016,20.1292973 92.3199729,20.4677712 92.2774586,20.9125359 L94.7400039,20.9125359 C94.7334632,20.4645009 94.625544,20.1252094 94.416243,19.8946512 C94.2069419,19.664093 93.9191573,19.5488156 93.5528805,19.5488156 Z M101.955948,24.1992 L100.798258,24.1992 L100.798258,20.8634812 C100.798258,20.4448792 100.714048,20.1325674 100.545626,19.9265367 C100.377204,19.720506 100.109859,19.6174922 99.743582,19.6174922 C99.256303,19.6174922 98.8998425,19.7613845 98.6741898,20.0491734 C98.4485372,20.3369624 98.3357125,20.8193286 98.3357125,21.4962867 L98.3357125,24.1992 L97.1829273,24.1992 L97.1829273,18.7737516 L98.0855336,18.7737516 L98.2474141,19.4850445 L98.3062797,19.4850445 C98.4697961,19.2266886 98.701986,19.0272015 99.0028562,18.8865773 C99.3037265,18.7459532 99.637295,18.6756422 100.003572,18.6756422 C101.305163,18.6756422 101.955948,19.3378738 101.955948,20.662357 L101.955948,24.1992 Z M105.58109,23.3652703 C105.862338,23.3652703 106.143582,23.3211215 106.42483,23.2328227 L106.42483,24.1010906 C106.297288,24.1566862 106.132956,24.2032877 105.931831,24.2408965 C105.730706,24.2785053 105.522225,24.2973094 105.306384,24.2973094 C104.214094,24.2973094 103.667957,23.7217401 103.667957,22.5705844 L103.667957,19.646925 L102.927231,19.646925 L102.927231,19.1367562 L103.721917,18.7148859 L104.114355,17.5670062 L104.825648,17.5670062 L104.825648,18.7737516 L106.37087,18.7737516 L106.37087,19.646925 L104.825648,19.646925 L104.825648,22.5509625 C104.825648,22.8289405 104.895141,23.0341505 105.03413,23.1665988 C105.173119,23.2990471 105.355437,23.3652703 105.58109,23.3652703 Z M108.661724,24.1992 L107.508939,24.1992 L107.508939,18.7737516 L108.661724,18.7737516 L108.661724,24.1992 Z M107.440262,17.3364492 C107.440262,17.1304185 107.496675,16.9718099 107.609501,16.8606187 C107.722328,16.7494276 107.883389,16.6938328 108.09269,16.6938328 C108.29545,16.6938328 108.453241,16.7494276 108.566068,16.8606187 C108.678894,16.9718099 108.735306,17.1304185 108.735306,17.3364492 C108.735306,17.5326689 108.678894,17.6871897 108.566068,17.800016 C108.453241,17.9128424 108.29545,17.9692547 108.09269,17.9692547 C107.883389,17.9692547 107.722328,17.9128424 107.609501,17.800016 C107.496675,17.6871897 107.440262,17.5326689 107.440262,17.3364492 Z M113.704546,24.1992 L113.473989,23.4437578 L113.434745,23.4437578 C113.173119,23.774061 112.909861,23.9988928 112.644965,24.1182598 C112.380068,24.2376268 112.039959,24.2973094 111.624627,24.2973094 C111.091564,24.2973094 110.675421,24.1534171 110.376186,23.8656281 C110.07695,23.5778392 109.927335,23.1706894 109.927335,22.6441664 C109.927335,22.0849402 110.134998,21.6630741 110.55033,21.3785555 C110.965661,21.0940369 111.598461,20.9386986 112.448746,20.9125359 L113.385691,20.8831031 L113.385691,20.5936805 C113.385691,20.2470256 113.304751,19.9878559 113.14287,19.8161637 C112.980989,19.6444714 112.729995,19.5586266 112.38988,19.5586266 C112.111903,19.5586266 111.845375,19.5995051 111.590289,19.6812633 C111.335203,19.7630215 111.089932,19.8594948 110.854469,19.9706859 L110.481653,19.1465672 C110.775983,18.9928617 111.098105,18.8759492 111.44803,18.7958262 C111.797956,18.7157031 112.128254,18.6756422 112.438935,18.6756422 C113.128975,18.6756422 113.649767,18.8260751 114.001327,19.1269453 C114.352887,19.4278156 114.528665,19.900371 114.528665,20.5446258 L114.528665,24.1992 L113.704546,24.1992 Z M111.987632,23.414325 C112.406234,23.414325 112.742255,23.2974125 112.995706,23.063584 C113.249156,22.8297555 113.37588,22.5019099 113.37588,22.0800375 L113.37588,21.6091125 L112.679303,21.6385453 C112.136429,21.6581673 111.741542,21.7489175 111.494632,21.9107988 C111.247723,22.0726801 111.12427,22.3204038 111.12427,22.6539773 C111.12427,22.8959817 111.196216,23.0832052 111.34011,23.2156535 C111.484005,23.3481018 111.699843,23.414325 111.987632,23.414325 Z M117.290444,24.1992 L116.137659,24.1992 L116.137659,16.5662906 L117.290444,16.5662906 L117.290444,24.1992 Z M122.583445,22.6539773 C122.583445,23.1837706 122.390498,23.5901029 122.004599,23.8729863 C121.6187,24.1558698 121.066023,24.2973094 120.346551,24.2973094 C119.623808,24.2973094 119.043333,24.187755 118.605109,23.968643 L118.605109,22.9728328 C119.242824,23.2671624 119.836379,23.414325 120.385795,23.414325 C121.095456,23.414325 121.450281,23.2001217 121.450281,22.7717086 C121.450281,22.6343548 121.411038,22.519895 121.33255,22.4283258 C121.254062,22.3367566 121.124886,22.2419185 120.945018,22.1438086 C120.76515,22.0456987 120.514973,21.9345092 120.194481,21.8102367 C119.569848,21.5682324 119.147165,21.3262317 118.926418,21.0842273 C118.70567,20.842223 118.595298,20.5282761 118.595298,20.1423773 C118.595298,19.6779906 118.782522,19.3174423 119.156975,19.0607215 C119.531427,18.8040007 120.040773,18.6756422 120.685028,18.6756422 C121.322742,18.6756422 121.926109,18.8048182 122.495146,19.0631742 L122.12233,19.9314422 C121.536942,19.6894379 121.044764,19.5684375 120.645784,19.5684375 C120.037503,19.5684375 119.733367,19.7417623 119.733367,20.0884172 C119.733367,20.2584743 119.812671,20.4023666 119.971282,20.5200984 C120.129893,20.6378303 120.475725,20.7997091 121.008789,21.0057398 C121.456824,21.1790673 121.782217,21.3376758 121.984977,21.4815703 C122.187738,21.6254648 122.338171,21.7914315 122.43628,21.9794754 C122.53439,22.1675193 122.583445,22.392351 122.583445,22.6539773 Z" id="Mycredentials" fill="#282E2E" fill-rule="nonzero"></path>
                                    <polygon id="c" fill="#CFD5DF" fill-rule="nonzero" points="222.878318 13.8595909 228.170618 19.1518909 222.878318 24.4441909 221.637935 23.2038081 225.689852 19.1518909 221.637935 15.0999737"></polygon>
                                </g>
                                <g id="status/complete" opacity="0.5" transform="translate(228.324000, 24.892000)">
                                    <g id="Group-2"></g>
                                </g>
                            </g>
                        </g>
                        <g id="bottom-card" transform="translate(32.000000, 325.000000)">
                            <g id="Rectangle">
                                <use fill="black" fill-opacity="1" filter="url(#filter-14)" xlink:href="#path-13"></use>
                                <use fill="#FFFFFF" fill-rule="evenodd" xlink:href="#path-13"></use>
                            </g>
                            <g id="cell-1">
                                <g id="background">
                                    <use fill="black" fill-opacity="1" filter="url(#filter-16)" xlink:href="#path-15"></use>
                                    <use fill="#FFFFFF" fill-rule="evenodd" xlink:href="#path-15"></use>
                                </g>
                                <g id="content" transform="translate(7.000000, 10.000000)"></g>
                                <g id="license-1" transform="translate(14.534800, 12.454180)">
                                    <path d="M23.0286547,21.9841789 C23.0286547,22.3766184 22.9186331,22.697573 22.6985867,22.9470523 C22.4785403,23.1965317 22.1666958,23.363316 21.7630437,23.4474102 L21.7630437,23.4810477 C22.2563962,23.5427167 22.6222004,23.6996901 22.8604672,23.9519727 C23.098734,24.2042552 23.2178656,24.5350206 23.2178656,24.9442789 C23.2178656,25.530135 23.0146411,25.9807328 22.6081859,26.2960859 C22.2017308,26.6114391 21.6242928,26.7691133 20.8758547,26.7691133 C20.5506906,26.7691133 20.2528615,26.7445862 19.9823586,26.6955313 C19.7118557,26.6464763 19.4490653,26.5602811 19.1939797,26.436943 L19.1939797,25.7726023 C19.4602779,25.9043499 19.7440915,26.0045606 20.0454289,26.0732375 C20.3467664,26.1419144 20.6319815,26.1762523 20.9010828,26.1762523 C21.9634725,26.1762523 22.4946594,25.7599924 22.4946594,24.9274602 C22.4946594,24.1818252 21.9088121,23.8090133 20.7371,23.8090133 L20.131625,23.8090133 L20.131625,23.207743 L20.7455094,23.207743 C21.2248461,23.207743 21.6046658,23.1019261 21.8849797,22.8902891 C22.1652936,22.6786521 22.3054484,22.3850277 22.3054484,22.009407 C22.3054484,21.7094712 22.2024346,21.474011 21.9964039,21.3030195 C21.7903732,21.1320281 21.5107643,21.0465336 21.1575687,21.0465336 C20.8884674,21.0465336 20.6347871,21.0829739 20.3965203,21.1558555 C20.1582535,21.2287371 19.8863531,21.3632857 19.5808109,21.5595055 L19.2276172,21.0885805 C19.4798997,20.8895576 19.770721,20.7332849 20.1000898,20.6197578 C20.4294587,20.5062307 20.7763419,20.449468 21.14075,20.449468 C21.7378186,20.449468 22.2017312,20.5861189 22.5325016,20.859425 C22.863272,21.1327311 23.0286547,21.5076453 23.0286547,21.9841789 Z M27.9523437,21.9841789 C27.9523437,22.3766184 27.8423222,22.697573 27.6222758,22.9470523 C27.4022294,23.1965317 27.0903848,23.363316 26.6867328,23.4474102 L26.6867328,23.4810477 C27.1800853,23.5427167 27.5458894,23.6996901 27.7841562,23.9519727 C28.0224231,24.2042552 28.1415547,24.5350206 28.1415547,24.9442789 C28.1415547,25.530135 27.9383302,25.9807328 27.531875,26.2960859 C27.1254198,26.6114391 26.5479819,26.7691133 25.7995437,26.7691133 C25.4743796,26.7691133 25.1765506,26.7445862 24.9060477,26.6955313 C24.6355447,26.6464763 24.3727544,26.5602811 24.1176687,26.436943 L24.1176687,25.7726023 C24.383967,25.9043499 24.6677805,26.0045606 24.969118,26.0732375 C25.2704554,26.1419144 25.5556705,26.1762523 25.8247719,26.1762523 C26.8871616,26.1762523 27.4183484,25.7599924 27.4183484,24.9274602 C27.4183484,24.1818252 26.8325012,23.8090133 25.6607891,23.8090133 L25.0553141,23.8090133 L25.0553141,23.207743 L25.6691984,23.207743 C26.1485352,23.207743 26.5283548,23.1019261 26.8086687,22.8902891 C27.0889827,22.6786521 27.2291375,22.3850277 27.2291375,22.009407 C27.2291375,21.7094712 27.1261237,21.474011 26.920093,21.3030195 C26.7140623,21.1320281 26.4344533,21.0465336 26.0812578,21.0465336 C25.8121565,21.0465336 25.5584762,21.0829739 25.3202094,21.1558555 C25.0819426,21.2287371 24.8100422,21.3632857 24.5045,21.5595055 L24.1513062,21.0885805 C24.4035888,20.8895576 24.6944101,20.7332849 25.0237789,20.6197578 C25.3531477,20.5062307 25.700031,20.449468 26.0644391,20.449468 C26.6615077,20.449468 27.1254202,20.5861189 27.4561906,20.859425 C27.786961,21.1327311 27.9523437,21.5076453 27.9523437,21.9841789 Z M33.3974141,25.2722445 L32.4849969,25.2722445 L32.4849969,26.6850195 L31.8164516,26.6850195 L31.8164516,25.2722445 L28.8269187,25.2722445 L28.8269187,24.6625648 L31.7449719,20.5041289 L32.4849969,20.5041289 L32.4849969,24.6373367 L33.3974141,24.6373367 L33.3974141,25.2722445 Z M31.8164516,24.6373367 L31.8164516,22.5938586 C31.8164516,22.1930097 31.830467,21.7403096 31.8584984,21.2357445 L31.8248609,21.2357445 C31.6903103,21.5048459 31.5641709,21.7276921 31.4464391,21.9042898 L29.5248969,24.6373367 L31.8164516,24.6373367 Z M38.3211031,25.2722445 L37.4086859,25.2722445 L37.4086859,26.6850195 L36.7401406,26.6850195 L36.7401406,25.2722445 L33.7506078,25.2722445 L33.7506078,24.6625648 L36.6686609,20.5041289 L37.4086859,20.5041289 L37.4086859,24.6373367 L38.3211031,24.6373367 L38.3211031,25.2722445 Z M36.7401406,24.6373367 L36.7401406,22.5938586 C36.7401406,22.1930097 36.7541561,21.7403096 36.7821875,21.2357445 L36.74855,21.2357445 C36.6139993,21.5048459 36.48786,21.7276921 36.3701281,21.9042898 L34.4485859,24.6373367 L36.7401406,24.6373367 Z M43.2447922,25.2722445 L42.332375,25.2722445 L42.332375,26.6850195 L41.6638297,26.6850195 L41.6638297,25.2722445 L38.6742969,25.2722445 L38.6742969,24.6625648 L41.59235,20.5041289 L42.332375,20.5041289 L42.332375,24.6373367 L43.2447922,24.6373367 L43.2447922,25.2722445 Z M41.6638297,24.6373367 L41.6638297,22.5938586 C41.6638297,22.1930097 41.6778452,21.7403096 41.7058766,21.2357445 L41.6722391,21.2357445 C41.5376884,21.5048459 41.411549,21.7276921 41.2938172,21.9042898 L39.372275,24.6373367 L41.6638297,24.6373367 Z M45.7591953,22.9302336 C46.4067204,22.9302336 46.9161833,23.0907109 47.2875992,23.4116703 C47.6590151,23.7326297 47.8447203,24.1720152 47.8447203,24.7298398 C47.8447203,25.3661524 47.6421966,25.8651037 47.237143,26.2267086 C46.8320894,26.5883135 46.2735723,26.7691133 45.561575,26.7691133 C44.8691997,26.7691133 44.3408159,26.658391 43.9764078,26.436943 L43.9764078,25.764193 C44.1726275,25.8903342 44.416497,25.9891434 44.7080234,26.0606234 C44.9995499,26.1321035 45.2868673,26.167843 45.5699844,26.167843 C46.0633368,26.167843 46.4466604,26.0515144 46.7199664,25.8188539 C46.9932725,25.5861934 47.1299234,25.2498217 47.1299234,24.8097289 C47.1299234,23.9519684 46.6043428,23.5230945 45.5531656,23.5230945 C45.2868674,23.5230945 44.9308741,23.5637394 44.485175,23.6450305 L44.1235719,23.4137727 L44.3548297,20.5377664 L47.4116375,20.5377664 L47.4116375,21.1810836 L44.9518953,21.1810836 L44.7963219,23.0269414 C45.1186829,22.9624692 45.4396375,22.9302336 45.7591953,22.9302336 Z M50.6828844,22.9302336 C51.3304095,22.9302336 51.8398724,23.0907109 52.2112883,23.4116703 C52.5827042,23.7326297 52.7684094,24.1720152 52.7684094,24.7298398 C52.7684094,25.3661524 52.5658856,25.8651037 52.160832,26.2267086 C51.7557784,26.5883135 51.1972614,26.7691133 50.4852641,26.7691133 C49.7928887,26.7691133 49.2645049,26.658391 48.9000969,26.436943 L48.9000969,25.764193 C49.0963166,25.8903342 49.340186,25.9891434 49.6317125,26.0606234 C49.923239,26.1321035 50.2105564,26.167843 50.4936734,26.167843 C50.9870259,26.167843 51.3703494,26.0515144 51.6436555,25.8188539 C51.9169615,25.5861934 52.0536125,25.2498217 52.0536125,24.8097289 C52.0536125,23.9519684 51.5280318,23.5230945 50.4768547,23.5230945 C50.2105565,23.5230945 49.8545632,23.5637394 49.4088641,23.6450305 L49.0472609,23.4137727 L49.2785187,20.5377664 L52.3353266,20.5377664 L52.3353266,21.1810836 L49.8755844,21.1810836 L49.7200109,23.0269414 C50.0423719,22.9624692 50.3633265,22.9302336 50.6828844,22.9302336 Z M53.7565109,24.0570898 C53.7565109,22.8489369 53.9912703,21.9456389 54.4607961,21.3471688 C54.9303219,20.7486986 55.6247892,20.449468 56.5442187,20.449468 C56.8609735,20.449468 57.1104491,20.4760974 57.2926531,20.529357 L57.2926531,21.1306273 C57.0768114,21.0605489 56.8301389,21.0255102 56.5526281,21.0255102 C55.8938905,21.0255102 55.3907346,21.230837 55.0431453,21.6414969 C54.6955561,22.0521567 54.5049455,22.6975698 54.4713078,23.5777555 L54.5217641,23.5777555 C54.8301094,23.0956156 55.3178482,22.8545492 55.9849953,22.8545492 C56.5372137,22.8545492 56.9723945,23.0213335 57.2905508,23.354907 C57.6087071,23.6884806 57.7677828,24.1411807 57.7677828,24.7130211 C57.7677828,25.3521368 57.59329,25.8545919 57.2442992,26.2204016 C56.8953084,26.5862112 56.4236873,26.7691133 55.8294219,26.7691133 C55.1931093,26.7691133 54.6885519,26.5301493 54.3157344,26.0522141 C53.9429169,25.5742789 53.7565109,24.9092441 53.7565109,24.0570898 Z M55.8210125,26.1762523 C56.2190582,26.1762523 56.5280997,26.0508138 56.7481461,25.7999328 C56.9681925,25.5490519 57.0782141,25.1867516 57.0782141,24.7130211 C57.0782141,24.3065659 56.975901,23.9870129 56.7712719,23.7543523 C56.5666427,23.5216918 56.2611052,23.4053633 55.85465,23.4053633 C55.6023675,23.4053633 55.371112,23.4572206 55.1608766,23.5609367 C54.9506411,23.6646529 54.7831561,23.8076108 54.6584164,23.9898148 C54.5336767,24.1720189 54.4713078,24.3612279 54.4713078,24.5574477 C54.4713078,24.846171 54.5273698,25.1152683 54.6394953,25.3647477 C54.7516209,25.614227 54.9106966,25.8118454 55.1167273,25.9576086 C55.3227581,26.1033718 55.5575174,26.1762523 55.8210125,26.1762523 Z M58.6802,24.0570898 C58.6802,22.8489369 58.9149594,21.9456389 59.3844852,21.3471688 C59.8540109,20.7486986 60.5484782,20.449468 61.4679078,20.449468 C61.7846625,20.449468 62.0341382,20.4760974 62.2163422,20.529357 L62.2163422,21.1306273 C62.0005005,21.0605489 61.753828,21.0255102 61.4763172,21.0255102 C60.8175795,21.0255102 60.3144236,21.230837 59.9668344,21.6414969 C59.6192451,22.0521567 59.4286345,22.6975698 59.3949969,23.5777555 L59.4454531,23.5777555 C59.7537984,23.0956156 60.2415373,22.8545492 60.9086844,22.8545492 C61.4609028,22.8545492 61.8960836,23.0213335 62.2142398,23.354907 C62.5323961,23.6884806 62.6914719,24.1411807 62.6914719,24.7130211 C62.6914719,25.3521368 62.5169791,25.8545919 62.1679883,26.2204016 C61.8189975,26.5862112 61.3473764,26.7691133 60.7531109,26.7691133 C60.1167984,26.7691133 59.6122409,26.5301493 59.2394234,26.0522141 C58.8666059,25.5742789 58.6802,24.9092441 58.6802,24.0570898 Z M60.7447016,26.1762523 C61.1427473,26.1762523 61.4517887,26.0508138 61.6718352,25.7999328 C61.8918816,25.5490519 62.0019031,25.1867516 62.0019031,24.7130211 C62.0019031,24.3065659 61.8995901,23.9870129 61.6949609,23.7543523 C61.4903318,23.5216918 61.1847942,23.4053633 60.7783391,23.4053633 C60.5260566,23.4053633 60.2948011,23.4572206 60.0845656,23.5609367 C59.8743302,23.6646529 59.7068452,23.8076108 59.5821055,23.9898148 C59.4573658,24.1720189 59.3949969,24.3612279 59.3949969,24.5574477 C59.3949969,24.846171 59.4510588,25.1152683 59.5631844,25.3647477 C59.6753099,25.614227 59.8343857,25.8118454 60.0404164,25.9576086 C60.2464471,26.1033718 60.4812065,26.1762523 60.7447016,26.1762523 Z" id="RT334445566" fill="#4B5353" fill-rule="nonzero"></path>
                                    <path d="M20.0347391,38.8842195 L19.3199422,38.8842195 L19.3199422,32.7369664 L22.7467625,32.7369664 L22.7467625,33.3718742 L20.0347391,33.3718742 L20.0347391,35.621382 L22.5827797,35.621382 L22.5827797,36.2562898 L20.0347391,36.2562898 L20.0347391,38.8842195 Z M24.3571578,38.8842195 L23.6591797,38.8842195 L23.6591797,32.3417258 L24.3571578,32.3417258 L24.3571578,38.8842195 Z M29.8148422,36.5758461 C29.8148422,37.3270873 29.6256331,37.9136354 29.2472094,38.3355078 C28.8687856,38.7573802 28.346008,38.9683133 27.6788609,38.9683133 C27.2667995,38.9683133 26.9009953,38.8716064 26.5814375,38.6781898 C26.2618797,38.4847733 26.0152071,38.2072667 25.8414125,37.8456617 C25.6676179,37.4840568 25.5807219,37.0607891 25.5807219,36.5758461 C25.5807219,35.8246048 25.7685294,35.2394583 26.14415,34.8203891 C26.5197706,34.4013198 27.0411467,34.1917883 27.7082938,34.1917883 C28.3530157,34.1917883 28.8652817,34.4062252 29.245107,34.8351055 C29.6249324,35.2639857 29.8148422,35.8442268 29.8148422,36.5758461 Z M26.3039281,36.5758461 C26.3039281,37.1645053 26.4216582,37.6130008 26.6571219,37.9213461 C26.8925856,38.2296914 27.238768,38.3838617 27.6956797,38.3838617 C28.1525913,38.3838617 28.4994746,38.2303922 28.7363398,37.9234484 C28.9732051,37.6165047 29.0916359,37.1673084 29.0916359,36.5758461 C29.0916359,35.98999 28.9732051,35.5449984 28.7363398,35.2408578 C28.4994746,34.9367172 28.1497883,34.7846492 27.6872703,34.7846492 C27.2303587,34.7846492 26.8855777,34.9346149 26.6529172,35.2345508 C26.4202566,35.5344867 26.3039281,35.9815806 26.3039281,36.5758461 Z M33.14075,34.1917883 C33.3453791,34.1917883 33.528982,34.2086069 33.6915641,34.2422445 L33.5948563,34.8897664 C33.4042428,34.8477193 33.236057,34.8266961 33.0902938,34.8266961 C32.7174763,34.8266961 32.398624,34.9780633 32.1337273,35.2808023 C31.8688307,35.5835414 31.7363844,35.9605579 31.7363844,36.4118633 L31.7363844,38.8842195 L31.0384063,38.8842195 L31.0384063,34.275882 L31.6144484,34.275882 L31.6943375,35.1294336 L31.727975,35.1294336 C31.8989665,34.8294977 32.1049941,34.5982422 32.3460641,34.4356602 C32.587134,34.2730781 32.8520267,34.1917883 33.14075,34.1917883 Z M35.2515031,38.8842195 L34.553525,38.8842195 L34.553525,34.275882 L35.2515031,34.275882 L35.2515031,38.8842195 Z M34.4946594,33.0270898 C34.4946594,32.8673109 34.5339027,32.7502816 34.6123906,32.6759984 C34.6908785,32.6017153 34.7889869,32.5645742 34.9067188,32.5645742 C35.0188443,32.5645742 35.1155512,32.602416 35.1968422,32.6781008 C35.2781332,32.7537855 35.3187781,32.8701141 35.3187781,33.0270898 C35.3187781,33.1840656 35.2781332,33.3010949 35.1968422,33.3781812 C35.1155512,33.4552676 35.0188443,33.4938102 34.9067188,33.4938102 C34.7889869,33.4938102 34.6908785,33.4552676 34.6123906,33.3781812 C34.5339027,33.3010949 34.4946594,33.1840656 34.4946594,33.0270898 Z M39.86825,38.2661305 L39.8304078,38.2661305 C39.5080468,38.7342547 39.0259141,38.9683133 38.3839953,38.9683133 C37.7813204,38.9683133 37.3125025,38.7622857 36.9775273,38.3502242 C36.6425522,37.9381628 36.4750672,37.3523155 36.4750672,36.5926648 C36.4750672,35.8330142 36.643253,35.2429623 36.9796297,34.8224914 C37.3160064,34.4020206 37.7841236,34.1917883 38.3839953,34.1917883 C39.0090953,34.1917883 39.4884249,34.4188391 39.8219984,34.8729477 L39.8766594,34.8729477 L39.8472266,34.5407773 L39.8304078,34.2170164 L39.8304078,32.3417258 L40.5283859,32.3417258 L40.5283859,38.8842195 L39.9607531,38.8842195 L39.86825,38.2661305 Z M38.4722938,38.3838617 C38.9488274,38.3838617 39.2943091,38.2542185 39.5087492,37.9949281 C39.7231894,37.7356378 39.8304078,37.3172755 39.8304078,36.7398289 L39.8304078,36.5926648 C39.8304078,35.9395335 39.7217878,35.4735186 39.5045445,35.1946062 C39.2873013,34.9156939 38.940418,34.7762398 38.4638844,34.7762398 C38.0546261,34.7762398 37.74138,34.9353156 37.5241367,35.2534719 C37.3068934,35.5716282 37.1982734,36.0208244 37.1982734,36.6010742 C37.1982734,37.1897334 37.3061927,37.6340243 37.5220344,37.9339602 C37.7378761,38.233896 38.054626,38.3838617 38.4722938,38.3838617 Z M44.8423953,38.8842195 L44.7036406,38.2282883 L44.6700031,38.2282883 C44.4401457,38.5170116 44.2109925,38.7125276 43.9825367,38.8148422 C43.7540809,38.9171568 43.4688658,38.9683133 43.1268828,38.9683133 C42.6699712,38.9683133 42.3118755,38.8505832 42.0525852,38.6151195 C41.7932948,38.3796559 41.6636516,38.0446858 41.6636516,37.6101992 C41.6636516,36.6795571 42.4078738,36.1918182 43.8963406,36.146968 L44.6784125,36.1217398 L44.6784125,35.8358211 C44.6784125,35.4742162 44.6006266,35.2072212 44.4450523,35.0348281 C44.2894781,34.8624351 44.0407033,34.7762398 43.6987203,34.7762398 C43.3146903,34.7762398 42.8802102,34.8939699 42.3952672,35.1294336 L42.1808281,34.5954383 C42.4078824,34.4721002 42.6566572,34.3753933 42.9271602,34.3053148 C43.1976631,34.2352364 43.4688627,34.2001977 43.7407672,34.2001977 C44.2901824,34.2001977 44.6973323,34.3221324 44.9622289,34.5660055 C45.2271255,34.8098786 45.3595719,35.2009106 45.3595719,35.7391133 L45.3595719,38.8842195 L44.8423953,38.8842195 Z M43.2656375,38.3922711 C43.700124,38.3922711 44.0414011,38.2731395 44.2894789,38.0348727 C44.5375567,37.7966058 44.6615938,37.4630373 44.6615938,37.034157 L44.6615938,36.617893 L43.9636156,36.6473258 C43.4085941,36.6669478 43.008452,36.753143 42.7631773,36.9059141 C42.5179027,37.0586851 42.3952672,37.2962476 42.3952672,37.6186086 C42.3952672,37.8708911 42.4716516,38.0629032 42.6244227,38.1946508 C42.7771937,38.3263983 42.9909299,38.3922711 43.2656375,38.3922711 Z" id="Florida" fill="#4B5353" fill-rule="nonzero"></path>
                                    <polygon id="c" fill="#CFD5DF" fill-rule="nonzero" points="216.630718 4.55981044 221.923018 9.85211044 216.630718 15.1444104 215.390335 13.9040276 219.442252 9.85211044 215.390335 5.80019325"></polygon>
                                    <circle id="Oval" fill="#00A950" cx="3.588" cy="8.66861953" r="3.588"></circle>
                                    <path d="M24.1604492,6.54224141 C24.1604492,7.29114671 23.9151782,7.86508082 23.4246289,8.26406094 C22.9340796,8.66304106 22.2358748,8.86252812 21.3299937,8.86252812 L20.5843625,8.86252812 L20.5843625,11.5458195 L19.4119555,11.5458195 L19.4119555,4.37402422 L21.4771578,4.37402422 C22.3732279,4.37402422 23.0444528,4.55715989 23.4908527,4.92343672 C23.9372526,5.28971355 24.1604492,5.82930972 24.1604492,6.54224141 Z M20.5843625,7.87652891 L21.207357,7.87652891 C21.8090975,7.87652891 22.2505853,7.77187995 22.5318336,7.56257891 C22.8130819,7.35327786 22.9537039,7.02624988 22.9537039,6.58148516 C22.9537039,6.16942372 22.8277981,5.86201742 22.5759828,5.65925703 C22.3241675,5.45649664 21.9317339,5.35511797 21.3986703,5.35511797 L20.5843625,5.35511797 L20.5843625,7.87652891 Z M30.2432305,11.5458195 L29.0855398,11.5458195 L29.0855398,8.21010078 C29.0855398,7.79149869 29.0013301,7.47918697 28.8329082,7.27315625 C28.6644863,7.06712553 28.3971409,6.96411172 28.0308641,6.96411172 C27.5468554,6.96411172 27.1912125,7.1088216 26.9639246,7.3982457 C26.7366368,7.68766981 26.6229945,8.17248879 26.6229945,8.85271719 L26.6229945,11.5458195 L25.4702094,11.5458195 L25.4702094,3.91291016 L26.6229945,3.91291016 L26.6229945,5.85057031 C26.6229945,6.16125155 26.6033729,6.49318495 26.5641289,6.84638047 L26.6377109,6.84638047 C26.7946867,6.58475416 27.0129779,6.38199681 27.292591,6.23810234 C27.5722041,6.09420787 27.8984145,6.02226172 28.271232,6.02226172 C29.5859042,6.02226172 30.2432305,6.68449338 30.2432305,8.00897656 L30.2432305,11.5458195 Z M35.2419031,11.5458195 L35.0113461,10.7903773 L34.9721023,10.7903773 C34.710476,11.1206806 34.4472185,11.3455123 34.1823219,11.4648793 C33.9174252,11.5842463 33.5773161,11.6439289 33.1619844,11.6439289 C32.6289208,11.6439289 32.2127777,11.5000366 31.9135426,11.2122477 C31.6143075,10.9244587 31.4646922,10.5173089 31.4646922,9.99078594 C31.4646922,9.4315597 31.672355,9.00969361 32.0876867,8.725175 C32.5030185,8.44065639 33.1358176,8.2853181 33.9861031,8.25915547 L34.9230477,8.22972266 L34.9230477,7.9403 C34.9230477,7.59364514 34.8421082,7.33447547 34.680227,7.1627832 C34.5183457,6.99109094 34.2673517,6.90524609 33.9272375,6.90524609 C33.6492595,6.90524609 33.3827317,6.94612459 33.1276461,7.02788281 C32.8725604,7.10964103 32.6272895,7.20611429 32.3918258,7.31730547 L32.0190102,6.49318672 C32.3133398,6.33948126 32.6354623,6.22256876 32.9853875,6.1424457 C33.3353127,6.06232265 33.6656109,6.02226172 33.9762922,6.02226172 C34.6663316,6.02226172 35.1871236,6.17269459 35.538684,6.47356484 C35.8902443,6.7744351 36.0660219,7.24699053 36.0660219,7.89124531 L36.0660219,11.5458195 L35.2419031,11.5458195 Z M33.5249891,10.7609445 C33.9435912,10.7609445 34.2796124,10.644032 34.5330629,10.4102035 C34.7865134,10.176375 34.9132367,9.84852945 34.9132367,9.42665703 L34.9132367,8.95573203 L34.2166602,8.98516484 C33.6737856,9.00478682 33.2788993,9.09553708 33.0319895,9.25741836 C32.7850796,9.41929964 32.6616266,9.66702333 32.6616266,10.0005969 C32.6616266,10.2426012 32.7335727,10.4298247 32.8774672,10.562273 C33.0213617,10.6947214 33.2372001,10.7609445 33.5249891,10.7609445 Z M40.4269836,6.02226172 C40.6591769,6.02226172 40.8504883,6.03861312 41.0009234,6.07131641 L40.8880977,7.14561406 C40.7245812,7.10637012 40.5545267,7.08674844 40.3779289,7.08674844 C39.9168125,7.08674844 39.5431831,7.23718131 39.2570293,7.53805156 C38.9708755,7.83892182 38.8278008,8.22972025 38.8278008,8.71045859 L38.8278008,11.5458195 L37.6750156,11.5458195 L37.6750156,6.12037109 L38.5776219,6.12037109 L38.7296914,7.0769375 L38.788557,7.0769375 C38.9684251,6.75317494 39.2030677,6.49645798 39.4924918,6.30677891 C39.7819159,6.11709983 40.0934101,6.02226172 40.4269836,6.02226172 Z M46.5784414,11.5458195 L45.4207508,11.5458195 L45.4207508,8.20028984 C45.4207508,7.78495808 45.3422641,7.47509907 45.1852883,7.27070352 C45.0283125,7.06630796 44.7830415,6.96411172 44.449468,6.96411172 C44.0047032,6.96411172 43.6784928,7.1088216 43.470827,7.3982457 C43.2631611,7.68766981 43.1593297,8.16921851 43.1593297,8.84290625 L43.1593297,11.5458195 L42.0065445,11.5458195 L42.0065445,6.12037109 L42.9091508,6.12037109 L43.0710312,6.83166406 L43.1298969,6.83166406 C43.280332,6.57330808 43.4986232,6.37382102 43.784777,6.23319687 C44.0709307,6.09257273 44.3856952,6.02226172 44.7290797,6.02226172 C45.5630135,6.02226172 46.1156908,6.30677606 46.3871281,6.87581328 L46.4656156,6.87581328 C46.6258617,6.60764632 46.851511,6.39834841 47.1425703,6.24791328 C47.4336296,6.09747815 47.7671981,6.02226172 48.1432859,6.02226172 C48.7908111,6.02226172 49.2625489,6.18577571 49.5585137,6.51280859 C49.8544784,6.83984148 50.0024586,7.33855915 50.0024586,8.00897656 L50.0024586,11.5458195 L48.8496734,11.5458195 L48.8496734,8.20028984 C48.8496734,7.78495808 48.7703692,7.47509907 48.6117582,7.27070352 C48.4531473,7.06630796 48.2070587,6.96411172 47.8734852,6.96411172 C47.4254501,6.96411172 47.0976046,7.10391618 46.8899387,7.3835293 C46.6822728,7.66314241 46.5784414,8.09236664 46.5784414,8.67121484 L46.5784414,11.5458195 Z M55.0060367,11.5458195 L54.7754797,10.7903773 L54.7362359,10.7903773 C54.4746096,11.1206806 54.2113521,11.3455123 53.9464555,11.4648793 C53.6815588,11.5842463 53.3414497,11.6439289 52.926118,11.6439289 C52.3930544,11.6439289 51.9769113,11.5000366 51.6776762,11.2122477 C51.3784411,10.9244587 51.2288258,10.5173089 51.2288258,9.99078594 C51.2288258,9.4315597 51.4364885,9.00969361 51.8518203,8.725175 C52.2671521,8.44065639 52.8999512,8.2853181 53.7502367,8.25915547 L54.6871812,8.22972266 L54.6871812,7.9403 C54.6871812,7.59364514 54.6062418,7.33447547 54.4443605,7.1627832 C54.2824793,6.99109094 54.0314853,6.90524609 53.6913711,6.90524609 C53.4133931,6.90524609 53.1468653,6.94612459 52.8917797,7.02788281 C52.636694,7.10964103 52.3914231,7.20611429 52.1559594,7.31730547 L51.7831437,6.49318672 C52.0774733,6.33948126 52.3995959,6.22256876 52.7495211,6.1424457 C53.0994463,6.06232265 53.4297445,6.02226172 53.7404258,6.02226172 C54.4304652,6.02226172 54.9512572,6.17269459 55.3028176,6.47356484 C55.6543779,6.7744351 55.8301555,7.24699053 55.8301555,7.89124531 L55.8301555,11.5458195 L55.0060367,11.5458195 Z M53.2891227,10.7609445 C53.7077247,10.7609445 54.043746,10.644032 54.2971965,10.4102035 C54.550647,10.176375 54.6773703,9.84852945 54.6773703,9.42665703 L54.6773703,8.95573203 L53.9807937,8.98516484 C53.4379192,9.00478682 53.0430329,9.09553708 52.796123,9.25741836 C52.5492132,9.41929964 52.4257602,9.66702333 52.4257602,10.0005969 C52.4257602,10.2426012 52.4977063,10.4298247 52.6416008,10.562273 C52.7854953,10.6947214 53.0013337,10.7609445 53.2891227,10.7609445 Z M59.6269883,11.6439289 C58.8061357,11.6439289 58.1823299,11.4043809 57.755552,10.9252777 C57.328774,10.4461746 57.1153883,9.75859823 57.1153883,8.86252812 C57.1153883,7.95010638 57.3385849,7.24863136 57.7849848,6.75808203 C58.2313847,6.2675327 58.8764473,6.02226172 59.7201922,6.02226172 C60.2924997,6.02226172 60.8075688,6.12854581 61.2654148,6.34111719 L60.9171266,7.26825078 C60.4298476,7.07857171 60.0276031,6.98373359 59.7103812,6.98373359 C58.7717969,6.98373359 58.3025117,7.6067219 58.3025117,8.85271719 C58.3025117,9.46099835 58.4194242,9.91801996 58.6532527,10.2237957 C58.8870812,10.5295715 59.2296431,10.682457 59.6809484,10.682457 C60.1943901,10.682457 60.6800266,10.5549161 61.1378727,10.2998305 L61.1378727,11.3054516 C60.9318419,11.4264537 60.7119156,11.5131161 60.4780871,11.5654414 C60.2442586,11.6177667 59.9605618,11.6439289 59.6269883,11.6439289 Z M63.5660797,11.5458195 L62.4132945,11.5458195 L62.4132945,6.12037109 L63.5660797,6.12037109 L63.5660797,11.5458195 Z M62.344618,4.68306875 C62.344618,4.47703803 62.4010303,4.31842946 62.5138566,4.20723828 C62.626683,4.0960471 62.7877443,4.04045234 62.9970453,4.04045234 C63.1998057,4.04045234 63.3575967,4.0960471 63.470423,4.20723828 C63.5832494,4.31842946 63.6396617,4.47703803 63.6396617,4.68306875 C63.6396617,4.87928848 63.5832494,5.0338092 63.470423,5.14663555 C63.3575967,5.25946189 63.1998057,5.31587422 62.9970453,5.31587422 C62.7877443,5.31587422 62.626683,5.25946189 62.5138566,5.14663555 C62.4010303,5.0338092 62.344618,4.87928848 62.344618,4.68306875 Z M68.8590805,10.0005969 C68.8590805,10.5303901 68.666134,10.9367224 68.2802352,11.2196059 C67.8943364,11.5024893 67.3416591,11.6439289 66.6221867,11.6439289 C65.899444,11.6439289 65.3189694,11.5343745 64.8807453,11.3152625 L64.8807453,10.3194523 C65.5184594,10.6137819 66.1120152,10.7609445 66.6614305,10.7609445 C67.3710918,10.7609445 67.7259172,10.5467412 67.7259172,10.1183281 C67.7259172,9.98097431 67.6866738,9.86651452 67.6081859,9.77494531 C67.529698,9.6833761 67.400522,9.58853799 67.2206539,9.49042812 C67.0407858,9.39231826 66.7906094,9.28112875 66.4701172,9.15685625 C65.8454844,8.91485191 65.4228007,8.67285121 65.2020535,8.43084687 C64.9813063,8.18884254 64.8709344,7.87489568 64.8709344,7.48899687 C64.8709344,7.02461018 65.0581579,6.66406183 65.4326105,6.40734102 C65.8070632,6.1506202 66.3164093,6.02226172 66.9606641,6.02226172 C67.5983782,6.02226172 68.2017448,6.15143777 68.770782,6.40979375 L68.3979664,7.27806172 C67.8125775,7.03605738 67.3204004,6.91505703 66.9214203,6.91505703 C66.3131391,6.91505703 66.0090031,7.08838186 66.0090031,7.43503672 C66.0090031,7.60509382 66.0883074,7.74898613 66.2469184,7.86671797 C66.4055293,7.98444981 66.7513614,8.14632866 67.284425,8.35235937 C67.7324601,8.5256868 68.0578529,8.68429537 68.2606133,8.82818984 C68.4633737,8.97208431 68.6138065,9.13805101 68.7119164,9.32609492 C68.8100263,9.51413883 68.8590805,9.73897057 68.8590805,10.0005969 Z M72.1261227,10.7118898 C72.4073709,10.7118898 72.688615,10.6677411 72.9698633,10.5794422 L72.9698633,11.4477102 C72.8423205,11.5033057 72.6779889,11.5499072 72.4768637,11.587516 C72.2757384,11.6251248 72.0672581,11.6439289 71.8514164,11.6439289 C70.7591266,11.6439289 70.2129898,11.0683597 70.2129898,9.91720391 L70.2129898,6.99354453 L69.4722641,6.99354453 L69.4722641,6.48337578 L70.26695,6.06150547 L70.6593875,4.91362578 L71.3706805,4.91362578 L71.3706805,6.12037109 L72.9159031,6.12037109 L72.9159031,6.99354453 L71.3706805,6.99354453 L71.3706805,9.89758203 C71.3706805,10.17556 71.4401739,10.38077 71.5791629,10.5132184 C71.7181519,10.6456667 71.90047,10.7118898 72.1261227,10.7118898 Z" id="Pharmacist" fill="#282E2E" fill-rule="nonzero"></path>
                                </g>
                            </g>
                        </g>
                    </g>
                </g>
            </g>
            <rect id="Rectangle" fill="url(#linearGradient-17)" x="0" y="339" width="352" height="83"></rect>
        </g>
    </g>
</svg>