<?xml version="1.0" encoding="UTF-8"?>
<svg width="861px" height="682px" viewBox="0 0 861 682" version="1.1" xmlns="http://www.w3.org/2000/svg" xmlns:xlink="http://www.w3.org/1999/xlink">
    <!-- Generator: Sketch 53.2 (72643) - https://sketchapp.com -->
    <title>Group 37</title>
    <desc>Created with Sketch.</desc>
    <defs>
        <rect id="path-1" x="-3.69482223e-13" y="4.26325641e-14" width="299.376" height="178.848" rx="2.88"></rect>
        <filter x="-24.9%" y="-14.3%" width="133.4%" height="157.0%" filterUnits="objectBoundingBox" id="filter-2">
            <feOffset dx="-36" dy="38" in="SourceAlpha" result="shadowOffsetOuter1"></feOffset>
            <feGaussianBlur stdDeviation="6.5" in="shadowOffsetOuter1" result="shadowBlurOuter1"></feGaussianBlur>
            <feColorMatrix values="0 0 0 0 0   0 0 0 0 0   0 0 0 0 0  0 0 0 0.121530813 0" type="matrix" in="shadowBlurOuter1"></feColorMatrix>
        </filter>
        <rect id="path-3" x="14" y="11" width="299.376" height="234" rx="2.88"></rect>
        <filter x="-24.9%" y="-10.9%" width="133.4%" height="143.6%" filterUnits="objectBoundingBox" id="filter-4">
            <feOffset dx="-36" dy="38" in="SourceAlpha" result="shadowOffsetOuter1"></feOffset>
            <feGaussianBlur stdDeviation="6.5" in="shadowOffsetOuter1" result="shadowBlurOuter1"></feGaussianBlur>
            <feColorMatrix values="0 0 0 0 0   0 0 0 0 0   0 0 0 0 0  0 0 0 0.121530813 0" type="matrix" in="shadowBlurOuter1"></feColorMatrix>
        </filter>
        <rect id="path-5" x="0" y="0" width="253.53" height="510.3" rx="39.69"></rect>
        <filter x="-2.8%" y="-1.0%" width="105.5%" height="102.7%" filterUnits="objectBoundingBox" id="filter-6">
            <feOffset dx="0" dy="2" in="SourceAlpha" result="shadowOffsetOuter1"></feOffset>
            <feGaussianBlur stdDeviation="2" in="shadowOffsetOuter1" result="shadowBlurOuter1"></feGaussianBlur>
            <feColorMatrix values="0 0 0 0 0   0 0 0 0 0   0 0 0 0 0  0 0 0 0.158271416 0" type="matrix" in="shadowBlurOuter1"></feColorMatrix>
        </filter>
        <rect id="path-7" x="14" y="58" width="226.719" height="402.57" rx="4.86"></rect>
        <rect id="path-9" x="0" y="8.0576" width="299.376" height="178.848" rx="15.12"></rect>
        <filter x="-24.9%" y="-14.3%" width="133.4%" height="157.0%" filterUnits="objectBoundingBox" id="filter-10">
            <feOffset dx="-36" dy="38" in="SourceAlpha" result="shadowOffsetOuter1"></feOffset>
            <feGaussianBlur stdDeviation="6.5" in="shadowOffsetOuter1" result="shadowBlurOuter1"></feGaussianBlur>
            <feColorMatrix values="0 0 0 0 0   0 0 0 0 0   0 0 0 0 0  0 0 0 0.121530813 0" type="matrix" in="shadowBlurOuter1"></feColorMatrix>
        </filter>
        <rect id="path-11" x="9.576" y="7" width="305.1" height="234" rx="2.88"></rect>
        <filter x="-24.4%" y="-10.9%" width="132.8%" height="143.6%" filterUnits="objectBoundingBox" id="filter-12">
            <feOffset dx="-36" dy="38" in="SourceAlpha" result="shadowOffsetOuter1"></feOffset>
            <feGaussianBlur stdDeviation="6.5" in="shadowOffsetOuter1" result="shadowBlurOuter1"></feGaussianBlur>
            <feColorMatrix values="0 0 0 0 0   0 0 0 0 0   0 0 0 0 0  0 0 0 0.121530813 0" type="matrix" in="shadowBlurOuter1"></feColorMatrix>
        </filter>
    </defs>
    <g id="Page-3" stroke="none" stroke-width="1" fill="none" fill-rule="evenodd">
        <g id="Group-37" transform="translate(39.000000, 1.000000)">
            <g id="Group-36" opacity="0.710263207" transform="translate(512.000000, 278.400000)">
                <g id="Group-30">
                    <g id="Group-29" transform="translate(0.000000, 0.000000)">
                        <g id="Mask">
                            <use fill="black" fill-opacity="1" filter="url(#filter-2)" xlink:href="#path-1"></use>
                            <use fill="#FFFFFF" fill-rule="evenodd" xlink:href="#path-1"></use>
                        </g>
                        <g id="part-header" transform="translate(23.040000, 84.240000)">
                            <polygon id="Rectangle-3" fill="#F9FAFC" points="0 0 263.182255 0 263.182255 31.4928 0 31.4928"></polygon>
                            <g id="Group" transform="translate(11.897280, 7.698240)">
                                <text id="Title" font-family="OpenSans-Semibold, Open Sans" font-size="9.79776" font-weight="500" fill="#282E2E">
                                    <tspan x="0" y="10.2434226">Basic info</tspan>
                                </text>
                                <g transform="translate(222.000000, 1.000000)">
                                    <rect id="Rectangle-15" fill-opacity="0" fill="#D8D8D8" x="0" y="1" width="17.449344" height="13.343616"></rect>
                                    <text id="edit" font-family="MaterialIcons-Regular, Material Icons" font-size="13.29696" font-weight="normal" fill="#0073E9">
                                        <tspan x="0.793152" y="13.1333333">edit</tspan>
                                    </text>
                                </g>
                            </g>
                        </g>
                        <g id="Group-21" transform="translate(29.520000, 18.000000)">
                            <rect id="Rectangle" fill="#17BEBB" opacity="0.144159226" x="11.52" y="-2.27373675e-13" width="36.288" height="40.32"></rect>
                            <rect id="Rectangle" fill="#17BEBB" x="4.032" y="6.48" width="36.288" height="40.32"></rect>
                            <path d="M22.176,26.352 C24.64236,26.352 26.64,24.35436 26.64,21.888 C26.64,19.42164 24.64236,17.424 22.176,17.424 C19.70964,17.424 17.712,19.42164 17.712,21.888 C17.712,24.35436 19.70964,26.352 22.176,26.352 Z M22.176,28.584 C19.19628,28.584 13.248,30.07944 13.248,33.048 L13.248,35.28 L31.104,35.28 L31.104,33.048 C31.104,30.07944 25.15572,28.584 22.176,28.584 Z" id="Shape" fill="#FFFFFF" fill-rule="nonzero"></path>
                            <path d="M0,42.48 L9.32571429,42.48" id="Line" stroke="#17BEBB" stroke-width="1.728" stroke-linecap="round"></path>
                            <path d="M0,37.872 L9.32571429,37.872" id="Line" stroke="#17BEBB" stroke-width="1.728" opacity="0.8" stroke-linecap="round"></path>
                            <path d="M0,33.264 L9.32571429,33.264" id="Line" stroke="#17BEBB" stroke-width="1.728" opacity="0.7" stroke-linecap="round"></path>
                            <path d="M0,28.656 L9.32571429,28.656" id="Line" stroke="#17BEBB" stroke-width="1.728" opacity="0.6" stroke-linecap="round"></path>
                            <path d="M0,24.048 L9.32571429,24.048" id="Line" stroke="#17BEBB" stroke-width="1.728" opacity="0.5" stroke-linecap="round"></path>
                            <path d="M0,19.44 L9.32571429,19.44" id="Line" stroke="#17BEBB" stroke-width="1.728" opacity="0.4" stroke-linecap="round"></path>
                            <path d="M0,14.832 L9.32571429,14.832" id="Line" stroke="#17BEBB" stroke-width="1.728" opacity="0.3" stroke-linecap="round"></path>
                            <path d="M0,10.224 L9.32571429,10.224" id="Line" stroke="#17BEBB" stroke-width="1.728" opacity="0.2" stroke-linecap="round"></path>
                        </g>
                        <text id="Provider-demographic" font-family="OpenSans-Semibold, Open Sans" font-size="11.19744" font-weight="500" fill="#282E2E">
                            <tspan x="91.35648" y="48.72">Provider demographics</tspan>
                        </text>
                        <rect id="Rectangle" fill="#E6E7E8" x="24.48" y="136.8" width="50.4" height="5.76"></rect>
                        <rect id="Rectangle" fill="#E6E7E8" x="91.44" y="136.8" width="131.76" height="5.76"></rect>
                        <rect id="Rectangle" fill="#E6E7E8" x="24.48" y="147.6" width="50.4" height="5.76"></rect>
                        <rect id="Rectangle" fill="#E6E7E8" x="91.44" y="147.6" width="79.2" height="5.76"></rect>
                    </g>
                </g>
            </g>
            <g id="Group-35" transform="translate(790.000000, 269.000000)">
                <circle id="Oval" stroke="#FFFFFF" stroke-width="2.7" fill="#00D779" cx="14.85" cy="14.85" r="14.85"></circle>
                <g id="Icon-color" transform="translate(6.900000, 7.800000)" fill="#FFFFFF" fill-rule="nonzero">
                    <polygon id="Mask" points="6.43277352 6.86616542 12.934877 0.475561397 16.3666543 3.85167785 6.43217737 13.6250251 0.42872886 7.71894793 3.87631158 4.35116735"></polygon>
                </g>
            </g>
            <g id="Group-38" opacity="0.138741629" transform="translate(118.000000, 0.000000)">
                <g id="Group-33" transform="translate(0.000000, 0.900000)">
                    <g id="Mask">
                        <use fill="black" fill-opacity="1" filter="url(#filter-4)" xlink:href="#path-3"></use>
                        <use fill="#FFFFFF" fill-rule="evenodd" xlink:href="#path-3"></use>
                    </g>
                    <g id="Group-35" transform="translate(0.000000, 0.100000)">
                        <circle id="Oval" stroke="#FFFFFF" stroke-width="2.7" fill="#00D779" cx="14.85" cy="14.85" r="14.85"></circle>
                        <g id="Icon-color" transform="translate(6.900000, 7.800000)" fill="#FFFFFF" fill-rule="nonzero">
                            <polygon id="Mask" points="6.43277352 6.86616542 12.934877 0.475561397 16.3666543 3.85167785 6.43217737 13.6250251 0.42872886 7.71894793 3.87631158 4.35116735"></polygon>
                        </g>
                    </g>
                    <g id="Group-24" transform="translate(45.680000, 35.480000)">
                        <path d="M0,5.87612903 L32.3314286,5.87612903 L32.3314286,45.36 L10.296,45.36 C4.60967622,45.36 2.47273066e-15,40.7503238 1.77635684e-15,35.064 L0,5.87612903 Z" id="Rectangle" fill="#0073E9" opacity="0.144159226"></path>
                        <rect id="Rectangle" fill="#0073E9" x="6.30857143" y="0.464516129" width="33.12" height="33.84"></rect>
                        <path d="M49.6650397,33.5148387 C49.6749528,33.6451519 49.68,33.7768253 49.68,33.9096774 C49.68,36.7445016 47.3819209,39.0425806 44.5470968,39.0425806 L11.4414747,39.0425806 C8.60665048,39.0425806 6.30857143,36.7445016 6.30857143,33.9096774 C6.30857143,33.7768253 6.31361862,33.6451519 6.32353172,33.5148387 L49.6650397,33.5148387 Z" id="Combined-Shape" fill="#0055AC"></path>
                        <path d="M49.6655612,33.5148387 C49.6751297,33.6428031 49.68,33.7720771 49.68,33.9024885 L49.68,33.9168664 C49.68,36.7477202 47.3851395,39.0425806 44.5542857,39.0425806 C41.7234319,39.0425806 39.4285714,36.7477202 39.4285714,33.9168664 L39.4285714,33.9024885 C39.4285714,33.7720771 39.4334417,33.6428031 39.4430103,33.5148387 L49.6655612,33.5148387 Z" id="Combined-Shape" fill="#56B4FC"></path>
                        <ellipse id="Oval" stroke="#FFFFFF" stroke-width="1.584" fill="#0055AC" stroke-linecap="square" cx="23.2628571" cy="9.08129032" rx="5.12571429" ry="5.13290323"></ellipse>
                        <circle id="Oval" fill="#FFFFFF" cx="23.2628571" cy="9.08129032" r="1.44"></circle>
                        <path d="M35.4857143,22.754372 L10.4621104,22.754372" id="Line-3" stroke="#FFFFFF" stroke-width="1.52064" stroke-linecap="square"></path>
                        <path d="M35.4857143,18.0163075 L10.4621104,18.0163075" id="Line-3" stroke="#FFFFFF" stroke-width="1.52064" stroke-linecap="square"></path>
                        <path d="M32.3314286,27.4924365 L14.4049675,27.4924365" id="Line-3" stroke="#FFFFFF" stroke-width="1.52064" stroke-linecap="square"></path>
                    </g>
                    <text id="National-certificate" font-family="OpenSans-Semibold, Open Sans" font-size="11.19744" font-weight="500" fill="#282E2E">
                        <tspan x="118.4" y="59.72">National certificates</tspan>
                    </text>
                    <g id="Group-31" transform="translate(40.640000, 93.800000)">
                        <g id="added-to-list-item">
                            <rect id="Rectangle" fill="#F9FAFC" x="0" y="0" width="254.88" height="61.92" rx="1.39968"></rect>
                            <g id="status/complete" transform="translate(225.000000, 20.000000)">
                                <g id="Group-2" fill="#FF0000" fill-opacity="0">
                                    <rect id="Rectangle-7" x="0" y="0" width="21.34512" height="21.34512"></rect>
                                </g>
                                <text id="chevron_right" font-family="MaterialIcons-Regular, Material Icons" font-size="20.64528" font-weight="normal" fill="#CFD5DF">
                                    <tspan x="0.34992" y="21.34992">chevron_right</tspan>
                                </text>
                            </g>
                            <text id="ACLS-#4445554444" font-family="OpenSans-Semibold, Open Sans" font-size="9.79776" font-weight="500" fill="#282E2E">
                                <tspan x="10.8" y="17.92">ACLS #4445554444</tspan>
                            </text>
                        </g>
                        <rect id="Rectangle" fill="#E6E7E8" x="10.8" y="31.68" width="30.24" height="5.76"></rect>
                        <rect id="Rectangle" fill="#E6E7E8" x="45.36" y="31.68" width="63.36" height="5.76"></rect>
                        <rect id="Rectangle" fill="#E6E7E8" x="10.8" y="43.2" width="30.24" height="5.76"></rect>
                        <rect id="Rectangle" fill="#E6E7E8" x="45.36" y="43.2" width="34.56" height="5.76"></rect>
                    </g>
                    <g id="Group-31" transform="translate(40.640000, 165.080000)">
                        <g id="added-to-list-item">
                            <rect id="Rectangle" fill="#F9FAFC" x="0" y="0" width="254.88" height="61.92" rx="1.39968"></rect>
                            <g id="status/complete" transform="translate(225.000000, 20.000000)">
                                <g id="Group-2" fill="#FF0000" fill-opacity="0">
                                    <rect id="Rectangle-7" x="0" y="0" width="21.34512" height="21.34512"></rect>
                                </g>
                                <text id="chevron_right" font-family="MaterialIcons-Regular, Material Icons" font-size="20.64528" font-weight="normal" fill="#CFD5DF">
                                    <tspan x="0.34992" y="21.34992">chevron_right</tspan>
                                </text>
                            </g>
                            <text id="ACLS-#4445554444" font-family="OpenSans-Semibold, Open Sans" font-size="9.79776" font-weight="500" fill="#282E2E">
                                <tspan x="10.8" y="17.92">ACLS #4445554444</tspan>
                            </text>
                        </g>
                        <rect id="Rectangle" fill="#E6E7E8" x="10.8" y="31.68" width="30.24" height="5.76"></rect>
                        <rect id="Rectangle" fill="#E6E7E8" x="45.36" y="31.68" width="63.36" height="5.76"></rect>
                        <rect id="Rectangle" fill="#E6E7E8" x="10.8" y="43.2" width="30.24" height="5.76"></rect>
                        <rect id="Rectangle" fill="#E6E7E8" x="45.36" y="43.2" width="34.56" height="5.76"></rect>
                    </g>
                </g>
            </g>
            <g id="Group-51" transform="translate(271.000000, 106.000000)">
                <g id="Group-23">
                    <g id="Group-18">
                        <g id="Group-16">
                            <g id="Rectangle">
                                <use fill="black" fill-opacity="1" filter="url(#filter-6)" xlink:href="#path-5"></use>
                                <use fill="#2B2B2B" fill-rule="evenodd" xlink:href="#path-5"></use>
                            </g>
                        </g>
                        <g id="Group-15" transform="translate(100.440000, 28.350000)" fill="#DAE1E8">
                            <rect id="Rectangle" x="0" y="0" width="42.25" height="7.29" rx="3.564"></rect>
                            <ellipse id="Oval" cx="49.075" cy="3.645" rx="3.575" ry="3.645"></ellipse>
                        </g>
                    </g>
                    <mask id="mask-8" fill="white">
                        <use xlink:href="#path-7"></use>
                    </mask>
                    <use id="Mask" fill="#F3FBFF" xlink:href="#path-7"></use>
                </g>
                <g id="Group-49" opacity="0.854189918" transform="translate(21.000000, 59.000000)">
                    <g id="Group-50">
                        <g id="Group-34">
                            <g id="Group-22">
                                <g id="Group-10">
                                    <rect id="Mask" fill="#FFFFFF" x="0" y="0.0405504" width="210.760704" height="125.908992" rx="10.64448"></rect>
                                    <path d="M15.3280512,30.5952768 L180.523854,30.5952768" id="Line-9" stroke="#E6E8EC" stroke-width="0.55" stroke-linecap="square"></path>
                                </g>
                                <rect id="Rectangle" stroke="#E9E9E9" stroke-width="0.55" fill="#FFFFFF" x="121.257118" y="94.3722032" width="77.1851168" height="17.5152032" rx="1.6422912"></rect>
                                <text id="MEDICAL-LICENSE" font-family="OpenSans-Bold, Open Sans" font-size="7.1165952" font-weight="bold" fill="#455959">
                                    <tspan x="127.644036" y="106.476646">MEDICAL LICENSE</tspan>
                                </text>
                            </g>
                            <rect id="Rectangle" fill="#E6E7E8" x="15.71328" y="97.32096" width="23.82336" height="4.05504"></rect>
                            <rect id="Rectangle" fill="#E6E7E8" x="47.13984" y="97.32096" width="62.34624" height="4.05504"></rect>
                            <rect id="Rectangle" fill="#E6E7E8" x="15.71328" y="104.92416" width="23.82336" height="4.05504"></rect>
                            <rect id="Rectangle" fill="#E6E7E8" x="47.13984" y="104.92416" width="37.50912" height="4.05504"></rect>
                        </g>
                        <rect id="Rectangle" fill="#FFAA00" x="21" y="12" width="23" height="8" rx="4"></rect>
                        <rect id="Rectangle" fill="#E6E7E8" x="16" y="40" width="134" height="8"></rect>
                        <rect id="Rectangle" fill="#E6E7E8" x="16" y="52" width="38" height="8"></rect>
                    </g>
                    <g id="Group-50" transform="translate(0.000000, 137.000000)">
                        <g id="Group-34">
                            <g id="Group-22">
                                <g id="Group-10">
                                    <rect id="Mask" fill="#FFFFFF" x="0" y="0.0405504" width="210.760704" height="125.908992" rx="10.64448"></rect>
                                    <path d="M15.3280512,30.5952768 L180.523854,30.5952768" id="Line-9" stroke="#E6E8EC" stroke-width="0.55" stroke-linecap="square"></path>
                                </g>
                                <rect id="Rectangle" stroke="#E9E9E9" stroke-width="0.55" fill="#FFFFFF" x="121.257118" y="94.3722032" width="77.1851168" height="17.5152032" rx="1.6422912"></rect>
                                <text id="HEARTCARD" font-family="OpenSans-Bold, Open Sans" font-size="7.1165952" font-weight="bold" fill="#455959">
                                    <tspan x="137.540551" y="106.476646">HEARTCARD</tspan>
                                </text>
                            </g>
                            <rect id="Rectangle" fill="#E6E7E8" x="15.71328" y="97.32096" width="23.82336" height="4.05504"></rect>
                            <rect id="Rectangle" fill="#E6E7E8" x="47.13984" y="97.32096" width="62.34624" height="4.05504"></rect>
                            <rect id="Rectangle" fill="#E6E7E8" x="15.71328" y="104.92416" width="23.82336" height="4.05504"></rect>
                            <rect id="Rectangle" fill="#E6E7E8" x="47.13984" y="104.92416" width="37.50912" height="4.05504"></rect>
                        </g>
                        <rect id="Rectangle" fill="#00D779" x="21" y="12" width="23" height="8" rx="4"></rect>
                        <rect id="Rectangle" fill="#E6E7E8" x="16" y="40" width="134" height="8"></rect>
                        <rect id="Rectangle" fill="#E6E7E8" x="16" y="52" width="38" height="8"></rect>
                    </g>
                    <g id="Group-50" transform="translate(0.000000, 276.000000)">
                        <g id="Group-34">
                            <g id="Group-22">
                                <g id="Group-10">
                                    <rect id="Mask" fill="#FFFFFF" x="0" y="0.0405504" width="210.760704" height="125.908992" rx="10.64448"></rect>
                                    <path d="M15.3280512,30.5952768 L180.523854,30.5952768" id="Line-9" stroke="#E6E8EC" stroke-width="0.55" stroke-linecap="square"></path>
                                </g>
                                <rect id="Rectangle" stroke="#E9E9E9" stroke-width="0.55" fill="#FFFFFF" x="121.257118" y="94.3722032" width="77.1851168" height="17.5152032" rx="1.6422912"></rect>
                                <text id="CERTIFICATION" font-family="OpenSans-Bold, Open Sans" font-size="7.1165952" font-weight="bold" fill="#455959">
                                    <tspan x="132.338626" y="106.476646">CERTIFICATION</tspan>
                                </text>
                            </g>
                            <rect id="Rectangle" fill="#E6E7E8" x="15.71328" y="97.32096" width="23.82336" height="4.05504"></rect>
                            <rect id="Rectangle" fill="#E6E7E8" x="47.13984" y="97.32096" width="62.34624" height="4.05504"></rect>
                            <rect id="Rectangle" fill="#E6E7E8" x="15.71328" y="104.92416" width="23.82336" height="4.05504"></rect>
                            <rect id="Rectangle" fill="#E6E7E8" x="47.13984" y="104.92416" width="37.50912" height="4.05504"></rect>
                        </g>
                        <rect id="Rectangle" fill="#00D779" x="21" y="12" width="23" height="8" rx="4"></rect>
                        <rect id="Rectangle" fill="#E6E7E8" x="16" y="40" width="134" height="8"></rect>
                        <rect id="Rectangle" fill="#E6E7E8" x="16" y="52" width="38" height="8"></rect>
                    </g>
                </g>
            </g>
            <g id="Group-39" transform="translate(438.900000, 20.000000)">
                <g id="Group-34" transform="translate(0.000000, 0.200000)">
                    <g id="Group-22">
                        <g id="Group-10">
                            <g id="Mask">
                                <use fill="black" fill-opacity="1" filter="url(#filter-10)" xlink:href="#path-9"></use>
                                <use fill="#FFFFFF" fill-rule="evenodd" xlink:href="#path-9"></use>
                            </g>
                            <g id="Group-35" transform="translate(280.100000, 0.800000)">
                                <circle id="Oval" stroke="#FFFFFF" stroke-width="2.7" fill="#00D779" cx="14.85" cy="14.85" r="14.85"></circle>
                                <g id="Icon-color" transform="translate(6.900000, 7.800000)" fill="#FFFFFF" fill-rule="nonzero">
                                    <polygon id="Mask" points="6.43277352 6.86616542 12.934877 0.475561397 16.3666543 3.85167785 6.43217737 13.6250251 0.42872886 7.71894793 3.87631158 4.35116735"></polygon>
                                </g>
                            </g>
                            <text id="Current" font-family="OpenSans-Bold, Open Sans" font-size="16.44" font-weight="bold" fill="#00D779">
                                <tspan x="18.6624" y="33.96">Current</tspan>
                            </text>
                            <text id="Registered-Respirato" font-family="OpenSans-Semibold, Open Sans" font-size="13.2192" font-weight="500" fill="#282E2E">
                                <tspan x="18.6624" y="76.2352">Registered Respiratory Therapist</tspan>
                            </text>
                            <text id="RT-334445566" font-family="OpenSans, Open Sans" font-size="10.8864" font-weight="normal" fill="#4B5353">
                                <tspan x="18.6624" y="96.008">RT 334445566</tspan>
                            </text>
                            <path d="M21.7728,51.4592 L256.425929,51.4592" id="Line-9" stroke="#E6E8EC" stroke-width="0.7776" stroke-linecap="square"></path>
                        </g>
                        <rect id="Rectangle" stroke="#E9E9E9" stroke-width="0.7776" fill="#FFFFFF" x="172.2384" y="142.0496" width="109.6416" height="24.8832" rx="2.3328"></rect>
                        <text id="MEDICAL-LICENSE" font-family="OpenSans-Bold, Open Sans" font-size="10.1088" font-weight="bold" fill="#455959">
                            <tspan x="181.312552" y="158.8816">MEDICAL LICENSE</tspan>
                        </text>
                    </g>
                    <rect id="Rectangle" fill="#E6E7E8" x="22.32" y="146.24" width="33.84" height="5.76"></rect>
                    <rect id="Rectangle" fill="#E6E7E8" x="66.96" y="146.24" width="88.56" height="5.76"></rect>
                    <rect id="Rectangle" fill="#E6E7E8" x="22.32" y="157.04" width="33.84" height="5.76"></rect>
                    <rect id="Rectangle" fill="#E6E7E8" x="66.96" y="157.04" width="53.28" height="5.76"></rect>
                </g>
            </g>
            <g id="Group-40" transform="translate(0.000000, 388.000000)">
                <g id="Group-33" transform="translate(0.000000, 0.800000)">
                    <g id="Mask">
                        <use fill="black" fill-opacity="1" filter="url(#filter-12)" xlink:href="#path-11"></use>
                        <use fill="#FFFFFF" fill-rule="evenodd" xlink:href="#path-11"></use>
                    </g>
                    <g id="Group-35" transform="translate(0.000000, 0.200000)">
                        <circle id="Oval" stroke="#FFFFFF" stroke-width="2.7" fill="#00D779" cx="14.85" cy="14.85" r="14.85"></circle>
                        <g id="Icon-color" transform="translate(6.900000, 7.800000)" fill="#FFFFFF" fill-rule="nonzero">
                            <polygon id="Mask" points="6.43277352 6.86616542 12.934877 0.475561397 16.3666543 3.85167785 6.43217737 13.6250251 0.42872886 7.71894793 3.87631158 4.35116735"></polygon>
                        </g>
                    </g>
                    <g id="Group-32" transform="translate(42.840000, 26.440000)">
                        <rect id="Rectangle" fill="#FDB833" opacity="0.144159226" x="0" y="13.787234" width="53.28" height="25.7361702"></rect>
                        <path d="M35.6705439,9.65106383 L30.8647431,9.65106383 L30.8647431,4.85106383 L21.204842,4.85106383 L21.204842,9.65106383 L16.3507417,9.65106383 L16.3507417,4.85106383 L21.1806923,0 L30.8405934,0 L35.6705439,4.85106383 L35.6705439,9.65106383 Z" id="Combined-Shape" fill="#FFD991" fill-rule="nonzero"></path>
                        <path d="M45.2593548,26.699109 L45.2593548,38.592 C45.2593548,41.1369281 43.196283,43.2 40.6513548,43.2 L11.4828387,43.2 C8.93791058,43.2 6.87483871,41.1369281 6.87483871,38.592 L6.87483871,26.9347101 C5.54881009,26.5342243 4.58322581,25.3030743 4.58322581,23.8464 L4.58322581,13.0176 C4.58322581,11.2361503 6.02737612,9.792 7.80882581,9.792 L43.7524645,9.792 C45.5339142,9.792 46.9780645,11.2361503 46.9780645,13.0176 L46.9780645,23.8464 C46.9780645,25.0835396 46.2815941,26.1580098 45.2593548,26.699109 Z" id="Combined-Shape" fill="#FDB833"></path>
                        <path d="M44.6864516,26.6553191 L7.44774194,26.6553191" id="Line-3" stroke="#FFFFFF" stroke-width="1.3824" stroke-linecap="square"></path>
                        <rect id="Rectangle" stroke="#FFFFFF" stroke-width="0.9216" fill="#C4850C" x="19.5715134" y="19.7629277" width="12.8782587" height="12.865634"></rect>
                        <polygon id="+" fill="#FFFFFF" fill-rule="nonzero" points="25.1771035 26.731683 23.2506711 26.731683 23.2506711 25.8709009 25.1771035 25.8709009 25.1771035 23.8978723 26.0483543 23.8978723 26.0483543 25.8709009 27.979627 25.8709009 27.979627 26.731683 26.0483543 26.731683 26.0483543 28.6950399 25.1771035 28.6950399"></polygon>
                    </g>
                    <text id="Employment-history" font-family="OpenSans-Semibold, Open Sans" font-size="11.19744" font-weight="500" fill="#282E2E">
                        <tspan x="113.4" y="55.72">Employment history</tspan>
                    </text>
                    <g id="Group-31" transform="translate(35.640000, 89.800000)">
                        <g id="added-to-list-item">
                            <rect id="Rectangle" fill="#F9FAFC" x="0" y="0" width="254.88" height="61.92" rx="1.39968"></rect>
                            <g id="status/complete" transform="translate(225.000000, 20.000000)">
                                <g id="Group-2" fill="#FF0000" fill-opacity="0">
                                    <rect id="Rectangle-7" x="0" y="0" width="21.34512" height="21.34512"></rect>
                                </g>
                                <text id="chevron_right" font-family="MaterialIcons-Regular, Material Icons" font-size="20.64528" font-weight="normal" fill="#CFD5DF">
                                    <tspan x="0.34992" y="21.34992">chevron_right</tspan>
                                </text>
                            </g>
                            <text id="Title" font-family="OpenSans-Semibold, Open Sans" font-size="9.79776" font-weight="500" fill="#282E2E">
                                <tspan x="10.8" y="17.92">Big Hospital Worldwide</tspan>
                            </text>
                        </g>
                        <rect id="Rectangle" fill="#E6E7E8" x="10.8" y="31.68" width="131.04" height="5.76"></rect>
                        <rect id="Rectangle" fill="#E6E7E8" x="10.8" y="43.2" width="63.36" height="5.76"></rect>
                    </g>
                    <g id="Group-31" transform="translate(35.640000, 159.640000)">
                        <g id="added-to-list-item">
                            <rect id="Rectangle" fill="#F9FAFC" x="0" y="0" width="254.88" height="61.92" rx="1.39968"></rect>
                            <g id="status/complete" transform="translate(225.000000, 20.000000)">
                                <g id="Group-2" fill="#FF0000" fill-opacity="0">
                                    <rect id="Rectangle-7" x="0" y="0" width="21.34512" height="21.34512"></rect>
                                </g>
                                <text id="chevron_right" font-family="MaterialIcons-Regular, Material Icons" font-size="20.64528" font-weight="normal" fill="#CFD5DF">
                                    <tspan x="0.34992" y="21.34992">chevron_right</tspan>
                                </text>
                            </g>
                            <text id="Poudre-Valley-Hospit" font-family="OpenSans-Semibold, Open Sans" font-size="9.79776" font-weight="500" fill="#282E2E">
                                <tspan x="10.8" y="17.92">Poudre Valley Hospital</tspan>
                            </text>
                        </g>
                        <rect id="Rectangle" fill="#E6E7E8" x="10.8" y="31.68" width="131.04" height="5.76"></rect>
                        <rect id="Rectangle" fill="#E6E7E8" x="10.8" y="43.2" width="63.36" height="5.76"></rect>
                    </g>
                </g>
            </g>
        </g>
    </g>
</svg>