<?xml version="1.0" encoding="UTF-8"?>
<svg width="776px" height="602px" viewBox="0 0 776 602" version="1.1" xmlns="http://www.w3.org/2000/svg" xmlns:xlink="http://www.w3.org/1999/xlink">
    <!-- Generator: Sketch 51.3 (57544) - http://www.bohemiancoding.com/sketch -->
    <title>Group 11</title>
    <desc>Created with Sketch.</desc>
    <defs>
        <linearGradient x1="3.01536896%" y1="67.1010072%" x2="96.984631%" y2="32.8989928%" id="linearGradient-1">
            <stop stop-color="#9A7DFF" offset="0%"></stop>
            <stop stop-color="#569BFF" offset="100%"></stop>
        </linearGradient>
        <linearGradient x1="3.01536896%" y1="67.1010072%" x2="96.984631%" y2="32.8989928%" id="linearGradient-2">
            <stop stop-color="#FF7C5A" offset="0%"></stop>
            <stop stop-color="#FFBB5A" offset="100%"></stop>
        </linearGradient>
        <linearGradient x1="50%" y1="0%" x2="50%" y2="100%" id="linearGradient-3">
            <stop stop-color="#FF5071" stop-opacity="0" offset="0%"></stop>
            <stop stop-color="#FF5071" offset="100%"></stop>
        </linearGradient>
    </defs>
    <g id="About-/-pricing" stroke="none" stroke-width="1" fill="none" fill-rule="evenodd">
        <g id="About" transform="translate(-656.000000, -111.000000)">
            <g id="Group-11" transform="translate(656.000000, 110.000000)">
                <g id="Group-10">
                    <g id="Group-2" transform="translate(159.000000, 168.000000)">
                        <g id="Group-8" transform="translate(205.122453, 202.484682) rotate(2.000000) translate(-205.122453, -202.484682) translate(131.122453, 2.984682)">
                            <path d="M8.59806024,22.0024367 L140.122744,22.0024367 C144.386984,22.0024367 147.860402,24.5219258 147.860402,27.6150485 L147.860402,392.389825 C147.860402,395.482948 144.386984,398.002437 140.122744,398.002437 L8.59806024,398.002437 C4.33381973,398.002437 0.860402013,395.482948 0.860402013,392.389825 L0.860402013,27.6150485 C0.860402013,24.5219258 4.33381973,22.0024367 8.59806024,22.0024367" id="Fill-12" fill="#646A79"></path>
                            <path d="M140.122744,0.00243669193 C144.386984,0.00243669193 147.860402,0.317356498 147.860402,0.703976795 L147.845674,44.3543724 C147.845674,44.7409927 144.372256,45.0559125 140.108016,45.0559125 L8.59806024,47 C4.33381973,47 0.860402013,46.6850802 0.860402013,46.2984599 L0.860402013,0.703976795 C0.860402013,0.317356498 4.33381973,0.00243669193 8.59806024,0.00243669193 L140.122744,0.00243669193 Z" id="Fill-12" fill-opacity="0.149399909" fill="#000000"></path>
                        </g>
                        <polygon id="Rectangle" fill="#FF7A93" transform="translate(205.000000, 411.000000) rotate(3.000000) translate(-205.000000, -411.000000) " points="1 397 409 397 390.198157 425 19.8018433 425"></polygon>
                    </g>
                    <path d="M388.283364,96.6353232 L488,205 L240,205 L339.716636,96.6353232 C352.057677,83.2239919 372.934099,82.3563496 386.34543,94.69739 C387.017965,95.3162532 387.6645,95.9627884 388.283364,96.6353232 Z" id="Triangle" fill="#FF5071" transform="translate(364.000000, 145.500000) rotate(-3.000000) translate(-364.000000, -145.500000) "></path>
                    <g id="Group-5" transform="translate(448.000000, 414.000000)">
                        <g id="Group-3" transform="translate(147.500000, 81.500000) scale(-1, 1) translate(-147.500000, -81.500000) ">
                            <path d="M220.01501,28.2594072 C220.129738,24.3073208 220.902139,20.6611117 222.332213,17.3238688 C223.889031,13.6915728 225.964119,10.5912195 228.553458,8.01883936 C231.148824,5.44447435 234.186125,3.46358284 237.667371,2.07814971 C241.148616,0.692716569 244.888997,0 248.888512,0 C252.888027,0 256.632425,0.692716569 260.111661,2.07814971 C263.592907,3.46358284 266.666367,5.44447435 269.334049,8.01883936 C271.999723,10.5912195 274.110969,13.6915728 275.667787,17.3238688 C276.565878,19.4196682 277.20459,21.6373201 277.583925,23.9760596 C278.113594,24.8903294 278.491491,25.9281734 278.666115,27.0525685 C283.240715,56.5654344 281.323069,82.5324235 272.903276,104.94891 C263.586941,129.744999 245.745919,146.957669 219.384142,156.552571 C193.022365,166.147473 168.39074,164.22899 145.464208,150.818586 C128.098457,140.647898 112.955664,125.80091 100.036608,106.279762 L8.38951429,137.029672 L0.344482681,122.804985 L220.01501,28.2594072 Z" id="Combined-Shape" fill="url(#linearGradient-1)"></path>
                            <path d="M259.486545,22 C259.003844,22 258.552419,22.0821867 258.132269,22.2465601 C257.712119,22.4109336 257.345548,22.6459546 257.032314,22.9513877 C256.719807,23.2565854 256.469366,23.6244239 256.281474,24.0553743 C256.093825,24.4858537 256,24.9596636 256,25.4763331 L256,25.5234315 C256,26.0403364 256.093825,26.5136754 256.281474,26.9446257 C256.469366,27.3751051 256.719807,27.7431791 257.032314,28.0486123 C257.345548,28.3540454 257.712119,28.588831 258.132269,28.7534399 C258.552419,28.9175778 259.003844,29 259.486545,29 C259.969245,29 260.421155,28.9175778 260.841063,28.7534399 C261.261213,28.588831 261.632148,28.3540454 261.954109,28.0486123 C262.275829,27.7431791 262.530634,27.3791085 262.718526,26.9561648 C262.906175,26.5334567 263,26.0556434 263,25.5234315 L263,25.4763331 C263,24.9596636 262.906175,24.4858537 262.718526,24.0553743 C262.530634,23.6244239 262.275829,23.2565854 261.954109,22.9513877 C261.632148,22.6459546 261.261213,22.4109336 260.841063,22.2465601 C260.421155,22.0821867 259.969245,22 259.486545,22" id="Fill-8" fill="#000000"></path>
                            <path d="M258.494233,23 C258.287362,23 258.093894,23.0352229 257.91383,23.1056686 C257.733765,23.1761144 257.576663,23.2768377 257.44242,23.4077376 C257.308489,23.5385366 257.201157,23.6961817 257.120632,23.8808747 C257.040211,24.0653659 257,24.2684272 257,24.489857 L257,24.5100421 C257,24.7315728 257.040211,24.9344323 257.120632,25.1191253 C257.201157,25.3036165 257.308489,25.4613625 257.44242,25.5922624 C257.576663,25.7231623 257.733765,25.8237847 257.91383,25.8943314 C258.093894,25.9646762 258.287362,26 258.494233,26 C258.701105,26 258.894781,25.9646762 259.074741,25.8943314 C259.254806,25.8237847 259.413778,25.7231623 259.551761,25.5922624 C259.689641,25.4613625 259.798843,25.3053322 259.879368,25.1240706 C259.959789,24.94291 260,24.7381329 260,24.5100421 L260,24.489857 C260,24.2684272 259.959789,24.0653659 259.879368,23.8808747 C259.798843,23.6961817 259.689641,23.5385366 259.551761,23.4077376 C259.413778,23.2768377 259.254806,23.1761144 259.074741,23.1056686 C258.894781,23.0352229 258.701105,23 258.494233,23" id="Fill-8" fill="#FFFFFF"></path>
                            <polygon id="Path-2" fill="#EC6741" points="278.426446 29 295 33.9252078 272 43"></polygon>
                        </g>
                    </g>
                    <g id="Group-5" transform="translate(130.500000, 493.000000) scale(-1, 1) translate(-130.500000, -493.000000) translate(0.000000, 421.000000)">
                        <g id="Group-3" transform="translate(130.500000, 72.000000) scale(-1, 1) translate(-130.500000, -72.000000) ">
                            <path d="M194.659962,24.8795591 C194.770096,21.4211599 195.452604,18.2285935 196.707484,15.3045221 C198.084872,12.0956226 199.920797,9.35666018 202.211704,7.08412802 C204.507943,4.80984237 207.195182,3.05985233 210.275199,1.8359114 C213.355217,0.611970465 216.664502,0 220.203056,0 C223.74161,0 227.05445,0.611970465 230.13269,1.8359114 C233.212707,3.05985233 235.931938,4.80984237 238.292159,7.08412802 C240.650602,9.35666018 242.518518,12.0956226 243.895906,15.3045221 C244.719262,17.2230732 245.296213,19.2572108 245.626759,21.4061829 C246.012912,22.1434558 246.290144,22.9631704 246.426988,23.8426731 C250.481481,49.9514593 248.798005,72.9208556 241.367809,92.7467659 C233.14644,114.677277 217.38956,129.895964 194.100629,138.372441 C170.811697,146.848919 149.04666,145.141472 128.783385,133.269075 C113.441432,124.268669 100.060025,111.136089 88.6398531,93.8732247 L7.56762511,121.071612 L0.453135141,108.485173 L194.659962,24.8795591 Z" id="Combined-Shape" fill="url(#linearGradient-2)"></path>
                            <path d="M229.579621,19.4355828 C229.152554,19.4355828 228.753157,19.5081895 228.381431,19.6534028 C228.009705,19.7986161 227.685383,20.0062421 227.408251,20.2760726 C227.131762,20.545695 226.910185,20.8706567 226.743948,21.2513736 C226.577926,21.6316744 226.494915,22.0502549 226.494915,22.5066991 L226.494915,22.5483075 C226.494915,23.0049598 226.577926,23.4231242 226.743948,23.8038411 C226.910185,24.184142 227.131762,24.5093116 227.408251,24.7791421 C227.685383,25.0489726 228.009705,25.2563905 228.381431,25.4018119 C228.753157,25.5468172 229.152554,25.6196319 229.579621,25.6196319 C230.006688,25.6196319 230.406513,25.5468172 230.778025,25.4018119 C231.149751,25.2563905 231.477934,25.0489726 231.762788,24.7791421 C232.047428,24.5093116 232.272866,24.1876787 232.439103,23.8140352 C232.605125,23.4405998 232.688136,23.0184825 232.688136,22.5483075 L232.688136,22.5066991 C232.688136,22.0502549 232.605125,21.6316744 232.439103,21.2513736 C232.272866,20.8706567 232.047428,20.545695 231.762788,20.2760726 C231.477934,20.0062421 231.149751,19.7986161 230.778025,19.6534028 C230.406513,19.5081895 230.006688,19.4355828 229.579621,19.4355828" id="Fill-8" fill="#000000"></path>
                            <path d="M228.701678,20.3190184 C228.518649,20.3190184 228.347479,20.3501355 228.188168,20.4123698 C228.028857,20.4746041 227.889861,20.5635867 227.77109,20.6792283 C227.652595,20.7947808 227.557634,20.9340501 227.486389,21.0972144 C227.415237,21.2602005 227.379661,21.4395922 227.379661,21.6352111 L227.379661,21.6530433 C227.379661,21.8487514 227.415237,22.0279647 227.486389,22.1911291 C227.557634,22.3541152 227.652595,22.4934736 227.77109,22.6091153 C227.889861,22.7247569 228.028857,22.8136503 228.188168,22.8759737 C228.347479,22.9381189 228.518649,22.9693252 228.701678,22.9693252 C228.884706,22.9693252 229.05606,22.9381189 229.215279,22.8759737 C229.374591,22.8136503 229.515241,22.7247569 229.637321,22.6091153 C229.759309,22.4934736 229.855926,22.3556309 229.92717,22.195498 C229.998322,22.0354542 230.033898,21.8545468 230.033898,21.6530433 L230.033898,21.6352111 C230.033898,21.4395922 229.998322,21.2602005 229.92717,21.0972144 C229.855926,20.9340501 229.759309,20.7947808 229.637321,20.6792283 C229.515241,20.5635867 229.374591,20.4746041 229.215279,20.4123698 C229.05606,20.3501355 228.884706,20.3190184 228.701678,20.3190184" id="Fill-8" fill="#FFFFFF"></path>
                            <polygon id="Path-2" fill="#EC6741" points="246.336618 25.6196319 261 29.9707357 240.650847 37.9877301"></polygon>
                        </g>
                    </g>
                    <path d="M619.388741,133.14437 C622.58239,127.206827 626.249358,121.80952 630.389918,116.952721 C642.975422,102.193061 659.51645,94.8018818 680.001726,94.8018818 C700.487001,94.8018818 716.909618,102.306553 729.292129,117.307384 C732.965345,121.762346 736.225188,126.626585 739.071658,131.900003 C743.732726,132.079866 748.124291,132.986093 752.236952,134.618682 C756.861473,136.453404 760.944288,139.076689 764.488064,142.485907 C768.029172,145.892497 770.833772,149.99828 772.901864,154.808511 C774.967288,159.613485 776,164.902111 776,170.669131 L776,171.194839 C776,177.135344 774.967288,182.468655 772.901864,187.186887 C770.833772,191.907748 768.029172,195.971473 764.488064,199.380692 C760.944288,202.78991 756.861473,205.410566 752.236952,207.247917 C747.615099,209.08001 742.641003,210 737.328007,210 C732.015011,210 727.046252,209.08001 722.421731,207.247917 C717.79721,205.410566 713.762428,202.78991 710.314718,199.380692 C708.854153,197.933071 707.516758,196.359386 706.302943,194.659836 C703.711226,196.352712 700.839928,197.926262 697.689049,199.380692 C690.297744,202.78991 681.78216,205.410566 672.136729,207.247917 C662.496865,209.08001 652.122322,210 641.040931,210 C629.959539,210 619.596128,209.08001 609.950698,207.247917 C600.305268,205.410566 591.889866,202.78991 584.698928,199.380692 C577.524687,195.971473 571.775276,191.863063 567.461826,187.058088 C563.153942,182.247857 561,176.964488 561,171.194839 L561,170.669131 C561,164.902111 563.153942,159.613485 567.461826,154.808511 C571.775276,149.99828 577.524687,145.892497 584.698928,142.485907 C591.889866,139.076689 600.305268,136.453404 609.950698,134.618682 C613.023828,134.034121 616.169843,133.542684 619.388741,133.14437 Z" id="Combined-Shape" fill="#FFFFFF"></path>
                    <rect id="Rectangle-3" fill="url(#linearGradient-3)" transform="translate(364.000000, 46.000000) rotate(1.000000) translate(-364.000000, -46.000000) " x="356" y="1" width="16" height="90"></rect>
                </g>
                <g id="Group-9" transform="translate(362.965247, 473.982243) rotate(1.000000) translate(-362.965247, -473.982243) translate(297.965247, 388.982243)" fill="#FFFFFF">
                    <path d="M62.9654002,148 C61.7241714,148 60.5633637,148.211337 59.4829772,148.634012 C58.4025907,149.056686 57.4599799,149.661026 56.6545215,150.446426 C55.8509334,151.23122 55.2069407,152.17709 54.7237904,153.285248 C54.2412635,154.392195 54,155.610563 54,156.939142 L54,157.060252 C54,158.389437 54.2412635,159.606594 54.7237904,160.714752 C55.2069407,161.821699 55.8509334,162.768175 56.6545215,163.553574 C57.4599799,164.338974 58.4025907,164.942708 59.4829772,165.365988 C60.5633637,165.788057 61.7241714,166 62.9654002,166 C64.206629,166 65.3686835,165.788057 66.4484466,165.365988 C67.5288332,164.942708 68.4826655,164.338974 69.310567,163.553574 C70.137845,162.768175 70.7930593,161.831993 71.2762096,160.744424 C71.7587365,159.65746 72,158.428797 72,157.060252 L72,156.939142 C72,155.610563 71.7587365,154.392195 71.2762096,153.285248 C70.7930593,152.17709 70.137845,151.23122 69.310567,150.446426 C68.4826655,149.661026 67.5288332,149.056686 66.4484466,148.634012 C65.3686835,148.211337 64.206629,148 62.9654002,148" id="Fill-8" opacity="0.27578125"></path>
                    <path d="M50.4557891,117 C48.8697745,117 47.3865203,117.270042 46.0060264,117.810126 C44.6255325,118.35021 43.4210854,119.122422 42.3918886,120.125988 C41.3650816,121.12878 40.5422021,122.337393 39.9248433,123.753373 C39.3082811,125.167805 39,126.724609 39,128.422237 L39,128.576989 C39,130.275391 39.3082811,131.830648 39.9248433,133.246627 C40.5422021,134.66106 41.3650816,135.870446 42.3918886,136.874012 C43.4210854,137.877578 44.6255325,138.649016 46.0060264,139.189874 C47.3865203,139.729184 48.8697745,140 50.4557891,140 C52.0418038,140 53.5266512,139.729184 54.9063485,139.189874 C56.2868424,138.649016 57.5056281,137.877578 58.5635022,136.874012 C59.6205798,135.870446 60.4577979,134.674214 61.0751567,133.284542 C61.6917189,131.895643 62,130.325685 62,128.576989 L62,128.422237 C62,126.724609 61.6917189,125.167805 61.0751567,123.753373 C60.4577979,122.337393 59.6205798,121.12878 58.5635022,120.125988 C57.5056281,119.122422 56.2868424,118.35021 54.9063485,117.810126 C53.5266512,117.270042 52.0418038,117 50.4557891,117" id="Fill-8" opacity="0.162220982"></path>
                    <path d="M28.4519447,53 C26.7280158,53 25.1157829,53.293524 23.6152461,53.8805719 C22.1147092,54.4676198 20.8055277,55.3069807 19.6868355,56.3978133 C18.5707408,57.4878049 17.6763066,58.8015139 17.0052644,60.3406224 C16.3350881,61.8780488 16,63.5702271 16,65.4154752 L16,65.5836838 C16,67.4297729 16.3350881,69.1202691 17.0052644,70.6593776 C17.6763066,72.196804 18.5707408,73.5113541 19.6868355,74.6021867 C20.8055277,75.6930193 22.1147092,76.5315391 23.6152461,77.1194281 C25.1157829,77.705635 26.7280158,78 28.4519447,78 C30.1758737,78 31.7898383,77.705635 33.2895092,77.1194281 C34.7900461,76.5315391 36.1148131,75.6930193 37.2646763,74.6021867 C38.4136737,73.5113541 39.3236934,72.2111018 39.9947356,70.7005887 C40.6649119,69.1909167 41,67.4844407 41,65.5836838 L41,65.4154752 C41,63.5702271 40.6649119,61.8780488 39.9947356,60.3406224 C39.3236934,58.8015139 38.4136737,57.4878049 37.2646763,56.3978133 C36.1148131,55.3069807 34.7900461,54.4676198 33.2895092,53.8805719 C31.7898383,53.293524 30.1758737,53 28.4519447,53" id="Fill-8" opacity="0.162220982"></path>
                    <path d="M77.463478,25 C76.153292,25 74.927995,25.2230782 73.787587,25.6692347 C72.647179,26.1153911 71.652201,26.7533053 70.8019949,27.5823381 C69.953763,28.4107317 69.273993,29.4091505 68.764001,30.578873 C68.254667,31.7473171 68,33.0333726 68,34.4357611 L68,34.5635997 C68,35.9666274 68.254667,37.2514045 68.764001,38.421127 C69.273993,39.5895711 69.953763,40.5886291 70.8019949,41.4176619 C71.652201,42.2466947 72.647179,42.8839697 73.787587,43.3307653 C74.927995,43.7762826 76.153292,44 77.463478,44 C78.773664,44 80.0002771,43.7762826 81.140027,43.3307653 C82.280435,42.8839697 83.287258,42.2466947 84.161154,41.4176619 C85.034392,40.5886291 85.726007,39.6004373 86.235999,38.4524474 C86.745333,37.3050967 87,36.0081749 87,34.5635997 L87,34.4357611 C87,33.0333726 86.745333,31.7473171 86.235999,30.578873 C85.726007,29.4091505 85.034392,28.4107317 84.161154,27.5823381 C83.287258,26.7533053 82.280435,26.1153911 81.140027,25.6692347 C80.0002771,25.2230782 78.773664,25 77.463478,25" id="Fill-8" opacity="0.119921875"></path>
                    <path d="M120.428878,11.0352094 C119.118692,11.0352094 117.893395,11.2582876 116.752987,11.7044441 C115.612579,12.1506005 114.617601,12.7885147 113.767395,13.6175475 C112.919163,14.4459411 112.239393,15.44436 111.729401,16.6140824 C111.220067,17.7825265 110.9654,19.068582 110.9654,20.4709706 L110.9654,20.5988091 C110.9654,22.0018368 111.220067,23.286614 111.729401,24.4563364 C112.239393,25.6247805 112.919163,26.6238385 113.767395,27.4528713 C114.617601,28.2819041 115.612579,28.9191791 116.752987,29.3659748 C117.893395,29.811492 119.118692,30.0352094 120.428878,30.0352094 C121.739064,30.0352094 122.965677,29.811492 124.105427,29.3659748 C125.245835,28.9191791 126.252658,28.2819041 127.126554,27.4528713 C127.999792,26.6238385 128.691407,25.6356468 129.201399,24.4876569 C129.710733,23.3403061 129.9654,22.0433844 129.9654,20.5988091 L129.9654,20.4709706 C129.9654,19.068582 129.710733,17.7825265 129.201399,16.6140824 C128.691407,15.44436 127.999792,14.4459411 127.126554,13.6175475 C126.252658,12.7885147 125.245835,12.1506005 124.105427,11.7044441 C122.965677,11.2582876 121.739064,11.0352094 120.428878,11.0352094" id="Fill-8" opacity="0.162220982"></path>
                    <path d="M21.4519447,141 C19.7280158,141 18.1157829,141.293524 16.6152461,141.880572 C15.1147092,142.46762 13.8055277,143.306981 12.6868355,144.397813 C11.5707408,145.487805 10.6763066,146.801514 10.0052644,148.340622 C9.33508814,149.878049 9,151.570227 9,153.415475 L9,153.583684 C9,155.429773 9.33508814,157.120269 10.0052644,158.659378 C10.6763066,160.196804 11.5707408,161.511354 12.6868355,162.602187 C13.8055277,163.693019 15.1147092,164.531539 16.6152461,165.119428 C18.1157829,165.705635 19.7280158,166 21.4519447,166 C23.1758737,166 24.7898383,165.705635 26.2895092,165.119428 C27.7900461,164.531539 29.1148131,163.693019 30.2646763,162.602187 C31.4136737,161.511354 32.3236934,160.211102 32.9947356,158.700589 C33.6649119,157.190917 34,155.484441 34,153.583684 L34,153.415475 C34,151.570227 33.6649119,149.878049 32.9947356,148.340622 C32.3236934,146.801514 31.4136737,145.487805 30.2646763,144.397813 C29.1148131,143.306981 27.7900461,142.46762 26.2895092,141.880572 C24.7898383,141.293524 23.1758737,141 21.4519447,141" id="Fill-8" opacity="0.162220982"></path>
                    <path d="M102.451945,79 C100.728016,79 99.1157829,79.293524 97.6152461,79.8805719 C96.1147092,80.4676198 94.8055277,81.3069807 93.6868355,82.3978133 C92.5707408,83.4878049 91.6763066,84.8015139 91.0052644,86.3406224 C90.3350881,87.8780488 90,89.5702271 90,91.4154752 L90,91.5836838 C90,93.4297729 90.3350881,95.1202691 91.0052644,96.6593776 C91.6763066,98.196804 92.5707408,99.5113541 93.6868355,100.602187 C94.8055277,101.693019 96.1147092,102.531539 97.6152461,103.119428 C99.1157829,103.705635 100.728016,104 102.451945,104 C104.175874,104 105.789838,103.705635 107.289509,103.119428 C108.790046,102.531539 110.114813,101.693019 111.264676,100.602187 C112.413674,99.5113541 113.323693,98.2111018 113.994736,96.7005887 C114.664912,95.1909167 115,93.4844407 115,91.5836838 L115,91.4154752 C115,89.5702271 114.664912,87.8780488 113.994736,86.3406224 C113.323693,84.8015139 112.413674,83.4878049 111.264676,82.3978133 C110.114813,81.3069807 108.790046,80.4676198 107.289509,79.8805719 C105.789838,79.293524 104.175874,79 102.451945,79" id="Fill-8" opacity="0.181696429"></path>
                    <path d="M122,116.807744 C122,115.66707 120.823109,114.823746 119.559341,115.031593 C112.02522,116.272711 105.843766,118.866329 101.012959,122.812448 C95.6709862,127.180228 93,132.973106 93,140.199038 C93,147.424969 95.6315881,153.259616 100.886683,157.698999 C105.636674,161.711748 111.841363,164.463489 119.495698,165.956212 C120.77664,166.205828 122,165.357532 122,164.192989 L122,116.807744 Z" id="Fill-6" opacity="0.217912946" transform="translate(107.500000, 140.500000) scale(-1, 1) rotate(-19.000000) translate(-107.500000, -140.500000) "></path>
                    <path d="M31,85.8077444 C31,84.6670696 29.8231093,83.8237459 28.5593409,84.0315933 C21.0252203,85.2727112 14.8437663,87.8663294 10.0129585,91.8124479 C4.67098617,96.1802282 2,101.973106 2,109.199038 C2,116.424969 4.63158811,122.259616 9.88668269,126.698999 C14.636674,130.711748 20.8413627,133.463489 28.4956979,134.956212 C29.7766398,135.205828 31,134.357532 31,133.192989 L31,85.8077444 Z" id="Fill-6" opacity="0.217912946" transform="translate(16.500000, 109.500000) scale(-1, 1) rotate(-3.000000) translate(-16.500000, -109.500000) "></path>
                    <path d="M79,60.8077444 C79,59.6670696 77.8231093,58.8237459 76.5593409,59.0315933 C69.0252203,60.2727112 62.8437663,62.8663294 58.0129585,66.8124479 C52.6709862,71.1802282 50,76.9731062 50,84.1990378 C50,91.4249695 52.6315881,97.2596159 57.8866827,101.698999 C62.636674,105.711748 68.8413627,108.463489 76.4956979,109.956212 C77.7766398,110.205828 79,109.357532 79,108.192989 L79,60.8077444 Z" id="Fill-6" opacity="0.236104911" transform="translate(64.500000, 84.500000) rotate(-1.000000) translate(-64.500000, -84.500000) "></path>
                    <path d="M61,1.80774444 C61,0.667069569 59.8231093,-0.176254133 58.5593409,0.0315933363 C51.0252203,1.27271124 44.8437663,3.86632942 40.0129585,7.81244787 C34.6709862,12.1802282 32,17.9731062 32,25.1990378 C32,32.4249695 34.6315881,38.2596159 39.8866827,42.6989991 C44.636674,46.7117481 50.8413627,49.4634895 58.4956979,50.9562122 C59.7766398,51.2058281 61,50.3575319 61,49.1929894 L61,1.80774444 Z" id="Fill-6" opacity="0.181696429"></path>
                    <path d="M115,28.3469468 C115,27.4970322 114.107186,26.8686734 113.148466,27.0235401 C107.432926,27.9482946 102.743547,29.8807945 99.0787961,32.8210396 C95.0262654,36.0754641 93,40.3917262 93,45.7757537 C93,51.1597812 94.9963772,55.5071648 98.9830007,58.8149405 C102.586442,61.8048319 107.293448,63.855149 113.100185,64.9673738 C114.071934,65.1533621 115,64.5212983 115,63.6536 L115,28.3469468 Z" id="Fill-6" opacity="0.181696429" transform="translate(104.000000, 46.000000) scale(-1, 1) translate(-104.000000, -46.000000) "></path>
                    <path d="M24,7.34694683 C24,6.49703223 23.1071864,5.86867339 22.1484655,6.02354013 C16.4329258,6.94829465 11.7435469,8.88079447 8.07879611,11.8210396 C4.02626537,15.0754641 2,19.3917262 2,24.7757537 C2,30.1597812 3.99637719,34.5071648 7.98300066,37.8149405 C11.5864423,40.8048319 16.2934476,42.855149 22.1001846,43.9673738 C23.0719337,44.1533621 24,43.5212983 24,42.6536 L24,7.34694683 Z" id="Fill-6" opacity="0.217912946" transform="translate(13.000000, 25.000000) scale(-1, 1) translate(-13.000000, -25.000000) "></path>
                </g>
            </g>
        </g>
    </g>
</svg>