<?xml version="1.0" encoding="UTF-8"?>
<svg width="103px" height="59px" viewBox="0 0 103 59" version="1.1" xmlns="http://www.w3.org/2000/svg" xmlns:xlink="http://www.w3.org/1999/xlink">
    <!-- Generator: Sketch 51.3 (57544) - http://www.bohemiancoding.com/sketch -->
    <title>Group 674</title>
    <desc>Created with Sketch.</desc>
    <defs></defs>
    <g id="About-/-pricing" stroke="none" stroke-width="1" fill="none" fill-rule="evenodd" stroke-linecap="round" stroke-linejoin="round">
        <g id="About" transform="translate(-669.000000, -2238.000000)" stroke="#FFFFFF" stroke-width="3">
            <g id="Group-674" transform="translate(671.000000, 2240.000000)">
                <path d="M68,40 L59,32" id="Stroke-380"></path>
                <path d="M60,45 L52,39" id="Stroke-381"></path>
                <path d="M18,29 C20.7202696,36.7556833 42.6005084,53.5437413 42.6005084,53.5437413 C47.8792309,57.9774214 52.6462627,51.2118253 48.3078264,47.5641355 L44.9796509,44.3593795" id="Stroke-382"></path>
                <path d="M45.6819152,44.7056669 L54.7394646,52.6073715 C59.953356,57.0353162 65.0315374,49.8107749 60.7282164,46.1479369 L63.0133981,48.0914836 C67.5706281,51.9609884 73.5637577,44.8199932 69.0196609,40.9592828 L69.374258,41.25829 C73.9314881,45.1321919 79.9246177,37.9911967 75.3805209,34.1304863 L52.9577233,15.7679273 C52.9577233,15.7679273 50.19099,16.8320411 48.2253836,17.0123249 C47.3191909,17.095871 46.518064,17.6147364 45.9620907,18.3402685 C43.9702178,20.9433899 39.3779658,26.0704837 35.7838392,23.4409794 C31.0646327,19.9848081 35.7838392,5.26749847 49.052777,3.16565383 C49.052777,3.16565383 55.0240178,1.45515684 69.6500558,9.02707412 L75.0697011,7.37374027" id="Stroke-383"></path>
                <polygon id="Stroke-384" points="0 32.5492628 15.7579441 37 25 4.4550667 9.24205591 0"></polygon>
                <polygon id="Stroke-385" points="99 33.548742 83.2420559 38 74 5.45125805 89.7579441 1"></polygon>
                <path d="M24,6.612 C24,6.612 24.7431694,5.336 41,5" id="Stroke-386"></path>
                <path d="M76,35.3 C76,35.3 79.9340206,36.292 82,34" id="Stroke-387"></path>
            </g>
        </g>
    </g>
</svg>