<?xml version="1.0" encoding="UTF-8"?>
<svg width="1440px" height="511px" viewBox="0 0 1440 511" version="1.1" xmlns="http://www.w3.org/2000/svg" xmlns:xlink="http://www.w3.org/1999/xlink">
    <!-- Generator: Sketch 51.3 (57544) - http://www.bohemiancoding.com/sketch -->
    <title>bg-tools-accent-primary</title>
    <desc>Created with Sketch.</desc>
    <defs>
        <path d="M1440,190.608869 C1383.05582,246.253206 1313.90549,296.423267 1232.54902,341.122636 C1026.83514,454.040879 754.001939,510.5 413.674728,510.5 C262.919877,510.5 125.022873,499.584852 -1.42108547e-14,477.769404 L0,0 L1440,0 L1440,190.608869 Z" id="path-1"></path>
    </defs>
    <g id="Home" stroke="none" stroke-width="1" fill="none" fill-rule="evenodd">
        <g id="Home---1">
            <g id="bg-tools-accent-primary" transform="translate(-12.000000, 0.000000)">
                <path d="M1452,-2.84217094e-14 L1452,388.521815 C1294.59329,418.173939 1112.17984,433 904.674728,433 C564.347517,433 289.547111,393.707667 80.4608645,315.243669 C52.3243269,304.685015 25.5041417,293.644952 -1.0658141e-14,282.123729 L0,-1.13686838e-13 L1452,-2.82393802e-14 Z" id="Combined-Shape" fill="#40CC79" opacity="0.1359375"></path>
                <path d="M1452,190.608869 C1395.05582,246.253206 1325.90549,296.423267 1244.54902,341.122636 C1038.83514,454.040879 766.001939,510.5 425.674728,510.5 C274.919877,510.5 137.022873,499.584852 12,477.769404 L12,0 L1452,0 L1452,190.608869 Z" id="tool-bg-2" fill="#40CC79"></path>
                <g id="tool-bg-1" transform="translate(12.000000, 0.000000)">
                    <mask id="mask-2" fill="white">
                        <use xlink:href="#path-1"></use>
                    </mask>
                    <use id="Mask" fill-opacity="0" fill="#9579F8" xlink:href="#path-1"></use>
                    <g mask="url(#mask-2)" id="Group-23" opacity="0.063549">
                        <g transform="translate(-885.000000, -976.000000)">
                            <g>
                                <g id="Group-22" transform="translate(776.000000, 0.000000)">
                                    <g id="Group-16" transform="translate(673.823500, 657.274482) rotate(140.000000) translate(-673.823500, -657.274482) translate(137.323500, 249.774482)">
                                        <g id="Group-15" fill="#FFFFFF">
                                            <g id="Group-14">
                                                <g id="Group-13">
                                                    <g id="Group" transform="translate(635.427450, 92.865091) rotate(90.000000) translate(-635.427450, -92.865091) translate(543.427450, -30.134909)">
                                                        <path d="M0,136.137948 C0,139.294728 3.21394706,141.628599 6.66514685,141.053388 C27.2371668,137.618635 44.1207341,130.440882 57.3130902,119.520129 C71.8986164,107.432441 79.1955177,91.4008415 79.1955177,71.4033135 C79.1955177,51.4057856 72.0089666,35.2585937 57.6579343,22.9727467 C44.6835197,11.8675959 27.7420185,4.25224227 6.83894828,0.121181248 C3.33809093,-0.569622428 0,1.77800919 0,5.00084227 L0,136.137948 Z" id="Fill-1"></path>
                                                        <path d="M39.7486127,239.32574 C45.2095213,239.32574 50.3166091,238.367488 55.072619,236.450983 C59.8231432,234.534477 63.9702521,231.794259 67.5139457,228.233074 C71.0494109,224.674635 73.8854629,220.385836 76.0083877,215.361188 C78.1340553,210.342031 79.1955177,204.817664 79.1955177,198.793577 L79.1955177,198.244435 C79.1955177,192.217603 78.1340553,186.698727 76.0083877,181.674079 C73.8854629,176.654922 71.0494109,172.363378 67.5139457,168.802193 C63.9702521,165.241007 59.8231432,162.503535 55.072619,160.584284 C50.3166091,158.670525 45.2095213,157.709526 39.7486127,157.709526 C34.287704,157.709526 29.1778734,158.670525 24.4273492,160.584284 C19.6713394,162.503535 15.4748601,165.241007 11.8324258,168.802193 C8.19273434,172.363378 5.3100548,176.608245 3.1843872,181.539539 C1.0614624,186.468087 0,192.039132 0,198.244435 L0,198.793577 C0,204.817664 1.0614624,210.342031 3.1843872,215.361188 C5.3100548,220.385836 8.19273434,224.674635 11.8324258,228.233074 C15.4748601,231.794259 19.6713394,234.534477 24.4273492,236.450983 C29.1778734,238.367488 34.287704,239.32574 39.7486127,239.32574" id="Fill-4"></path>
                                                        <path d="M143.811714,5.5229017 C138.350617,5.5229017 133.243352,6.48115431 128.48992,8.39765952 C123.736489,10.3141647 119.589236,13.0543828 116.04542,16.615568 C112.509832,20.1740074 109.676425,24.4628056 107.550684,29.487454 C105.427685,34.5066109 104.366186,40.0309783 104.366186,46.0550649 L104.366186,46.6042068 C104.366186,52.6310391 105.427685,58.1499151 107.550684,63.1745635 C109.676425,68.1937204 112.509832,72.4852643 116.04542,76.0464495 C119.589236,79.6076347 123.736489,82.345107 128.48992,84.2643579 C133.243352,86.1781174 138.350617,87.1391157 143.811714,87.1391157 C149.272812,87.1391157 154.385563,86.1781174 159.136251,84.2643579 C163.889683,82.345107 168.086308,79.6076347 171.728868,76.0464495 C175.368686,72.4852643 178.251465,68.2403975 180.377206,63.3091032 C182.500205,58.3805547 183.561704,52.8095102 183.561704,46.6042068 L183.561704,46.0550649 C183.561704,40.0309783 182.500205,34.5066109 180.377206,29.487454 C178.251465,24.4628056 175.368686,20.1740074 171.728868,16.615568 C168.086308,13.0543828 163.889683,10.3141647 159.136251,8.39765952 C154.385563,6.48115431 149.272812,5.5229017 143.811714,5.5229017" id="Fill-8"></path>
                                                    </g>
                                                    <g id="Group" transform="translate(891.431565, 92.865091) rotate(90.000000) translate(-891.431565, -92.865091) translate(799.431565, -30.134909)">
                                                        <path d="M0,136.137948 C0,139.294728 3.21394706,141.628599 6.66514685,141.053388 C27.2371668,137.618635 44.1207341,130.440882 57.3130902,119.520129 C71.8986164,107.432441 79.1955177,91.4008415 79.1955177,71.4033135 C79.1955177,51.4057856 72.0089666,35.2585937 57.6579343,22.9727467 C44.6835197,11.8675959 27.7420185,4.25224227 6.83894828,0.121181248 C3.33809093,-0.569622428 0,1.77800919 0,5.00084227 L0,136.137948 Z" id="Fill-1"></path>
                                                        <path d="M39.7486127,239.32574 C45.2095213,239.32574 50.3166091,238.367488 55.072619,236.450983 C59.8231432,234.534477 63.9702521,231.794259 67.5139457,228.233074 C71.0494109,224.674635 73.8854629,220.385836 76.0083877,215.361188 C78.1340553,210.342031 79.1955177,204.817664 79.1955177,198.793577 L79.1955177,198.244435 C79.1955177,192.217603 78.1340553,186.698727 76.0083877,181.674079 C73.8854629,176.654922 71.0494109,172.363378 67.5139457,168.802193 C63.9702521,165.241007 59.8231432,162.503535 55.072619,160.584284 C50.3166091,158.670525 45.2095213,157.709526 39.7486127,157.709526 C34.287704,157.709526 29.1778734,158.670525 24.4273492,160.584284 C19.6713394,162.503535 15.4748601,165.241007 11.8324258,168.802193 C8.19273434,172.363378 5.3100548,176.608245 3.1843872,181.539539 C1.0614624,186.468087 0,192.039132 0,198.244435 L0,198.793577 C0,204.817664 1.0614624,210.342031 3.1843872,215.361188 C5.3100548,220.385836 8.19273434,224.674635 11.8324258,228.233074 C15.4748601,231.794259 19.6713394,234.534477 24.4273492,236.450983 C29.1778734,238.367488 34.287704,239.32574 39.7486127,239.32574" id="Fill-4"></path>
                                                        <path d="M183.561704,109.32435 C183.561704,106.16757 180.347757,103.833699 176.896557,104.40891 C156.321778,107.843663 139.44097,115.021416 126.248614,125.942169 C111.660329,138.029857 104.366186,154.061456 104.366186,174.058984 C104.366186,194.056512 111.552737,210.203704 125.90377,222.489551 C138.875425,233.594702 155.819685,241.210056 176.722756,245.341117 C180.220854,246.03192 183.561704,243.684289 183.561704,240.461456 L183.561704,109.32435 Z" id="Fill-6"></path>
                                                        <path d="M143.811714,5.5229017 C138.350617,5.5229017 133.243352,6.48115431 128.48992,8.39765952 C123.736489,10.3141647 119.589236,13.0543828 116.04542,16.615568 C112.509832,20.1740074 109.676425,24.4628056 107.550684,29.487454 C105.427685,34.5066109 104.366186,40.0309783 104.366186,46.0550649 L104.366186,46.6042068 C104.366186,52.6310391 105.427685,58.1499151 107.550684,63.1745635 C109.676425,68.1937204 112.509832,72.4852643 116.04542,76.0464495 C119.589236,79.6076347 123.736489,82.345107 128.48992,84.2643579 C133.243352,86.1781174 138.350617,87.1391157 143.811714,87.1391157 C149.272812,87.1391157 154.385563,86.1781174 159.136251,84.2643579 C163.889683,82.345107 168.086308,79.6076347 171.728868,76.0464495 C175.368686,72.4852643 178.251465,68.2403975 180.377206,63.3091032 C182.500205,58.3805547 183.561704,52.8095102 183.561704,46.6042068 L183.561704,46.0550649 C183.561704,40.0309783 182.500205,34.5066109 180.377206,29.487454 C178.251465,24.4628056 175.368686,20.1740074 171.728868,16.615568 C168.086308,13.0543828 163.889683,10.3141647 159.136251,8.39765952 C154.385563,6.48115431 149.272812,5.5229017 143.811714,5.5229017" id="Fill-8"></path>
                                                    </g>
                                                </g>
                                                <g id="Group-13" transform="translate(57.094443, 213.552199)">
                                                    <g id="Group" transform="translate(635.427450, 92.865091) rotate(90.000000) translate(-635.427450, -92.865091) translate(543.427450, -30.134909)">
                                                        <path d="M0,136.137948 C0,139.294728 3.21394706,141.628599 6.66514685,141.053388 C27.2371668,137.618635 44.1207341,130.440882 57.3130902,119.520129 C71.8986164,107.432441 79.1955177,91.4008415 79.1955177,71.4033135 C79.1955177,51.4057856 72.0089666,35.2585937 57.6579343,22.9727467 C44.6835197,11.8675959 27.7420185,4.25224227 6.83894828,0.121181248 C3.33809093,-0.569622428 0,1.77800919 0,5.00084227 L0,136.137948 Z" id="Fill-1"></path>
                                                    </g>
                                                    <g id="Group" transform="translate(891.431565, 92.865091) rotate(90.000000) translate(-891.431565, -92.865091) translate(799.431565, -30.134909)">
                                                        <path d="M0,136.137948 C0,139.294728 3.21394706,141.628599 6.66514685,141.053388 C27.2371668,137.618635 44.1207341,130.440882 57.3130902,119.520129 C71.8986164,107.432441 79.1955177,91.4008415 79.1955177,71.4033135 C79.1955177,51.4057856 72.0089666,35.2585937 57.6579343,22.9727467 C44.6835197,11.8675959 27.7420185,4.25224227 6.83894828,0.121181248 C3.33809093,-0.569622428 0,1.77800919 0,5.00084227 L0,136.137948 Z" id="Fill-1"></path>
                                                        <path d="M39.7486127,239.32574 C45.2095213,239.32574 50.3166091,238.367488 55.072619,236.450983 C59.8231432,234.534477 63.9702521,231.794259 67.5139457,228.233074 C71.0494109,224.674635 73.8854629,220.385836 76.0083877,215.361188 C78.1340553,210.342031 79.1955177,204.817664 79.1955177,198.793577 L79.1955177,198.244435 C79.1955177,192.217603 78.1340553,186.698727 76.0083877,181.674079 C73.8854629,176.654922 71.0494109,172.363378 67.5139457,168.802193 C63.9702521,165.241007 59.8231432,162.503535 55.072619,160.584284 C50.3166091,158.670525 45.2095213,157.709526 39.7486127,157.709526 C34.287704,157.709526 29.1778734,158.670525 24.4273492,160.584284 C19.6713394,162.503535 15.4748601,165.241007 11.8324258,168.802193 C8.19273434,172.363378 5.3100548,176.608245 3.1843872,181.539539 C1.0614624,186.468087 0,192.039132 0,198.244435 L0,198.793577 C0,204.817664 1.0614624,210.342031 3.1843872,215.361188 C5.3100548,220.385836 8.19273434,224.674635 11.8324258,228.233074 C15.4748601,231.794259 19.6713394,234.534477 24.4273492,236.450983 C29.1778734,238.367488 34.287704,239.32574 39.7486127,239.32574" id="Fill-4"></path>
                                                        <path d="M183.561704,109.32435 C183.561704,106.16757 180.347757,103.833699 176.896557,104.40891 C156.321778,107.843663 139.44097,115.021416 126.248614,125.942169 C111.660329,138.029857 104.366186,154.061456 104.366186,174.058984 C104.366186,194.056512 111.552737,210.203704 125.90377,222.489551 C138.875425,233.594702 155.819685,241.210056 176.722756,245.341117 C180.220854,246.03192 183.561704,243.684289 183.561704,240.461456 L183.561704,109.32435 Z" id="Fill-6"></path>
                                                        <path d="M143.811714,5.5229017 C138.350617,5.5229017 133.243352,6.48115431 128.48992,8.39765952 C123.736489,10.3141647 119.589236,13.0543828 116.04542,16.615568 C112.509832,20.1740074 109.676425,24.4628056 107.550684,29.487454 C105.427685,34.5066109 104.366186,40.0309783 104.366186,46.0550649 L104.366186,46.6042068 C104.366186,52.6310391 105.427685,58.1499151 107.550684,63.1745635 C109.676425,68.1937204 112.509832,72.4852643 116.04542,76.0464495 C119.589236,79.6076347 123.736489,82.345107 128.48992,84.2643579 C133.243352,86.1781174 138.350617,87.1391157 143.811714,87.1391157 C149.272812,87.1391157 154.385563,86.1781174 159.136251,84.2643579 C163.889683,82.345107 168.086308,79.6076347 171.728868,76.0464495 C175.368686,72.4852643 178.251465,68.2403975 180.377206,63.3091032 C182.500205,58.3805547 183.561704,52.8095102 183.561704,46.6042068 L183.561704,46.0550649 C183.561704,40.0309783 182.500205,34.5066109 180.377206,29.487454 C178.251465,24.4628056 175.368686,20.1740074 171.728868,16.615568 C168.086308,13.0543828 163.889683,10.3141647 159.136251,8.39765952 C154.385563,6.48115431 149.272812,5.5229017 143.811714,5.5229017" id="Fill-8"></path>
                                                    </g>
                                                </g>
                                            </g>
                                        </g>
                                        <g id="Group-15" transform="translate(0.000000, 415.123434)">
                                            <g id="Group-14"></g>
                                        </g>
                                    </g>
                                    <g id="Group-16" transform="translate(1227.246357, 1293.073554) rotate(140.000000) translate(-1227.246357, -1293.073554) translate(690.746357, 885.573554)" fill="#FFFFFF">
                                        <g id="Group-15">
                                            <g id="Group-14">
                                                <g id="Group-13">
                                                    <g id="Group" transform="translate(379.423335, 92.865091) rotate(90.000000) translate(-379.423335, -92.865091) translate(287.423335, -30.134909)">
                                                        <path d="M0,136.137948 C0,139.294728 3.21394706,141.628599 6.66514685,141.053388 C27.2371668,137.618635 44.1207341,130.440882 57.3130902,119.520129 C71.8986164,107.432441 79.1955177,91.4008415 79.1955177,71.4033135 C79.1955177,51.4057856 72.0089666,35.2585937 57.6579343,22.9727467 C44.6835197,11.8675959 27.7420185,4.25224227 6.83894828,0.121181248 C3.33809093,-0.569622428 0,1.77800919 0,5.00084227 L0,136.137948 Z" id="Fill-1"></path>
                                                        <path d="M183.561704,109.32435 C183.561704,106.16757 180.347757,103.833699 176.896557,104.40891 C156.321778,107.843663 139.44097,115.021416 126.248614,125.942169 C111.660329,138.029857 104.366186,154.061456 104.366186,174.058984 C104.366186,194.056512 111.552737,210.203704 125.90377,222.489551 C138.875425,233.594702 155.819685,241.210056 176.722756,245.341117 C180.220854,246.03192 183.561704,243.684289 183.561704,240.461456 L183.561704,109.32435 Z" id="Fill-6"></path>
                                                        <path d="M143.811714,5.5229017 C138.350617,5.5229017 133.243352,6.48115431 128.48992,8.39765952 C123.736489,10.3141647 119.589236,13.0543828 116.04542,16.615568 C112.509832,20.1740074 109.676425,24.4628056 107.550684,29.487454 C105.427685,34.5066109 104.366186,40.0309783 104.366186,46.0550649 L104.366186,46.6042068 C104.366186,52.6310391 105.427685,58.1499151 107.550684,63.1745635 C109.676425,68.1937204 112.509832,72.4852643 116.04542,76.0464495 C119.589236,79.6076347 123.736489,82.345107 128.48992,84.2643579 C133.243352,86.1781174 138.350617,87.1391157 143.811714,87.1391157 C149.272812,87.1391157 154.385563,86.1781174 159.136251,84.2643579 C163.889683,82.345107 168.086308,79.6076347 171.728868,76.0464495 C175.368686,72.4852643 178.251465,68.2403975 180.377206,63.3091032 C182.500205,58.3805547 183.561704,52.8095102 183.561704,46.6042068 L183.561704,46.0550649 C183.561704,40.0309783 182.500205,34.5066109 180.377206,29.487454 C178.251465,24.4628056 175.368686,20.1740074 171.728868,16.615568 C168.086308,13.0543828 163.889683,10.3141647 159.136251,8.39765952 C154.385563,6.48115431 149.272812,5.5229017 143.811714,5.5229017" id="Fill-8"></path>
                                                    </g>
                                                    <g id="Group" transform="translate(635.427450, 92.865091) rotate(90.000000) translate(-635.427450, -92.865091) translate(543.427450, -30.134909)">
                                                        <path d="M183.561704,109.32435 C183.561704,106.16757 180.347757,103.833699 176.896557,104.40891 C156.321778,107.843663 139.44097,115.021416 126.248614,125.942169 C111.660329,138.029857 104.366186,154.061456 104.366186,174.058984 C104.366186,194.056512 111.552737,210.203704 125.90377,222.489551 C138.875425,233.594702 155.819685,241.210056 176.722756,245.341117 C180.220854,246.03192 183.561704,243.684289 183.561704,240.461456 L183.561704,109.32435 Z" id="Fill-6"></path>
                                                    </g>
                                                </g>
                                                <g id="Group-13" transform="translate(57.094443, 213.552199)">
                                                    <g id="Group" transform="translate(123.419219, 92.865091) rotate(90.000000) translate(-123.419219, -92.865091) translate(31.419219, -30.134909)">
                                                        <path d="M0,136.137948 C0,139.294728 3.21394706,141.628599 6.66514685,141.053388 C27.2371668,137.618635 44.1207341,130.440882 57.3130902,119.520129 C71.8986164,107.432441 79.1955177,91.4008415 79.1955177,71.4033135 C79.1955177,51.4057856 72.0089666,35.2585937 57.6579343,22.9727467 C44.6835197,11.8675959 27.7420185,4.25224227 6.83894828,0.121181248 C3.33809093,-0.569622428 0,1.77800919 0,5.00084227 L0,136.137948 Z" id="Fill-1"></path>
                                                        <path d="M183.561704,109.32435 C183.561704,106.16757 180.347757,103.833699 176.896557,104.40891 C156.321778,107.843663 139.44097,115.021416 126.248614,125.942169 C111.660329,138.029857 104.366186,154.061456 104.366186,174.058984 C104.366186,194.056512 111.552737,210.203704 125.90377,222.489551 C138.875425,233.594702 155.819685,241.210056 176.722756,245.341117 C180.220854,246.03192 183.561704,243.684289 183.561704,240.461456 L183.561704,109.32435 Z" id="Fill-6"></path>
                                                        <path d="M143.811714,5.5229017 C138.350617,5.5229017 133.243352,6.48115431 128.48992,8.39765952 C123.736489,10.3141647 119.589236,13.0543828 116.04542,16.615568 C112.509832,20.1740074 109.676425,24.4628056 107.550684,29.487454 C105.427685,34.5066109 104.366186,40.0309783 104.366186,46.0550649 L104.366186,46.6042068 C104.366186,52.6310391 105.427685,58.1499151 107.550684,63.1745635 C109.676425,68.1937204 112.509832,72.4852643 116.04542,76.0464495 C119.589236,79.6076347 123.736489,82.345107 128.48992,84.2643579 C133.243352,86.1781174 138.350617,87.1391157 143.811714,87.1391157 C149.272812,87.1391157 154.385563,86.1781174 159.136251,84.2643579 C163.889683,82.345107 168.086308,79.6076347 171.728868,76.0464495 C175.368686,72.4852643 178.251465,68.2403975 180.377206,63.3091032 C182.500205,58.3805547 183.561704,52.8095102 183.561704,46.6042068 L183.561704,46.0550649 C183.561704,40.0309783 182.500205,34.5066109 180.377206,29.487454 C178.251465,24.4628056 175.368686,20.1740074 171.728868,16.615568 C168.086308,13.0543828 163.889683,10.3141647 159.136251,8.39765952 C154.385563,6.48115431 149.272812,5.5229017 143.811714,5.5229017" id="Fill-8"></path>
                                                    </g>
                                                    <g id="Group" transform="translate(379.423335, 92.865091) rotate(90.000000) translate(-379.423335, -92.865091) translate(287.423335, -30.134909)">
                                                        <path d="M0,136.137948 C0,139.294728 3.21394706,141.628599 6.66514685,141.053388 C27.2371668,137.618635 44.1207341,130.440882 57.3130902,119.520129 C71.8986164,107.432441 79.1955177,91.4008415 79.1955177,71.4033135 C79.1955177,51.4057856 72.0089666,35.2585937 57.6579343,22.9727467 C44.6835197,11.8675959 27.7420185,4.25224227 6.83894828,0.121181248 C3.33809093,-0.569622428 0,1.77800919 0,5.00084227 L0,136.137948 Z" id="Fill-1"></path>
                                                        <path d="M39.7486127,239.32574 C45.2095213,239.32574 50.3166091,238.367488 55.072619,236.450983 C59.8231432,234.534477 63.9702521,231.794259 67.5139457,228.233074 C71.0494109,224.674635 73.8854629,220.385836 76.0083877,215.361188 C78.1340553,210.342031 79.1955177,204.817664 79.1955177,198.793577 L79.1955177,198.244435 C79.1955177,192.217603 78.1340553,186.698727 76.0083877,181.674079 C73.8854629,176.654922 71.0494109,172.363378 67.5139457,168.802193 C63.9702521,165.241007 59.8231432,162.503535 55.072619,160.584284 C50.3166091,158.670525 45.2095213,157.709526 39.7486127,157.709526 C34.287704,157.709526 29.1778734,158.670525 24.4273492,160.584284 C19.6713394,162.503535 15.4748601,165.241007 11.8324258,168.802193 C8.19273434,172.363378 5.3100548,176.608245 3.1843872,181.539539 C1.0614624,186.468087 0,192.039132 0,198.244435 L0,198.793577 C0,204.817664 1.0614624,210.342031 3.1843872,215.361188 C5.3100548,220.385836 8.19273434,224.674635 11.8324258,228.233074 C15.4748601,231.794259 19.6713394,234.534477 24.4273492,236.450983 C29.1778734,238.367488 34.287704,239.32574 39.7486127,239.32574" id="Fill-4"></path>
                                                        <path d="M183.561704,109.32435 C183.561704,106.16757 180.347757,103.833699 176.896557,104.40891 C156.321778,107.843663 139.44097,115.021416 126.248614,125.942169 C111.660329,138.029857 104.366186,154.061456 104.366186,174.058984 C104.366186,194.056512 111.552737,210.203704 125.90377,222.489551 C138.875425,233.594702 155.819685,241.210056 176.722756,245.341117 C180.220854,246.03192 183.561704,243.684289 183.561704,240.461456 L183.561704,109.32435 Z" id="Fill-6"></path>
                                                        <path d="M143.811714,5.5229017 C138.350617,5.5229017 133.243352,6.48115431 128.48992,8.39765952 C123.736489,10.3141647 119.589236,13.0543828 116.04542,16.615568 C112.509832,20.1740074 109.676425,24.4628056 107.550684,29.487454 C105.427685,34.5066109 104.366186,40.0309783 104.366186,46.0550649 L104.366186,46.6042068 C104.366186,52.6310391 105.427685,58.1499151 107.550684,63.1745635 C109.676425,68.1937204 112.509832,72.4852643 116.04542,76.0464495 C119.589236,79.6076347 123.736489,82.345107 128.48992,84.2643579 C133.243352,86.1781174 138.350617,87.1391157 143.811714,87.1391157 C149.272812,87.1391157 154.385563,86.1781174 159.136251,84.2643579 C163.889683,82.345107 168.086308,79.6076347 171.728868,76.0464495 C175.368686,72.4852643 178.251465,68.2403975 180.377206,63.3091032 C182.500205,58.3805547 183.561704,52.8095102 183.561704,46.6042068 L183.561704,46.0550649 C183.561704,40.0309783 182.500205,34.5066109 180.377206,29.487454 C178.251465,24.4628056 175.368686,20.1740074 171.728868,16.615568 C168.086308,13.0543828 163.889683,10.3141647 159.136251,8.39765952 C154.385563,6.48115431 149.272812,5.5229017 143.811714,5.5229017" id="Fill-8"></path>
                                                    </g>
                                                    <g id="Group" transform="translate(635.427450, 92.865091) rotate(90.000000) translate(-635.427450, -92.865091) translate(543.427450, -30.134909)">
                                                        <path d="M0,136.137948 C0,139.294728 3.21394706,141.628599 6.66514685,141.053388 C27.2371668,137.618635 44.1207341,130.440882 57.3130902,119.520129 C71.8986164,107.432441 79.1955177,91.4008415 79.1955177,71.4033135 C79.1955177,51.4057856 72.0089666,35.2585937 57.6579343,22.9727467 C44.6835197,11.8675959 27.7420185,4.25224227 6.83894828,0.121181248 C3.33809093,-0.569622428 0,1.77800919 0,5.00084227 L0,136.137948 Z" id="Fill-1"></path>
                                                        <path d="M39.7486127,239.32574 C45.2095213,239.32574 50.3166091,238.367488 55.072619,236.450983 C59.8231432,234.534477 63.9702521,231.794259 67.5139457,228.233074 C71.0494109,224.674635 73.8854629,220.385836 76.0083877,215.361188 C78.1340553,210.342031 79.1955177,204.817664 79.1955177,198.793577 L79.1955177,198.244435 C79.1955177,192.217603 78.1340553,186.698727 76.0083877,181.674079 C73.8854629,176.654922 71.0494109,172.363378 67.5139457,168.802193 C63.9702521,165.241007 59.8231432,162.503535 55.072619,160.584284 C50.3166091,158.670525 45.2095213,157.709526 39.7486127,157.709526 C34.287704,157.709526 29.1778734,158.670525 24.4273492,160.584284 C19.6713394,162.503535 15.4748601,165.241007 11.8324258,168.802193 C8.19273434,172.363378 5.3100548,176.608245 3.1843872,181.539539 C1.0614624,186.468087 0,192.039132 0,198.244435 L0,198.793577 C0,204.817664 1.0614624,210.342031 3.1843872,215.361188 C5.3100548,220.385836 8.19273434,224.674635 11.8324258,228.233074 C15.4748601,231.794259 19.6713394,234.534477 24.4273492,236.450983 C29.1778734,238.367488 34.287704,239.32574 39.7486127,239.32574" id="Fill-4"></path>
                                                        <path d="M183.561704,109.32435 C183.561704,106.16757 180.347757,103.833699 176.896557,104.40891 C156.321778,107.843663 139.44097,115.021416 126.248614,125.942169 C111.660329,138.029857 104.366186,154.061456 104.366186,174.058984 C104.366186,194.056512 111.552737,210.203704 125.90377,222.489551 C138.875425,233.594702 155.819685,241.210056 176.722756,245.341117 C180.220854,246.03192 183.561704,243.684289 183.561704,240.461456 L183.561704,109.32435 Z" id="Fill-6"></path>
                                                        <path d="M143.811714,5.5229017 C138.350617,5.5229017 133.243352,6.48115431 128.48992,8.39765952 C123.736489,10.3141647 119.589236,13.0543828 116.04542,16.615568 C112.509832,20.1740074 109.676425,24.4628056 107.550684,29.487454 C105.427685,34.5066109 104.366186,40.0309783 104.366186,46.0550649 L104.366186,46.6042068 C104.366186,52.6310391 105.427685,58.1499151 107.550684,63.1745635 C109.676425,68.1937204 112.509832,72.4852643 116.04542,76.0464495 C119.589236,79.6076347 123.736489,82.345107 128.48992,84.2643579 C133.243352,86.1781174 138.350617,87.1391157 143.811714,87.1391157 C149.272812,87.1391157 154.385563,86.1781174 159.136251,84.2643579 C163.889683,82.345107 168.086308,79.6076347 171.728868,76.0464495 C175.368686,72.4852643 178.251465,68.2403975 180.377206,63.3091032 C182.500205,58.3805547 183.561704,52.8095102 183.561704,46.6042068 L183.561704,46.0550649 C183.561704,40.0309783 182.500205,34.5066109 180.377206,29.487454 C178.251465,24.4628056 175.368686,20.1740074 171.728868,16.615568 C168.086308,13.0543828 163.889683,10.3141647 159.136251,8.39765952 C154.385563,6.48115431 149.272812,5.5229017 143.811714,5.5229017" id="Fill-8"></path>
                                                    </g>
                                                    <g id="Group" transform="translate(891.431565, 92.865091) rotate(90.000000) translate(-891.431565, -92.865091) translate(799.431565, -30.134909)">
                                                        <path d="M183.561704,109.32435 C183.561704,106.16757 180.347757,103.833699 176.896557,104.40891 C156.321778,107.843663 139.44097,115.021416 126.248614,125.942169 C111.660329,138.029857 104.366186,154.061456 104.366186,174.058984 C104.366186,194.056512 111.552737,210.203704 125.90377,222.489551 C138.875425,233.594702 155.819685,241.210056 176.722756,245.341117 C180.220854,246.03192 183.561704,243.684289 183.561704,240.461456 L183.561704,109.32435 Z" id="Fill-6"></path>
                                                    </g>
                                                </g>
                                            </g>
                                        </g>
                                        <g id="Group-15" transform="translate(0.000000, 415.123434)">
                                            <g id="Group-14">
                                                <g id="Group-13">
                                                    <g id="Group" transform="translate(123.419219, 92.865091) rotate(90.000000) translate(-123.419219, -92.865091) translate(31.419219, -30.134909)">
                                                        <path d="M0,136.137948 C0,139.294728 3.21394706,141.628599 6.66514685,141.053388 C27.2371668,137.618635 44.1207341,130.440882 57.3130902,119.520129 C71.8986164,107.432441 79.1955177,91.4008415 79.1955177,71.4033135 C79.1955177,51.4057856 72.0089666,35.2585937 57.6579343,22.9727467 C44.6835197,11.8675959 27.7420185,4.25224227 6.83894828,0.121181248 C3.33809093,-0.569622428 0,1.77800919 0,5.00084227 L0,136.137948 Z" id="Fill-1"></path>
                                                        <path d="M39.7486127,239.32574 C45.2095213,239.32574 50.3166091,238.367488 55.072619,236.450983 C59.8231432,234.534477 63.9702521,231.794259 67.5139457,228.233074 C71.0494109,224.674635 73.8854629,220.385836 76.0083877,215.361188 C78.1340553,210.342031 79.1955177,204.817664 79.1955177,198.793577 L79.1955177,198.244435 C79.1955177,192.217603 78.1340553,186.698727 76.0083877,181.674079 C73.8854629,176.654922 71.0494109,172.363378 67.5139457,168.802193 C63.9702521,165.241007 59.8231432,162.503535 55.072619,160.584284 C50.3166091,158.670525 45.2095213,157.709526 39.7486127,157.709526 C34.287704,157.709526 29.1778734,158.670525 24.4273492,160.584284 C19.6713394,162.503535 15.4748601,165.241007 11.8324258,168.802193 C8.19273434,172.363378 5.3100548,176.608245 3.1843872,181.539539 C1.0614624,186.468087 0,192.039132 0,198.244435 L0,198.793577 C0,204.817664 1.0614624,210.342031 3.1843872,215.361188 C5.3100548,220.385836 8.19273434,224.674635 11.8324258,228.233074 C15.4748601,231.794259 19.6713394,234.534477 24.4273492,236.450983 C29.1778734,238.367488 34.287704,239.32574 39.7486127,239.32574" id="Fill-4"></path>
                                                        <path d="M143.811714,5.5229017 C138.350617,5.5229017 133.243352,6.48115431 128.48992,8.39765952 C123.736489,10.3141647 119.589236,13.0543828 116.04542,16.615568 C112.509832,20.1740074 109.676425,24.4628056 107.550684,29.487454 C105.427685,34.5066109 104.366186,40.0309783 104.366186,46.0550649 L104.366186,46.6042068 C104.366186,52.6310391 105.427685,58.1499151 107.550684,63.1745635 C109.676425,68.1937204 112.509832,72.4852643 116.04542,76.0464495 C119.589236,79.6076347 123.736489,82.345107 128.48992,84.2643579 C133.243352,86.1781174 138.350617,87.1391157 143.811714,87.1391157 C149.272812,87.1391157 154.385563,86.1781174 159.136251,84.2643579 C163.889683,82.345107 168.086308,79.6076347 171.728868,76.0464495 C175.368686,72.4852643 178.251465,68.2403975 180.377206,63.3091032 C182.500205,58.3805547 183.561704,52.8095102 183.561704,46.6042068 L183.561704,46.0550649 C183.561704,40.0309783 182.500205,34.5066109 180.377206,29.487454 C178.251465,24.4628056 175.368686,20.1740074 171.728868,16.615568 C168.086308,13.0543828 163.889683,10.3141647 159.136251,8.39765952 C154.385563,6.48115431 149.272812,5.5229017 143.811714,5.5229017" id="Fill-8"></path>
                                                    </g>
                                                    <g id="Group" transform="translate(379.423335, 92.865091) rotate(90.000000) translate(-379.423335, -92.865091) translate(287.423335, -30.134909)">
                                                        <path d="M0,136.137948 C0,139.294728 3.21394706,141.628599 6.66514685,141.053388 C27.2371668,137.618635 44.1207341,130.440882 57.3130902,119.520129 C71.8986164,107.432441 79.1955177,91.4008415 79.1955177,71.4033135 C79.1955177,51.4057856 72.0089666,35.2585937 57.6579343,22.9727467 C44.6835197,11.8675959 27.7420185,4.25224227 6.83894828,0.121181248 C3.33809093,-0.569622428 0,1.77800919 0,5.00084227 L0,136.137948 Z" id="Fill-1"></path>
                                                        <path d="M39.7486127,239.32574 C45.2095213,239.32574 50.3166091,238.367488 55.072619,236.450983 C59.8231432,234.534477 63.9702521,231.794259 67.5139457,228.233074 C71.0494109,224.674635 73.8854629,220.385836 76.0083877,215.361188 C78.1340553,210.342031 79.1955177,204.817664 79.1955177,198.793577 L79.1955177,198.244435 C79.1955177,192.217603 78.1340553,186.698727 76.0083877,181.674079 C73.8854629,176.654922 71.0494109,172.363378 67.5139457,168.802193 C63.9702521,165.241007 59.8231432,162.503535 55.072619,160.584284 C50.3166091,158.670525 45.2095213,157.709526 39.7486127,157.709526 C34.287704,157.709526 29.1778734,158.670525 24.4273492,160.584284 C19.6713394,162.503535 15.4748601,165.241007 11.8324258,168.802193 C8.19273434,172.363378 5.3100548,176.608245 3.1843872,181.539539 C1.0614624,186.468087 0,192.039132 0,198.244435 L0,198.793577 C0,204.817664 1.0614624,210.342031 3.1843872,215.361188 C5.3100548,220.385836 8.19273434,224.674635 11.8324258,228.233074 C15.4748601,231.794259 19.6713394,234.534477 24.4273492,236.450983 C29.1778734,238.367488 34.287704,239.32574 39.7486127,239.32574" id="Fill-4"></path>
                                                        <path d="M183.561704,109.32435 C183.561704,106.16757 180.347757,103.833699 176.896557,104.40891 C156.321778,107.843663 139.44097,115.021416 126.248614,125.942169 C111.660329,138.029857 104.366186,154.061456 104.366186,174.058984 C104.366186,194.056512 111.552737,210.203704 125.90377,222.489551 C138.875425,233.594702 155.819685,241.210056 176.722756,245.341117 C180.220854,246.03192 183.561704,243.684289 183.561704,240.461456 L183.561704,109.32435 Z" id="Fill-6"></path>
                                                        <path d="M143.811714,5.5229017 C138.350617,5.5229017 133.243352,6.48115431 128.48992,8.39765952 C123.736489,10.3141647 119.589236,13.0543828 116.04542,16.615568 C112.509832,20.1740074 109.676425,24.4628056 107.550684,29.487454 C105.427685,34.5066109 104.366186,40.0309783 104.366186,46.0550649 L104.366186,46.6042068 C104.366186,52.6310391 105.427685,58.1499151 107.550684,63.1745635 C109.676425,68.1937204 112.509832,72.4852643 116.04542,76.0464495 C119.589236,79.6076347 123.736489,82.345107 128.48992,84.2643579 C133.243352,86.1781174 138.350617,87.1391157 143.811714,87.1391157 C149.272812,87.1391157 154.385563,86.1781174 159.136251,84.2643579 C163.889683,82.345107 168.086308,79.6076347 171.728868,76.0464495 C175.368686,72.4852643 178.251465,68.2403975 180.377206,63.3091032 C182.500205,58.3805547 183.561704,52.8095102 183.561704,46.6042068 L183.561704,46.0550649 C183.561704,40.0309783 182.500205,34.5066109 180.377206,29.487454 C178.251465,24.4628056 175.368686,20.1740074 171.728868,16.615568 C168.086308,13.0543828 163.889683,10.3141647 159.136251,8.39765952 C154.385563,6.48115431 149.272812,5.5229017 143.811714,5.5229017" id="Fill-8"></path>
                                                    </g>
                                                    <g id="Group" transform="translate(635.427450, 92.865091) rotate(90.000000) translate(-635.427450, -92.865091) translate(543.427450, -30.134909)">
                                                        <path d="M0,136.137948 C0,139.294728 3.21394706,141.628599 6.66514685,141.053388 C27.2371668,137.618635 44.1207341,130.440882 57.3130902,119.520129 C71.8986164,107.432441 79.1955177,91.4008415 79.1955177,71.4033135 C79.1955177,51.4057856 72.0089666,35.2585937 57.6579343,22.9727467 C44.6835197,11.8675959 27.7420185,4.25224227 6.83894828,0.121181248 C3.33809093,-0.569622428 0,1.77800919 0,5.00084227 L0,136.137948 Z" id="Fill-1"></path>
                                                        <path d="M39.7486127,239.32574 C45.2095213,239.32574 50.3166091,238.367488 55.072619,236.450983 C59.8231432,234.534477 63.9702521,231.794259 67.5139457,228.233074 C71.0494109,224.674635 73.8854629,220.385836 76.0083877,215.361188 C78.1340553,210.342031 79.1955177,204.817664 79.1955177,198.793577 L79.1955177,198.244435 C79.1955177,192.217603 78.1340553,186.698727 76.0083877,181.674079 C73.8854629,176.654922 71.0494109,172.363378 67.5139457,168.802193 C63.9702521,165.241007 59.8231432,162.503535 55.072619,160.584284 C50.3166091,158.670525 45.2095213,157.709526 39.7486127,157.709526 C34.287704,157.709526 29.1778734,158.670525 24.4273492,160.584284 C19.6713394,162.503535 15.4748601,165.241007 11.8324258,168.802193 C8.19273434,172.363378 5.3100548,176.608245 3.1843872,181.539539 C1.0614624,186.468087 0,192.039132 0,198.244435 L0,198.793577 C0,204.817664 1.0614624,210.342031 3.1843872,215.361188 C5.3100548,220.385836 8.19273434,224.674635 11.8324258,228.233074 C15.4748601,231.794259 19.6713394,234.534477 24.4273492,236.450983 C29.1778734,238.367488 34.287704,239.32574 39.7486127,239.32574" id="Fill-4"></path>
                                                        <path d="M183.561704,109.32435 C183.561704,106.16757 180.347757,103.833699 176.896557,104.40891 C156.321778,107.843663 139.44097,115.021416 126.248614,125.942169 C111.660329,138.029857 104.366186,154.061456 104.366186,174.058984 C104.366186,194.056512 111.552737,210.203704 125.90377,222.489551 C138.875425,233.594702 155.819685,241.210056 176.722756,245.341117 C180.220854,246.03192 183.561704,243.684289 183.561704,240.461456 L183.561704,109.32435 Z" id="Fill-6"></path>
                                                        <path d="M143.811714,5.5229017 C138.350617,5.5229017 133.243352,6.48115431 128.48992,8.39765952 C123.736489,10.3141647 119.589236,13.0543828 116.04542,16.615568 C112.509832,20.1740074 109.676425,24.4628056 107.550684,29.487454 C105.427685,34.5066109 104.366186,40.0309783 104.366186,46.0550649 L104.366186,46.6042068 C104.366186,52.6310391 105.427685,58.1499151 107.550684,63.1745635 C109.676425,68.1937204 112.509832,72.4852643 116.04542,76.0464495 C119.589236,79.6076347 123.736489,82.345107 128.48992,84.2643579 C133.243352,86.1781174 138.350617,87.1391157 143.811714,87.1391157 C149.272812,87.1391157 154.385563,86.1781174 159.136251,84.2643579 C163.889683,82.345107 168.086308,79.6076347 171.728868,76.0464495 C175.368686,72.4852643 178.251465,68.2403975 180.377206,63.3091032 C182.500205,58.3805547 183.561704,52.8095102 183.561704,46.6042068 L183.561704,46.0550649 C183.561704,40.0309783 182.500205,34.5066109 180.377206,29.487454 C178.251465,24.4628056 175.368686,20.1740074 171.728868,16.615568 C168.086308,13.0543828 163.889683,10.3141647 159.136251,8.39765952 C154.385563,6.48115431 149.272812,5.5229017 143.811714,5.5229017" id="Fill-8"></path>
                                                    </g>
                                                    <g id="Group" transform="translate(891.431565, 92.865091) rotate(90.000000) translate(-891.431565, -92.865091) translate(799.431565, -30.134909)">
                                                        <path d="M0,136.137948 C0,139.294728 3.21394706,141.628599 6.66514685,141.053388 C27.2371668,137.618635 44.1207341,130.440882 57.3130902,119.520129 C71.8986164,107.432441 79.1955177,91.4008415 79.1955177,71.4033135 C79.1955177,51.4057856 72.0089666,35.2585937 57.6579343,22.9727467 C44.6835197,11.8675959 27.7420185,4.25224227 6.83894828,0.121181248 C3.33809093,-0.569622428 0,1.77800919 0,5.00084227 L0,136.137948 Z" id="Fill-1"></path>
                                                        <path d="M39.7486127,239.32574 C45.2095213,239.32574 50.3166091,238.367488 55.072619,236.450983 C59.8231432,234.534477 63.9702521,231.794259 67.5139457,228.233074 C71.0494109,224.674635 73.8854629,220.385836 76.0083877,215.361188 C78.1340553,210.342031 79.1955177,204.817664 79.1955177,198.793577 L79.1955177,198.244435 C79.1955177,192.217603 78.1340553,186.698727 76.0083877,181.674079 C73.8854629,176.654922 71.0494109,172.363378 67.5139457,168.802193 C63.9702521,165.241007 59.8231432,162.503535 55.072619,160.584284 C50.3166091,158.670525 45.2095213,157.709526 39.7486127,157.709526 C34.287704,157.709526 29.1778734,158.670525 24.4273492,160.584284 C19.6713394,162.503535 15.4748601,165.241007 11.8324258,168.802193 C8.19273434,172.363378 5.3100548,176.608245 3.1843872,181.539539 C1.0614624,186.468087 0,192.039132 0,198.244435 L0,198.793577 C0,204.817664 1.0614624,210.342031 3.1843872,215.361188 C5.3100548,220.385836 8.19273434,224.674635 11.8324258,228.233074 C15.4748601,231.794259 19.6713394,234.534477 24.4273492,236.450983 C29.1778734,238.367488 34.287704,239.32574 39.7486127,239.32574" id="Fill-4"></path>
                                                        <path d="M183.561704,109.32435 C183.561704,106.16757 180.347757,103.833699 176.896557,104.40891 C156.321778,107.843663 139.44097,115.021416 126.248614,125.942169 C111.660329,138.029857 104.366186,154.061456 104.366186,174.058984 C104.366186,194.056512 111.552737,210.203704 125.90377,222.489551 C138.875425,233.594702 155.819685,241.210056 176.722756,245.341117 C180.220854,246.03192 183.561704,243.684289 183.561704,240.461456 L183.561704,109.32435 Z" id="Fill-6"></path>
                                                        <path d="M143.811714,5.5229017 C138.350617,5.5229017 133.243352,6.48115431 128.48992,8.39765952 C123.736489,10.3141647 119.589236,13.0543828 116.04542,16.615568 C112.509832,20.1740074 109.676425,24.4628056 107.550684,29.487454 C105.427685,34.5066109 104.366186,40.0309783 104.366186,46.0550649 L104.366186,46.6042068 C104.366186,52.6310391 105.427685,58.1499151 107.550684,63.1745635 C109.676425,68.1937204 112.509832,72.4852643 116.04542,76.0464495 C119.589236,79.6076347 123.736489,82.345107 128.48992,84.2643579 C133.243352,86.1781174 138.350617,87.1391157 143.811714,87.1391157 C149.272812,87.1391157 154.385563,86.1781174 159.136251,84.2643579 C163.889683,82.345107 168.086308,79.6076347 171.728868,76.0464495 C175.368686,72.4852643 178.251465,68.2403975 180.377206,63.3091032 C182.500205,58.3805547 183.561704,52.8095102 183.561704,46.6042068 L183.561704,46.0550649 C183.561704,40.0309783 182.500205,34.5066109 180.377206,29.487454 C178.251465,24.4628056 175.368686,20.1740074 171.728868,16.615568 C168.086308,13.0543828 163.889683,10.3141647 159.136251,8.39765952 C154.385563,6.48115431 149.272812,5.5229017 143.811714,5.5229017" id="Fill-8"></path>
                                                    </g>
                                                </g>
                                                <g id="Group-13" transform="translate(57.094443, 213.552199)">
                                                    <g id="Group" transform="translate(379.423335, 92.865091) rotate(90.000000) translate(-379.423335, -92.865091) translate(287.423335, -30.134909)">
                                                        <path d="M0,136.137948 C0,139.294728 3.21394706,141.628599 6.66514685,141.053388 C27.2371668,137.618635 44.1207341,130.440882 57.3130902,119.520129 C71.8986164,107.432441 79.1955177,91.4008415 79.1955177,71.4033135 C79.1955177,51.4057856 72.0089666,35.2585937 57.6579343,22.9727467 C44.6835197,11.8675959 27.7420185,4.25224227 6.83894828,0.121181248 C3.33809093,-0.569622428 0,1.77800919 0,5.00084227 L0,136.137948 Z" id="Fill-1"></path>
                                                        <path d="M39.7486127,239.32574 C45.2095213,239.32574 50.3166091,238.367488 55.072619,236.450983 C59.8231432,234.534477 63.9702521,231.794259 67.5139457,228.233074 C71.0494109,224.674635 73.8854629,220.385836 76.0083877,215.361188 C78.1340553,210.342031 79.1955177,204.817664 79.1955177,198.793577 L79.1955177,198.244435 C79.1955177,192.217603 78.1340553,186.698727 76.0083877,181.674079 C73.8854629,176.654922 71.0494109,172.363378 67.5139457,168.802193 C63.9702521,165.241007 59.8231432,162.503535 55.072619,160.584284 C50.3166091,158.670525 45.2095213,157.709526 39.7486127,157.709526 C34.287704,157.709526 29.1778734,158.670525 24.4273492,160.584284 C19.6713394,162.503535 15.4748601,165.241007 11.8324258,168.802193 C8.19273434,172.363378 5.3100548,176.608245 3.1843872,181.539539 C1.0614624,186.468087 0,192.039132 0,198.244435 L0,198.793577 C0,204.817664 1.0614624,210.342031 3.1843872,215.361188 C5.3100548,220.385836 8.19273434,224.674635 11.8324258,228.233074 C15.4748601,231.794259 19.6713394,234.534477 24.4273492,236.450983 C29.1778734,238.367488 34.287704,239.32574 39.7486127,239.32574" id="Fill-4"></path>
                                                        <path d="M183.561704,109.32435 C183.561704,106.16757 180.347757,103.833699 176.896557,104.40891 C156.321778,107.843663 139.44097,115.021416 126.248614,125.942169 C111.660329,138.029857 104.366186,154.061456 104.366186,174.058984 C104.366186,194.056512 111.552737,210.203704 125.90377,222.489551 C138.875425,233.594702 155.819685,241.210056 176.722756,245.341117 C180.220854,246.03192 183.561704,243.684289 183.561704,240.461456 L183.561704,109.32435 Z" id="Fill-6"></path>
                                                        <path d="M143.811714,5.5229017 C138.350617,5.5229017 133.243352,6.48115431 128.48992,8.39765952 C123.736489,10.3141647 119.589236,13.0543828 116.04542,16.615568 C112.509832,20.1740074 109.676425,24.4628056 107.550684,29.487454 C105.427685,34.5066109 104.366186,40.0309783 104.366186,46.0550649 L104.366186,46.6042068 C104.366186,52.6310391 105.427685,58.1499151 107.550684,63.1745635 C109.676425,68.1937204 112.509832,72.4852643 116.04542,76.0464495 C119.589236,79.6076347 123.736489,82.345107 128.48992,84.2643579 C133.243352,86.1781174 138.350617,87.1391157 143.811714,87.1391157 C149.272812,87.1391157 154.385563,86.1781174 159.136251,84.2643579 C163.889683,82.345107 168.086308,79.6076347 171.728868,76.0464495 C175.368686,72.4852643 178.251465,68.2403975 180.377206,63.3091032 C182.500205,58.3805547 183.561704,52.8095102 183.561704,46.6042068 L183.561704,46.0550649 C183.561704,40.0309783 182.500205,34.5066109 180.377206,29.487454 C178.251465,24.4628056 175.368686,20.1740074 171.728868,16.615568 C168.086308,13.0543828 163.889683,10.3141647 159.136251,8.39765952 C154.385563,6.48115431 149.272812,5.5229017 143.811714,5.5229017" id="Fill-8"></path>
                                                    </g>
                                                    <g id="Group" transform="translate(635.427450, 92.865091) rotate(90.000000) translate(-635.427450, -92.865091) translate(543.427450, -30.134909)">
                                                        <path d="M0,136.137948 C0,139.294728 3.21394706,141.628599 6.66514685,141.053388 C27.2371668,137.618635 44.1207341,130.440882 57.3130902,119.520129 C71.8986164,107.432441 79.1955177,91.4008415 79.1955177,71.4033135 C79.1955177,51.4057856 72.0089666,35.2585937 57.6579343,22.9727467 C44.6835197,11.8675959 27.7420185,4.25224227 6.83894828,0.121181248 C3.33809093,-0.569622428 0,1.77800919 0,5.00084227 L0,136.137948 Z" id="Fill-1"></path>
                                                        <path d="M39.7486127,239.32574 C45.2095213,239.32574 50.3166091,238.367488 55.072619,236.450983 C59.8231432,234.534477 63.9702521,231.794259 67.5139457,228.233074 C71.0494109,224.674635 73.8854629,220.385836 76.0083877,215.361188 C78.1340553,210.342031 79.1955177,204.817664 79.1955177,198.793577 L79.1955177,198.244435 C79.1955177,192.217603 78.1340553,186.698727 76.0083877,181.674079 C73.8854629,176.654922 71.0494109,172.363378 67.5139457,168.802193 C63.9702521,165.241007 59.8231432,162.503535 55.072619,160.584284 C50.3166091,158.670525 45.2095213,157.709526 39.7486127,157.709526 C34.287704,157.709526 29.1778734,158.670525 24.4273492,160.584284 C19.6713394,162.503535 15.4748601,165.241007 11.8324258,168.802193 C8.19273434,172.363378 5.3100548,176.608245 3.1843872,181.539539 C1.0614624,186.468087 0,192.039132 0,198.244435 L0,198.793577 C0,204.817664 1.0614624,210.342031 3.1843872,215.361188 C5.3100548,220.385836 8.19273434,224.674635 11.8324258,228.233074 C15.4748601,231.794259 19.6713394,234.534477 24.4273492,236.450983 C29.1778734,238.367488 34.287704,239.32574 39.7486127,239.32574" id="Fill-4"></path>
                                                        <path d="M183.561704,109.32435 C183.561704,106.16757 180.347757,103.833699 176.896557,104.40891 C156.321778,107.843663 139.44097,115.021416 126.248614,125.942169 C111.660329,138.029857 104.366186,154.061456 104.366186,174.058984 C104.366186,194.056512 111.552737,210.203704 125.90377,222.489551 C138.875425,233.594702 155.819685,241.210056 176.722756,245.341117 C180.220854,246.03192 183.561704,243.684289 183.561704,240.461456 L183.561704,109.32435 Z" id="Fill-6"></path>
                                                        <path d="M143.811714,5.5229017 C138.350617,5.5229017 133.243352,6.48115431 128.48992,8.39765952 C123.736489,10.3141647 119.589236,13.0543828 116.04542,16.615568 C112.509832,20.1740074 109.676425,24.4628056 107.550684,29.487454 C105.427685,34.5066109 104.366186,40.0309783 104.366186,46.0550649 L104.366186,46.6042068 C104.366186,52.6310391 105.427685,58.1499151 107.550684,63.1745635 C109.676425,68.1937204 112.509832,72.4852643 116.04542,76.0464495 C119.589236,79.6076347 123.736489,82.345107 128.48992,84.2643579 C133.243352,86.1781174 138.350617,87.1391157 143.811714,87.1391157 C149.272812,87.1391157 154.385563,86.1781174 159.136251,84.2643579 C163.889683,82.345107 168.086308,79.6076347 171.728868,76.0464495 C175.368686,72.4852643 178.251465,68.2403975 180.377206,63.3091032 C182.500205,58.3805547 183.561704,52.8095102 183.561704,46.6042068 L183.561704,46.0550649 C183.561704,40.0309783 182.500205,34.5066109 180.377206,29.487454 C178.251465,24.4628056 175.368686,20.1740074 171.728868,16.615568 C168.086308,13.0543828 163.889683,10.3141647 159.136251,8.39765952 C154.385563,6.48115431 149.272812,5.5229017 143.811714,5.5229017" id="Fill-8"></path>
                                                    </g>
                                                    <g id="Group" transform="translate(891.431565, 92.865091) rotate(90.000000) translate(-891.431565, -92.865091) translate(799.431565, -30.134909)">
                                                        <path d="M0,136.137948 C0,139.294728 3.21394706,141.628599 6.66514685,141.053388 C27.2371668,137.618635 44.1207341,130.440882 57.3130902,119.520129 C71.8986164,107.432441 79.1955177,91.4008415 79.1955177,71.4033135 C79.1955177,51.4057856 72.0089666,35.2585937 57.6579343,22.9727467 C44.6835197,11.8675959 27.7420185,4.25224227 6.83894828,0.121181248 C3.33809093,-0.569622428 0,1.77800919 0,5.00084227 L0,136.137948 Z" id="Fill-1"></path>
                                                        <path d="M39.7486127,239.32574 C45.2095213,239.32574 50.3166091,238.367488 55.072619,236.450983 C59.8231432,234.534477 63.9702521,231.794259 67.5139457,228.233074 C71.0494109,224.674635 73.8854629,220.385836 76.0083877,215.361188 C78.1340553,210.342031 79.1955177,204.817664 79.1955177,198.793577 L79.1955177,198.244435 C79.1955177,192.217603 78.1340553,186.698727 76.0083877,181.674079 C73.8854629,176.654922 71.0494109,172.363378 67.5139457,168.802193 C63.9702521,165.241007 59.8231432,162.503535 55.072619,160.584284 C50.3166091,158.670525 45.2095213,157.709526 39.7486127,157.709526 C34.287704,157.709526 29.1778734,158.670525 24.4273492,160.584284 C19.6713394,162.503535 15.4748601,165.241007 11.8324258,168.802193 C8.19273434,172.363378 5.3100548,176.608245 3.1843872,181.539539 C1.0614624,186.468087 0,192.039132 0,198.244435 L0,198.793577 C0,204.817664 1.0614624,210.342031 3.1843872,215.361188 C5.3100548,220.385836 8.19273434,224.674635 11.8324258,228.233074 C15.4748601,231.794259 19.6713394,234.534477 24.4273492,236.450983 C29.1778734,238.367488 34.287704,239.32574 39.7486127,239.32574" id="Fill-4"></path>
                                                        <path d="M183.561704,109.32435 C183.561704,106.16757 180.347757,103.833699 176.896557,104.40891 C156.321778,107.843663 139.44097,115.021416 126.248614,125.942169 C111.660329,138.029857 104.366186,154.061456 104.366186,174.058984 C104.366186,194.056512 111.552737,210.203704 125.90377,222.489551 C138.875425,233.594702 155.819685,241.210056 176.722756,245.341117 C180.220854,246.03192 183.561704,243.684289 183.561704,240.461456 L183.561704,109.32435 Z" id="Fill-6"></path>
                                                        <path d="M143.811714,5.5229017 C138.350617,5.5229017 133.243352,6.48115431 128.48992,8.39765952 C123.736489,10.3141647 119.589236,13.0543828 116.04542,16.615568 C112.509832,20.1740074 109.676425,24.4628056 107.550684,29.487454 C105.427685,34.5066109 104.366186,40.0309783 104.366186,46.0550649 L104.366186,46.6042068 C104.366186,52.6310391 105.427685,58.1499151 107.550684,63.1745635 C109.676425,68.1937204 112.509832,72.4852643 116.04542,76.0464495 C119.589236,79.6076347 123.736489,82.345107 128.48992,84.2643579 C133.243352,86.1781174 138.350617,87.1391157 143.811714,87.1391157 C149.272812,87.1391157 154.385563,86.1781174 159.136251,84.2643579 C163.889683,82.345107 168.086308,79.6076347 171.728868,76.0464495 C175.368686,72.4852643 178.251465,68.2403975 180.377206,63.3091032 C182.500205,58.3805547 183.561704,52.8095102 183.561704,46.6042068 L183.561704,46.0550649 C183.561704,40.0309783 182.500205,34.5066109 180.377206,29.487454 C178.251465,24.4628056 175.368686,20.1740074 171.728868,16.615568 C168.086308,13.0543828 163.889683,10.3141647 159.136251,8.39765952 C154.385563,6.48115431 149.272812,5.5229017 143.811714,5.5229017" id="Fill-8"></path>
                                                    </g>
                                                </g>
                                            </g>
                                        </g>
                                    </g>
                                </g>
                                <g id="Group-22" transform="translate(0.000000, 650.000000)">
                                    <g id="Group-16" transform="translate(673.823500, 657.274482) rotate(140.000000) translate(-673.823500, -657.274482) translate(137.323500, 249.774482)">
                                        <g id="Group-15" fill="#FFFFFF">
                                            <g id="Group-14">
                                                <g id="Group-13">
                                                    <g id="Group" transform="translate(123.419219, 92.865091) rotate(90.000000) translate(-123.419219, -92.865091) translate(31.419219, -30.134909)">
                                                        <path d="M0,136.137948 C0,139.294728 3.21394706,141.628599 6.66514685,141.053388 C27.2371668,137.618635 44.1207341,130.440882 57.3130902,119.520129 C71.8986164,107.432441 79.1955177,91.4008415 79.1955177,71.4033135 C79.1955177,51.4057856 72.0089666,35.2585937 57.6579343,22.9727467 C44.6835197,11.8675959 27.7420185,4.25224227 6.83894828,0.121181248 C3.33809093,-0.569622428 0,1.77800919 0,5.00084227 L0,136.137948 Z" id="Fill-1"></path>
                                                        <path d="M39.7486127,239.32574 C45.2095213,239.32574 50.3166091,238.367488 55.072619,236.450983 C59.8231432,234.534477 63.9702521,231.794259 67.5139457,228.233074 C71.0494109,224.674635 73.8854629,220.385836 76.0083877,215.361188 C78.1340553,210.342031 79.1955177,204.817664 79.1955177,198.793577 L79.1955177,198.244435 C79.1955177,192.217603 78.1340553,186.698727 76.0083877,181.674079 C73.8854629,176.654922 71.0494109,172.363378 67.5139457,168.802193 C63.9702521,165.241007 59.8231432,162.503535 55.072619,160.584284 C50.3166091,158.670525 45.2095213,157.709526 39.7486127,157.709526 C34.287704,157.709526 29.1778734,158.670525 24.4273492,160.584284 C19.6713394,162.503535 15.4748601,165.241007 11.8324258,168.802193 C8.19273434,172.363378 5.3100548,176.608245 3.1843872,181.539539 C1.0614624,186.468087 0,192.039132 0,198.244435 L0,198.793577 C0,204.817664 1.0614624,210.342031 3.1843872,215.361188 C5.3100548,220.385836 8.19273434,224.674635 11.8324258,228.233074 C15.4748601,231.794259 19.6713394,234.534477 24.4273492,236.450983 C29.1778734,238.367488 34.287704,239.32574 39.7486127,239.32574" id="Fill-4"></path>
                                                        <path d="M183.561704,109.32435 C183.561704,106.16757 180.347757,103.833699 176.896557,104.40891 C156.321778,107.843663 139.44097,115.021416 126.248614,125.942169 C111.660329,138.029857 104.366186,154.061456 104.366186,174.058984 C104.366186,194.056512 111.552737,210.203704 125.90377,222.489551 C138.875425,233.594702 155.819685,241.210056 176.722756,245.341117 C180.220854,246.03192 183.561704,243.684289 183.561704,240.461456 L183.561704,109.32435 Z" id="Fill-6"></path>
                                                        <path d="M143.811714,5.5229017 C138.350617,5.5229017 133.243352,6.48115431 128.48992,8.39765952 C123.736489,10.3141647 119.589236,13.0543828 116.04542,16.615568 C112.509832,20.1740074 109.676425,24.4628056 107.550684,29.487454 C105.427685,34.5066109 104.366186,40.0309783 104.366186,46.0550649 L104.366186,46.6042068 C104.366186,52.6310391 105.427685,58.1499151 107.550684,63.1745635 C109.676425,68.1937204 112.509832,72.4852643 116.04542,76.0464495 C119.589236,79.6076347 123.736489,82.345107 128.48992,84.2643579 C133.243352,86.1781174 138.350617,87.1391157 143.811714,87.1391157 C149.272812,87.1391157 154.385563,86.1781174 159.136251,84.2643579 C163.889683,82.345107 168.086308,79.6076347 171.728868,76.0464495 C175.368686,72.4852643 178.251465,68.2403975 180.377206,63.3091032 C182.500205,58.3805547 183.561704,52.8095102 183.561704,46.6042068 L183.561704,46.0550649 C183.561704,40.0309783 182.500205,34.5066109 180.377206,29.487454 C178.251465,24.4628056 175.368686,20.1740074 171.728868,16.615568 C168.086308,13.0543828 163.889683,10.3141647 159.136251,8.39765952 C154.385563,6.48115431 149.272812,5.5229017 143.811714,5.5229017" id="Fill-8"></path>
                                                    </g>
                                                    <g id="Group" transform="translate(379.423335, 92.865091) rotate(90.000000) translate(-379.423335, -92.865091) translate(287.423335, -30.134909)">
                                                        <path d="M0,136.137948 C0,139.294728 3.21394706,141.628599 6.66514685,141.053388 C27.2371668,137.618635 44.1207341,130.440882 57.3130902,119.520129 C71.8986164,107.432441 79.1955177,91.4008415 79.1955177,71.4033135 C79.1955177,51.4057856 72.0089666,35.2585937 57.6579343,22.9727467 C44.6835197,11.8675959 27.7420185,4.25224227 6.83894828,0.121181248 C3.33809093,-0.569622428 0,1.77800919 0,5.00084227 L0,136.137948 Z" id="Fill-1"></path>
                                                        <path d="M39.7486127,239.32574 C45.2095213,239.32574 50.3166091,238.367488 55.072619,236.450983 C59.8231432,234.534477 63.9702521,231.794259 67.5139457,228.233074 C71.0494109,224.674635 73.8854629,220.385836 76.0083877,215.361188 C78.1340553,210.342031 79.1955177,204.817664 79.1955177,198.793577 L79.1955177,198.244435 C79.1955177,192.217603 78.1340553,186.698727 76.0083877,181.674079 C73.8854629,176.654922 71.0494109,172.363378 67.5139457,168.802193 C63.9702521,165.241007 59.8231432,162.503535 55.072619,160.584284 C50.3166091,158.670525 45.2095213,157.709526 39.7486127,157.709526 C34.287704,157.709526 29.1778734,158.670525 24.4273492,160.584284 C19.6713394,162.503535 15.4748601,165.241007 11.8324258,168.802193 C8.19273434,172.363378 5.3100548,176.608245 3.1843872,181.539539 C1.0614624,186.468087 0,192.039132 0,198.244435 L0,198.793577 C0,204.817664 1.0614624,210.342031 3.1843872,215.361188 C5.3100548,220.385836 8.19273434,224.674635 11.8324258,228.233074 C15.4748601,231.794259 19.6713394,234.534477 24.4273492,236.450983 C29.1778734,238.367488 34.287704,239.32574 39.7486127,239.32574" id="Fill-4"></path>
                                                        <path d="M183.561704,109.32435 C183.561704,106.16757 180.347757,103.833699 176.896557,104.40891 C156.321778,107.843663 139.44097,115.021416 126.248614,125.942169 C111.660329,138.029857 104.366186,154.061456 104.366186,174.058984 C104.366186,194.056512 111.552737,210.203704 125.90377,222.489551 C138.875425,233.594702 155.819685,241.210056 176.722756,245.341117 C180.220854,246.03192 183.561704,243.684289 183.561704,240.461456 L183.561704,109.32435 Z" id="Fill-6"></path>
                                                        <path d="M143.811714,5.5229017 C138.350617,5.5229017 133.243352,6.48115431 128.48992,8.39765952 C123.736489,10.3141647 119.589236,13.0543828 116.04542,16.615568 C112.509832,20.1740074 109.676425,24.4628056 107.550684,29.487454 C105.427685,34.5066109 104.366186,40.0309783 104.366186,46.0550649 L104.366186,46.6042068 C104.366186,52.6310391 105.427685,58.1499151 107.550684,63.1745635 C109.676425,68.1937204 112.509832,72.4852643 116.04542,76.0464495 C119.589236,79.6076347 123.736489,82.345107 128.48992,84.2643579 C133.243352,86.1781174 138.350617,87.1391157 143.811714,87.1391157 C149.272812,87.1391157 154.385563,86.1781174 159.136251,84.2643579 C163.889683,82.345107 168.086308,79.6076347 171.728868,76.0464495 C175.368686,72.4852643 178.251465,68.2403975 180.377206,63.3091032 C182.500205,58.3805547 183.561704,52.8095102 183.561704,46.6042068 L183.561704,46.0550649 C183.561704,40.0309783 182.500205,34.5066109 180.377206,29.487454 C178.251465,24.4628056 175.368686,20.1740074 171.728868,16.615568 C168.086308,13.0543828 163.889683,10.3141647 159.136251,8.39765952 C154.385563,6.48115431 149.272812,5.5229017 143.811714,5.5229017" id="Fill-8"></path>
                                                    </g>
                                                    <g id="Group" transform="translate(635.427450, 92.865091) rotate(90.000000) translate(-635.427450, -92.865091) translate(543.427450, -30.134909)">
                                                        <path d="M183.561704,109.32435 C183.561704,106.16757 180.347757,103.833699 176.896557,104.40891 C156.321778,107.843663 139.44097,115.021416 126.248614,125.942169 C111.660329,138.029857 104.366186,154.061456 104.366186,174.058984 C104.366186,194.056512 111.552737,210.203704 125.90377,222.489551 C138.875425,233.594702 155.819685,241.210056 176.722756,245.341117 C180.220854,246.03192 183.561704,243.684289 183.561704,240.461456 L183.561704,109.32435 Z" id="Fill-6"></path>
                                                    </g>
                                                </g>
                                                <g id="Group-13" transform="translate(57.094443, 213.552199)">
                                                    <g id="Group" transform="translate(123.419219, 92.865091) rotate(90.000000) translate(-123.419219, -92.865091) translate(31.419219, -30.134909)">
                                                        <path d="M0,136.137948 C0,139.294728 3.21394706,141.628599 6.66514685,141.053388 C27.2371668,137.618635 44.1207341,130.440882 57.3130902,119.520129 C71.8986164,107.432441 79.1955177,91.4008415 79.1955177,71.4033135 C79.1955177,51.4057856 72.0089666,35.2585937 57.6579343,22.9727467 C44.6835197,11.8675959 27.7420185,4.25224227 6.83894828,0.121181248 C3.33809093,-0.569622428 0,1.77800919 0,5.00084227 L0,136.137948 Z" id="Fill-1"></path>
                                                        <path d="M39.7486127,239.32574 C45.2095213,239.32574 50.3166091,238.367488 55.072619,236.450983 C59.8231432,234.534477 63.9702521,231.794259 67.5139457,228.233074 C71.0494109,224.674635 73.8854629,220.385836 76.0083877,215.361188 C78.1340553,210.342031 79.1955177,204.817664 79.1955177,198.793577 L79.1955177,198.244435 C79.1955177,192.217603 78.1340553,186.698727 76.0083877,181.674079 C73.8854629,176.654922 71.0494109,172.363378 67.5139457,168.802193 C63.9702521,165.241007 59.8231432,162.503535 55.072619,160.584284 C50.3166091,158.670525 45.2095213,157.709526 39.7486127,157.709526 C34.287704,157.709526 29.1778734,158.670525 24.4273492,160.584284 C19.6713394,162.503535 15.4748601,165.241007 11.8324258,168.802193 C8.19273434,172.363378 5.3100548,176.608245 3.1843872,181.539539 C1.0614624,186.468087 0,192.039132 0,198.244435 L0,198.793577 C0,204.817664 1.0614624,210.342031 3.1843872,215.361188 C5.3100548,220.385836 8.19273434,224.674635 11.8324258,228.233074 C15.4748601,231.794259 19.6713394,234.534477 24.4273492,236.450983 C29.1778734,238.367488 34.287704,239.32574 39.7486127,239.32574" id="Fill-4"></path>
                                                        <path d="M183.561704,109.32435 C183.561704,106.16757 180.347757,103.833699 176.896557,104.40891 C156.321778,107.843663 139.44097,115.021416 126.248614,125.942169 C111.660329,138.029857 104.366186,154.061456 104.366186,174.058984 C104.366186,194.056512 111.552737,210.203704 125.90377,222.489551 C138.875425,233.594702 155.819685,241.210056 176.722756,245.341117 C180.220854,246.03192 183.561704,243.684289 183.561704,240.461456 L183.561704,109.32435 Z" id="Fill-6"></path>
                                                        <path d="M143.811714,5.5229017 C138.350617,5.5229017 133.243352,6.48115431 128.48992,8.39765952 C123.736489,10.3141647 119.589236,13.0543828 116.04542,16.615568 C112.509832,20.1740074 109.676425,24.4628056 107.550684,29.487454 C105.427685,34.5066109 104.366186,40.0309783 104.366186,46.0550649 L104.366186,46.6042068 C104.366186,52.6310391 105.427685,58.1499151 107.550684,63.1745635 C109.676425,68.1937204 112.509832,72.4852643 116.04542,76.0464495 C119.589236,79.6076347 123.736489,82.345107 128.48992,84.2643579 C133.243352,86.1781174 138.350617,87.1391157 143.811714,87.1391157 C149.272812,87.1391157 154.385563,86.1781174 159.136251,84.2643579 C163.889683,82.345107 168.086308,79.6076347 171.728868,76.0464495 C175.368686,72.4852643 178.251465,68.2403975 180.377206,63.3091032 C182.500205,58.3805547 183.561704,52.8095102 183.561704,46.6042068 L183.561704,46.0550649 C183.561704,40.0309783 182.500205,34.5066109 180.377206,29.487454 C178.251465,24.4628056 175.368686,20.1740074 171.728868,16.615568 C168.086308,13.0543828 163.889683,10.3141647 159.136251,8.39765952 C154.385563,6.48115431 149.272812,5.5229017 143.811714,5.5229017" id="Fill-8"></path>
                                                    </g>
                                                    <g id="Group" transform="translate(379.423335, 92.865091) rotate(90.000000) translate(-379.423335, -92.865091) translate(287.423335, -30.134909)">
                                                        <path d="M0,136.137948 C0,139.294728 3.21394706,141.628599 6.66514685,141.053388 C27.2371668,137.618635 44.1207341,130.440882 57.3130902,119.520129 C71.8986164,107.432441 79.1955177,91.4008415 79.1955177,71.4033135 C79.1955177,51.4057856 72.0089666,35.2585937 57.6579343,22.9727467 C44.6835197,11.8675959 27.7420185,4.25224227 6.83894828,0.121181248 C3.33809093,-0.569622428 0,1.77800919 0,5.00084227 L0,136.137948 Z" id="Fill-1"></path>
                                                        <path d="M39.7486127,239.32574 C45.2095213,239.32574 50.3166091,238.367488 55.072619,236.450983 C59.8231432,234.534477 63.9702521,231.794259 67.5139457,228.233074 C71.0494109,224.674635 73.8854629,220.385836 76.0083877,215.361188 C78.1340553,210.342031 79.1955177,204.817664 79.1955177,198.793577 L79.1955177,198.244435 C79.1955177,192.217603 78.1340553,186.698727 76.0083877,181.674079 C73.8854629,176.654922 71.0494109,172.363378 67.5139457,168.802193 C63.9702521,165.241007 59.8231432,162.503535 55.072619,160.584284 C50.3166091,158.670525 45.2095213,157.709526 39.7486127,157.709526 C34.287704,157.709526 29.1778734,158.670525 24.4273492,160.584284 C19.6713394,162.503535 15.4748601,165.241007 11.8324258,168.802193 C8.19273434,172.363378 5.3100548,176.608245 3.1843872,181.539539 C1.0614624,186.468087 0,192.039132 0,198.244435 L0,198.793577 C0,204.817664 1.0614624,210.342031 3.1843872,215.361188 C5.3100548,220.385836 8.19273434,224.674635 11.8324258,228.233074 C15.4748601,231.794259 19.6713394,234.534477 24.4273492,236.450983 C29.1778734,238.367488 34.287704,239.32574 39.7486127,239.32574" id="Fill-4"></path>
                                                        <path d="M183.561704,109.32435 C183.561704,106.16757 180.347757,103.833699 176.896557,104.40891 C156.321778,107.843663 139.44097,115.021416 126.248614,125.942169 C111.660329,138.029857 104.366186,154.061456 104.366186,174.058984 C104.366186,194.056512 111.552737,210.203704 125.90377,222.489551 C138.875425,233.594702 155.819685,241.210056 176.722756,245.341117 C180.220854,246.03192 183.561704,243.684289 183.561704,240.461456 L183.561704,109.32435 Z" id="Fill-6"></path>
                                                    </g>
                                                </g>
                                            </g>
                                        </g>
                                        <g id="Group-15" transform="translate(0.000000, 415.123434)">
                                            <g id="Group-14">
                                                <g id="Group-13" fill="#FFFFFF">
                                                    <g id="Group" transform="translate(123.419219, 92.865091) rotate(90.000000) translate(-123.419219, -92.865091) translate(31.419219, -30.134909)">
                                                        <path d="M0,136.137948 C0,139.294728 3.21394706,141.628599 6.66514685,141.053388 C27.2371668,137.618635 44.1207341,130.440882 57.3130902,119.520129 C71.8986164,107.432441 79.1955177,91.4008415 79.1955177,71.4033135 C79.1955177,51.4057856 72.0089666,35.2585937 57.6579343,22.9727467 C44.6835197,11.8675959 27.7420185,4.25224227 6.83894828,0.121181248 C3.33809093,-0.569622428 0,1.77800919 0,5.00084227 L0,136.137948 Z" id="Fill-1"></path>
                                                        <path d="M39.7486127,239.32574 C45.2095213,239.32574 50.3166091,238.367488 55.072619,236.450983 C59.8231432,234.534477 63.9702521,231.794259 67.5139457,228.233074 C71.0494109,224.674635 73.8854629,220.385836 76.0083877,215.361188 C78.1340553,210.342031 79.1955177,204.817664 79.1955177,198.793577 L79.1955177,198.244435 C79.1955177,192.217603 78.1340553,186.698727 76.0083877,181.674079 C73.8854629,176.654922 71.0494109,172.363378 67.5139457,168.802193 C63.9702521,165.241007 59.8231432,162.503535 55.072619,160.584284 C50.3166091,158.670525 45.2095213,157.709526 39.7486127,157.709526 C34.287704,157.709526 29.1778734,158.670525 24.4273492,160.584284 C19.6713394,162.503535 15.4748601,165.241007 11.8324258,168.802193 C8.19273434,172.363378 5.3100548,176.608245 3.1843872,181.539539 C1.0614624,186.468087 0,192.039132 0,198.244435 L0,198.793577 C0,204.817664 1.0614624,210.342031 3.1843872,215.361188 C5.3100548,220.385836 8.19273434,224.674635 11.8324258,228.233074 C15.4748601,231.794259 19.6713394,234.534477 24.4273492,236.450983 C29.1778734,238.367488 34.287704,239.32574 39.7486127,239.32574" id="Fill-4"></path>
                                                        <path d="M143.811714,5.5229017 C138.350617,5.5229017 133.243352,6.48115431 128.48992,8.39765952 C123.736489,10.3141647 119.589236,13.0543828 116.04542,16.615568 C112.509832,20.1740074 109.676425,24.4628056 107.550684,29.487454 C105.427685,34.5066109 104.366186,40.0309783 104.366186,46.0550649 L104.366186,46.6042068 C104.366186,52.6310391 105.427685,58.1499151 107.550684,63.1745635 C109.676425,68.1937204 112.509832,72.4852643 116.04542,76.0464495 C119.589236,79.6076347 123.736489,82.345107 128.48992,84.2643579 C133.243352,86.1781174 138.350617,87.1391157 143.811714,87.1391157 C149.272812,87.1391157 154.385563,86.1781174 159.136251,84.2643579 C163.889683,82.345107 168.086308,79.6076347 171.728868,76.0464495 C175.368686,72.4852643 178.251465,68.2403975 180.377206,63.3091032 C182.500205,58.3805547 183.561704,52.8095102 183.561704,46.6042068 L183.561704,46.0550649 C183.561704,40.0309783 182.500205,34.5066109 180.377206,29.487454 C178.251465,24.4628056 175.368686,20.1740074 171.728868,16.615568 C168.086308,13.0543828 163.889683,10.3141647 159.136251,8.39765952 C154.385563,6.48115431 149.272812,5.5229017 143.811714,5.5229017" id="Fill-8"></path>
                                                    </g>
                                                </g>
                                                <g id="Group-13" transform="translate(57.094443, 213.552199)">
                                                    <g id="Group" transform="translate(123.419219, 92.865091) rotate(90.000000) translate(-123.419219, -92.865091) translate(31.419219, -30.134909)"></g>
                                                </g>
                                            </g>
                                        </g>
                                    </g>
                                    <g id="Group-16" transform="translate(1227.246357, 1293.073554) rotate(140.000000) translate(-1227.246357, -1293.073554) translate(690.746357, 885.573554)" fill="#FFFFFF">
                                        <g id="Group-15" transform="translate(0.000000, 415.123434)">
                                            <g id="Group-14">
                                                <g id="Group-13">
                                                    <g id="Group" transform="translate(123.419219, 92.865091) rotate(90.000000) translate(-123.419219, -92.865091) translate(31.419219, -30.134909)">
                                                        <path d="M183.561704,109.32435 C183.561704,106.16757 180.347757,103.833699 176.896557,104.40891 C156.321778,107.843663 139.44097,115.021416 126.248614,125.942169 C111.660329,138.029857 104.366186,154.061456 104.366186,174.058984 C104.366186,194.056512 111.552737,210.203704 125.90377,222.489551 C138.875425,233.594702 155.819685,241.210056 176.722756,245.341117 C180.220854,246.03192 183.561704,243.684289 183.561704,240.461456 L183.561704,109.32435 Z" id="Fill-6"></path>
                                                    </g>
                                                </g>
                                                <g id="Group-13" transform="translate(57.094443, 213.552199)">
                                                    <g id="Group" transform="translate(123.419219, 92.865091) rotate(90.000000) translate(-123.419219, -92.865091) translate(31.419219, -30.134909)">
                                                        <path d="M0,136.137948 C0,139.294728 3.21394706,141.628599 6.66514685,141.053388 C27.2371668,137.618635 44.1207341,130.440882 57.3130902,119.520129 C71.8986164,107.432441 79.1955177,91.4008415 79.1955177,71.4033135 C79.1955177,51.4057856 72.0089666,35.2585937 57.6579343,22.9727467 C44.6835197,11.8675959 27.7420185,4.25224227 6.83894828,0.121181248 C3.33809093,-0.569622428 0,1.77800919 0,5.00084227 L0,136.137948 Z" id="Fill-1"></path>
                                                        <path d="M39.7486127,239.32574 C45.2095213,239.32574 50.3166091,238.367488 55.072619,236.450983 C59.8231432,234.534477 63.9702521,231.794259 67.5139457,228.233074 C71.0494109,224.674635 73.8854629,220.385836 76.0083877,215.361188 C78.1340553,210.342031 79.1955177,204.817664 79.1955177,198.793577 L79.1955177,198.244435 C79.1955177,192.217603 78.1340553,186.698727 76.0083877,181.674079 C73.8854629,176.654922 71.0494109,172.363378 67.5139457,168.802193 C63.9702521,165.241007 59.8231432,162.503535 55.072619,160.584284 C50.3166091,158.670525 45.2095213,157.709526 39.7486127,157.709526 C34.287704,157.709526 29.1778734,158.670525 24.4273492,160.584284 C19.6713394,162.503535 15.4748601,165.241007 11.8324258,168.802193 C8.19273434,172.363378 5.3100548,176.608245 3.1843872,181.539539 C1.0614624,186.468087 0,192.039132 0,198.244435 L0,198.793577 C0,204.817664 1.0614624,210.342031 3.1843872,215.361188 C5.3100548,220.385836 8.19273434,224.674635 11.8324258,228.233074 C15.4748601,231.794259 19.6713394,234.534477 24.4273492,236.450983 C29.1778734,238.367488 34.287704,239.32574 39.7486127,239.32574" id="Fill-4"></path>
                                                        <path d="M183.561704,109.32435 C183.561704,106.16757 180.347757,103.833699 176.896557,104.40891 C156.321778,107.843663 139.44097,115.021416 126.248614,125.942169 C111.660329,138.029857 104.366186,154.061456 104.366186,174.058984 C104.366186,194.056512 111.552737,210.203704 125.90377,222.489551 C138.875425,233.594702 155.819685,241.210056 176.722756,245.341117 C180.220854,246.03192 183.561704,243.684289 183.561704,240.461456 L183.561704,109.32435 Z" id="Fill-6"></path>
                                                        <path d="M143.811714,5.5229017 C138.350617,5.5229017 133.243352,6.48115431 128.48992,8.39765952 C123.736489,10.3141647 119.589236,13.0543828 116.04542,16.615568 C112.509832,20.1740074 109.676425,24.4628056 107.550684,29.487454 C105.427685,34.5066109 104.366186,40.0309783 104.366186,46.0550649 L104.366186,46.6042068 C104.366186,52.6310391 105.427685,58.1499151 107.550684,63.1745635 C109.676425,68.1937204 112.509832,72.4852643 116.04542,76.0464495 C119.589236,79.6076347 123.736489,82.345107 128.48992,84.2643579 C133.243352,86.1781174 138.350617,87.1391157 143.811714,87.1391157 C149.272812,87.1391157 154.385563,86.1781174 159.136251,84.2643579 C163.889683,82.345107 168.086308,79.6076347 171.728868,76.0464495 C175.368686,72.4852643 178.251465,68.2403975 180.377206,63.3091032 C182.500205,58.3805547 183.561704,52.8095102 183.561704,46.6042068 L183.561704,46.0550649 C183.561704,40.0309783 182.500205,34.5066109 180.377206,29.487454 C178.251465,24.4628056 175.368686,20.1740074 171.728868,16.615568 C168.086308,13.0543828 163.889683,10.3141647 159.136251,8.39765952 C154.385563,6.48115431 149.272812,5.5229017 143.811714,5.5229017" id="Fill-8"></path>
                                                    </g>
                                                </g>
                                            </g>
                                        </g>
                                    </g>
                                </g>
                            </g>
                        </g>
                    </g>
                </g>
            </g>
        </g>
    </g>
</svg>