<?xml version="1.0" encoding="UTF-8"?>
<svg width="100px" height="100px" viewBox="0 0 100 100" version="1.1" xmlns="http://www.w3.org/2000/svg" xmlns:xlink="http://www.w3.org/1999/xlink">
    <!-- Generator: Sketch 51.3 (57544) - http://www.bohemiancoding.com/sketch -->
    <title>icon-personal</title>
    <desc>Created with Sketch.</desc>
    <defs></defs>
    <g id="Home" stroke="none" stroke-width="1" fill="none" fill-rule="evenodd">
        <g id="icon-personal">
            <rect id="Rectangle-9" fill="#FFFFFF" x="0" y="0" width="100" height="100"></rect>
            <g transform="translate(8.000000, 12.000000)">
                <g id="Group-176" stroke="#40CC79" stroke-linecap="round" stroke-linejoin="round" stroke-width="2.5">
                    <g id="Group-673" transform="translate(24.000000, 0.000000)">
                        <path d="M22.7523273,20.8730087 C21.6068727,23.743592 18.4094182,25.1201291 15.6079636,23.9450365 C12.8097818,22.7665865 11.4712364,19.4897569 12.6166909,16.6158161 C13.7621455,13.7452328 16.9596,12.3720531 19.7577818,13.5471457 C22.5559636,14.7222383 23.8977818,18.0057828 22.7523273,20.8730087 Z" id="Stroke-862"></path>
                        <path d="M28.638,26.8599376 L33.4587273,28.1659691 C34.3063636,26.6618506 34.9314545,25.124158 35.37,23.3783061 L31.0369091,20.8401061 C31.2561818,19.3930635 31.2430909,17.9493783 31.0205455,16.5426246 L35.334,13.9674931 C34.902,12.2921469 34.2441818,10.6873061 33.3867273,9.19661722 L28.5725455,10.546295 C27.7510909,9.39806167 26.7561818,8.370695 25.5976364,7.5111987 L26.8707273,2.569095 C25.3718182,1.67266722 23.8729091,1.04818944 22.2070909,0.608369074 L19.7361818,5.04686167 C18.3223636,4.82527278 16.9085455,4.835345 15.5372727,5.06700611 L13.0270909,0.638585741 C11.4725455,1.06161907 9.87218182,1.73310056 8.37654545,2.63624315 L9.69218182,7.57498944 C8.56963636,8.4176987 7.56818182,9.44506537 6.73036364,10.6335876 L1.90963636,9.32755611 C1.098,10.7645265 0.433636364,12.3827969 0.00163636364,14.1118617 L4.33145455,16.6467043 C4.11218182,18.1004617 4.12854545,19.5508617 4.35109091,20.9609728 L0.0376363636,23.5327469 C0.453272727,25.1375876 1.10781818,26.7827172 1.98818182,28.3036228 L6.80236364,26.9505876 C7.62381818,28.1021783 8.622,29.129545 9.78381818,29.9890413 L8.51072727,34.931145 C9.99654545,35.8175006 11.4954545,36.4453357 13.1743636,36.8885135 L15.6485455,32.4466635 C17.0590909,32.664895 18.4729091,32.6548228 19.8409091,32.4231617 L22.3510909,36.8482246 C23.9841818,36.4050469 25.5485455,35.730208 27.0016364,34.8472098 L25.686,29.9084635 C26.8052727,29.0657543 27.8034545,28.0484598 28.638,26.8599376 Z" id="Stroke-863"></path>
                    </g>
                    <path d="M54.8630645,56.411725 L69.0739645,50.0882629 C74.2325113,47.7935903 77.4756903,55.1726018 72.5926644,57.3427065 C51.0090923,66.9475503 52.7086907,67 44.1277104,67 C39.1517377,67 31.7823852,66.2296456 22.3516057,62.1156255 C19.4005452,60.8306088 13.7341106,62.9056485 6.85936783,64.6266529 C4.698355,65.16754 2.49086878,63.9120263 1.89335371,61.8074837 C1.4684541,60.2962779 -0.251061481,55.0742587 0.0310984119,53.6777865 C0.382968396,51.9600602 1.76057258,50.7274932 3.41701713,50.468523 C8.83448708,49.6227722 25.2628319,46.4364554 34.0197472,48.9442048 L52.2572349,54.166224 C57.4589355,55.6577612 55.155183,63.364583 49.9568019,61.8730458 L30.7931658,56.3822221" id="Stroke-864"></path>
                </g>
                <path d="M63,34.2330961 C63,32.8240271 62.0260215,31.7822743 60.9801442,32.0390271 C54.7450099,33.5721727 49.6293239,36.776054 45.6314139,41.6506709 C41.2104713,47.0461642 39,54.2020724 39,63.1282232 C39,72.054374 41.177866,79.2618784 45.5269098,84.7458225 C49.4579371,89.7027477 54.5928519,93.1019576 60.9274741,94.9459092 C61.987564,95.2542582 63,94.206363 63,92.7678105 L63,34.2330961 Z" id="Fill-6" fill-opacity="0.22486413" fill="#40CC79" transform="translate(51.000000, 63.500000) scale(-1, -1) rotate(90.000000) translate(-51.000000, -63.500000) "></path>
            </g>
        </g>
    </g>
</svg>