<?xml version="1.0" encoding="UTF-8"?>
<svg width="100px" height="100px" viewBox="0 0 100 100" version="1.1" xmlns="http://www.w3.org/2000/svg" xmlns:xlink="http://www.w3.org/1999/xlink">
    <!-- Generator: Sketch 51.3 (57544) - http://www.bohemiancoding.com/sketch -->
    <title>icon-early</title>
    <desc>Created with Sketch.</desc>
    <defs></defs>
    <g id="Home" stroke="none" stroke-width="1" fill="none" fill-rule="evenodd">
        <g id="icon-early">
            <rect id="Rectangle-9" fill="#FFFFFF" x="0" y="0" width="100" height="100"></rect>
            <g transform="translate(17.000000, 11.000000)">
                <path d="M44,35.2330961 C44,33.8240271 43.0260215,32.7822743 41.9801442,33.0390271 C35.7450099,34.5721727 30.6293239,37.776054 26.6314139,42.6506709 C22.2104713,48.0461642 20,55.2020724 20,64.1282232 C20,73.054374 22.177866,80.2618784 26.5269098,85.7458225 C30.4579371,90.7027477 35.5928519,94.1019576 41.9274741,95.9459092 C42.987564,96.2542582 44,95.206363 44,93.7678105 L44,35.2330961 Z" id="Fill-6" fill-opacity="0.155230978" fill="#FF5071" transform="translate(32.000000, 64.500000) scale(-1, 1) rotate(90.000000) translate(-32.000000, -64.500000) "></path>
                <g id="Group-12" transform="translate(9.000000, 0.000000)" stroke="#FF5071" stroke-linecap="round" stroke-linejoin="round" stroke-width="2.5">
                    <g id="Group-11" transform="translate(0.000000, 10.000000)">
                        <path d="M43.9384615,15.5076923 C43.9384615,24.0735478 36.9966248,31.0153846 28.4307692,31.0153846 C19.8649137,31.0153846 12.9230769,24.0735478 12.9230769,15.5076923 C12.9230769,6.94183678 19.8649137,0 28.4307692,0 C36.9966248,0 43.9384615,6.94183678 43.9384615,15.5076923 Z" id="Stroke-2687"></path>
                        <path d="M23.2615385,20.5377503 C24.5130014,21.6015387 26.4460012,22.4 27.8399457,22.4 C30.069782,22.4 31.8769231,20.8576307 31.8769231,18.9532262 C31.8769231,17.0513014 29.946298,16.1090179 27.8399457,15.5089322 C25.6552286,14.8394149 23.8005937,13.9665629 23.8005937,12.0621584 C23.8005937,10.1602336 25.6077347,8.61538462 27.8399457,8.61538462 C29.3407514,8.61538462 30.6515817,9.31713784 31.3473666,10.3536497" id="Stroke-2688"></path>
                        <path d="M28.4307692,6.89230769 L28.4307692,24.1230769" id="Stroke-2689"></path>
                        <path d="M34.4615385,55.1384615 L54.829484,55.1384615 C55.4752025,55.1384615 56,54.6147943 56,53.9674833 L56,47.356184 C56,47.0385894 55.8718237,46.7331169 55.644492,46.5124978 C50.519857,41.5255367 36.3720914,36.1846154 36.3720914,36.1846154 C36.3575809,36.1846154 36.3382335,36.1894642 36.323723,36.1894642" id="Stroke-2690"></path>
                        <path d="M19.822298,36.1894642 C19.7979552,36.1894642 19.778481,36.1846154 19.7565725,36.1846154 C19.7565725,36.1846154 5.63047712,41.414015 0.357838364,46.5124978 C0.129016553,46.7355413 0,47.0361651 0,47.356184 L0,53.9650589 C0,54.6147943 0.528237585,55.1384615 1.1781889,55.1384615 L21.5384615,55.1384615" id="Stroke-2691"></path>
                        <path d="M32.2095852,38.0480952 C33.6035226,38.6946588 31.9108844,42.1315253 30.932639,43.881918 C28.9836159,43.5992 26.9698742,43.6188674 25.0258294,43.9384615 C24.0450949,42.200361 22.4843829,38.9872104 23.7140348,38.0480952 C23.7140348,38.0480952 27.3482287,35.7937271 32.2095852,38.0480952 Z" id="Stroke-2692"></path>
                        <polyline id="Stroke-2693" points="30.1538462 47.3846154 30.2081231 47.9377579 30.8620308 56"></polyline>
                        <path d="M24.9846154,55.1384615 L25.6876308,47.3846154" id="Stroke-2694"></path>
                    </g>
                    <g id="Group-672" transform="translate(29.000000, 4.000000) rotate(90.000000) translate(-29.000000, -4.000000) translate(25.000000, -10.000000)">
                        <path d="M5.33333333,0 L8,2.30872727" id="Stroke-1060"></path>
                        <path d="M0,18.2687273 L3.55555556,17.8181818" id="Stroke-1061"></path>
                        <path d="M3.55555556,27.2923636 L7.11111111,25.4545455" id="Stroke-1062"></path>
                        <path d="M0.888888889,8.48484848 L4.44444444,9.49284848" id="Stroke-1063"></path>
                    </g>
                </g>
            </g>
        </g>
    </g>
</svg>