<?xml version="1.0" encoding="UTF-8"?>
<svg width="137px" height="32px" viewBox="0 0 137 32" version="1.1" xmlns="http://www.w3.org/2000/svg" xmlns:xlink="http://www.w3.org/1999/xlink">
    <!-- Generator: Sketch 51.3 (57544) - http://www.bohemiancoding.com/sketch -->
    <title>Logo</title>
    <desc>Created with Sketch.</desc>
    <defs></defs>
    <g id="Symbols" stroke="none" stroke-width="1" fill="none" fill-rule="evenodd">
        <g id="footer" transform="translate(-152.000000, -59.000000)" fill="#FFFFFF">
            <g id="Group-6">
                <g id="spec-/-logo-/-logo-white" transform="translate(145.000000, 55.000000)">
                    <g id="Group-29" transform="translate(7.645570, 3.809524)">
                        <g id="spec-/-logo-/-icon-/-white">
                            <g id="Group">
                                <path d="M0.0605912059,17.7459692 C0.0605912059,18.1493099 0.482520404,18.4475077 0.935596307,18.3740132 C3.63630535,17.935156 5.85279178,17.0180571 7.58469343,15.6227165 C9.49949143,14.0782769 10.4574337,12.0299253 10.4574337,9.47484835 C10.4574337,6.91977143 9.51397827,4.85665055 7.6299648,3.28689231 C5.92667466,1.86799121 3.70258264,0.89498022 0.958413079,0.367156044 C0.498818098,0.278892308 0.0605912059,0.578848352 0.0605912059,0.990628571 L0.0605912059,17.7459692 Z" id="Fill-1"></path>
                                <path d="M5.24858192,31.0358154 C5.96966435,31.0358154 6.64402673,30.9130901 7.27203122,30.6676396 C7.89931137,30.422189 8.4469139,30.071244 8.91483881,29.615156 C9.38167721,29.1594198 9.75616201,28.6101451 10.0364824,27.9666286 C10.3171649,27.3238154 10.457325,26.6162989 10.457325,25.8447824 L10.457325,25.7744527 C10.457325,25.0025846 10.3171649,24.2957714 10.0364824,23.6522549 C9.75616201,23.0094418 9.38167721,22.4598154 8.91483881,22.0037275 C8.4469139,21.5476396 7.89931137,21.1970462 7.27203122,20.951244 C6.64402673,20.7061451 5.96966435,20.5830681 5.24858192,20.5830681 C4.52749949,20.5830681 3.85277494,20.7061451 3.2254948,20.951244 C2.59749031,21.1970462 2.0433687,21.5476396 1.56240563,22.0037275 C1.08180473,22.4598154 0.701163028,23.0034637 0.420480514,23.6350242 C0.140160171,24.266233 0,24.9797275 0,25.7744527 L0,25.8447824 C0,26.6162989 0.140160171,27.3238154 0.420480514,27.9666286 C0.701163028,28.6101451 1.08180473,29.1594198 1.56240563,29.615156 C2.0433687,30.071244 2.59749031,30.422189 3.2254948,30.6676396 C3.85277494,30.9130901 4.52749949,31.0358154 5.24858192,31.0358154" id="Fill-4"></path>
                                <path d="M24.1594848,14.3448967 C24.1594848,13.941556 23.7375556,13.6433582 23.2844797,13.7168527 C20.5834085,14.1557099 18.3672842,15.0728088 16.6353826,16.4681495 C14.7202224,18.012589 13.7626423,20.0609407 13.7626423,22.6160176 C13.7626423,25.1710945 14.7060977,27.2342154 16.5901112,28.8039736 C18.2930392,30.2228747 20.5174934,31.1958857 23.2616629,31.7237099 C23.7208957,31.8119736 24.1594848,31.5120176 24.1594848,31.1002374 L24.1594848,14.3448967 Z" id="Fill-6"></path>
                                <path d="M18.971313,1.05505055 C18.2502306,1.05505055 17.5758682,1.17777582 16.9482259,1.42322637 C16.3205836,1.66867692 15.772981,2.01962198 15.3050561,2.47570989 C14.8382177,2.93144615 14.4640951,3.48072088 14.1834126,4.12423736 C13.9030922,4.76705055 13.7629321,5.47456703 13.7629321,6.24608352 L13.7629321,6.31641319 C13.7629321,7.08828132 13.9030922,7.79509451 14.1834126,8.43861099 C14.4640951,9.08142418 14.8382177,9.63105055 15.3050561,10.0871385 C15.772981,10.5432264 16.3205836,10.8938198 16.9482259,11.139622 C17.5758682,11.3847209 18.2502306,11.5077978 18.971313,11.5077978 C19.6923954,11.5077978 20.3674821,11.3847209 20.9947623,11.139622 C21.6224046,10.8938198 22.1765262,10.5432264 22.6574893,10.0871385 C23.1380902,9.63105055 23.5187319,9.0874022 23.7994144,8.45584176 C24.0797347,7.82463297 24.2198949,7.11113846 24.2198949,6.31641319 L24.2198949,6.24608352 C24.2198949,5.47456703 24.0797347,4.76705055 23.7994144,4.12423736 C23.5187319,3.48072088 23.1380902,2.93144615 22.6574893,2.47570989 C22.1765262,2.01962198 21.6224046,1.66867692 20.9947623,1.42322637 C20.3674821,1.17777582 19.6923954,1.05505055 18.971313,1.05505055" id="Fill-8"></path>
                            </g>
                        </g>
                        <path d="M46.7493627,21.6393009 C47.5125001,21.6393009 48.1111309,21.5026604 48.5452553,21.2286677 C48.9790197,20.9550309 49.1964419,20.5298085 49.1964419,19.9526447 L49.1964419,19.9081654 C49.1964419,19.390426 48.9941385,18.9801486 48.5902516,18.6766217 C48.1860048,18.3734505 47.5351782,18.221865 46.6370519,18.221865 L42.8202852,18.221865 C42.7212934,18.221865 42.6410199,18.3012161 42.6410199,18.3994265 L42.6410199,21.4617394 C42.6410199,21.5595939 42.7212934,21.6393009 42.8202852,21.6393009 L46.7493627,21.6393009 Z M45.8289183,15.381237 C46.5920556,15.381237 47.1982459,15.2517132 47.647489,14.9926656 C48.0963722,14.7339738 48.3206338,14.3158681 48.3206338,13.7387043 L48.3206338,13.6945808 C48.3206338,13.1768414 48.1262497,12.7811533 47.7371216,12.5071606 C47.3476336,12.2335238 46.7864397,12.0968833 46.0531799,12.0968833 L42.8202852,12.0968833 C42.7212934,12.0968833 42.6410199,12.1762344 42.6410199,12.2744448 L42.6410199,15.2036756 C42.6410199,15.3015301 42.7212934,15.381237 42.8202852,15.381237 L45.8289183,15.381237 Z M39.2734964,9.27831711 C39.2734964,9.18010675 39.3537698,9.10075563 39.4531216,9.10075563 L46.5567785,9.10075563 C48.3641902,9.10075563 49.731358,9.55942648 50.6575619,10.4767682 C51.3746231,11.1866583 51.7331536,12.067349 51.7331536,13.1174171 L51.7331536,13.1618964 C51.7331536,14.0347588 51.5322901,14.7339738 51.1309231,15.2588299 C50.8008302,15.6904574 50.4160218,16.0494945 49.9761379,16.3359414 C49.8569876,16.4135133 49.8699466,16.5889398 50.0002559,16.646585 C50.3231494,16.7889189 50.6226448,16.9440628 50.8991021,17.1120167 C51.2641121,17.3340576 51.5733268,17.5970194 51.826386,17.8998346 C52.0798052,18.2033616 52.2734693,18.5545704 52.4073783,18.9541727 C52.5412873,19.3534192 52.6086018,19.8124458 52.6086018,20.3298294 L52.6086018,20.3743087 C52.6086018,21.0845547 52.4707331,21.705842 52.1939158,22.2385264 C51.9178185,22.7712109 51.521491,23.2149367 51.0060133,23.5700597 C50.4905356,23.9251826 49.8706665,24.1913469 49.145686,24.3689084 C48.4210655,24.5464699 47.6183314,24.6350727 46.7367638,24.6350727 L39.4531216,24.6350727 C39.3537698,24.6350727 39.2734964,24.5557216 39.2734964,24.4575113 L39.2734964,9.27831711 Z" id="Fill-10"></path>
                        <path d="M54.5173811,12.7401256 L57.5706505,12.7401256 C57.6696424,12.7401256 57.7502757,12.8198325 57.7502757,12.9176871 L57.7502757,24.4577603 C57.7502757,24.5556149 57.6696424,24.6353218 57.5706505,24.6353218 L54.5173811,24.6353218 C54.4183892,24.6353218 54.3377559,24.5556149 54.3377559,24.4577603 L54.3377559,12.9176871 C54.3377559,12.8198325 54.4183892,12.7401256 54.5173811,12.7401256" id="Fill-12"></path>
                        <path d="M60.2222288,12.7401256 L63.2754982,12.7401256 C63.3744901,12.7401256 63.4547635,12.8198325 63.4547635,12.9176871 L63.4547635,14.3687807 C63.4547635,14.5509681 63.6984635,14.6139508 63.789896,14.4559602 C64.0875916,13.9410675 64.4515217,13.5133543 64.8806065,13.1728205 C65.4511596,12.7205547 66.1973784,12.5006489 67.1192627,12.5131031 C67.2164547,12.5145264 67.2938484,12.5949451 67.2938484,12.6910204 L67.2938484,15.8693354 C67.2938484,15.96719 67.213575,16.0468969 67.1142231,16.0468969 C65.9767165,16.0468969 65.0825499,16.3874307 64.4313634,17.0677865 C63.7805368,17.7484982 63.4547635,18.8063946 63.4547635,20.2411198 L63.4547635,24.4577603 C63.4547635,24.5556149 63.3744901,24.6353218 63.2754982,24.6353218 L60.2222288,24.6353218 C60.122877,24.6353218 60.0426036,24.5556149 60.0426036,24.4577603 L60.0426036,12.9176871 C60.0426036,12.8198325 60.122877,12.7401256 60.2222288,12.7401256" id="Fill-14"></path>
                        <path d="M74.5677713,21.9942459 C74.9720182,21.9942459 75.3496272,21.916674 75.7013183,21.7611743 C76.0526495,21.6060304 76.3600642,21.3839895 76.6221227,21.0954076 C76.8834613,20.8071816 77.093324,20.459887 77.2506311,20.0524563 C77.4075782,19.6457373 77.4860518,19.1980973 77.4860518,18.7098922 L77.4860518,18.6657687 C77.4860518,18.1772077 77.4075782,17.7299236 77.2506311,17.3228488 C77.093324,16.9161298 76.8834613,16.5681235 76.6221227,16.2798974 C76.3600642,15.9913155 76.0526495,15.7696306 75.7013183,15.6141308 C75.3496272,15.4586311 74.9720182,15.3810591 74.5677713,15.3810591 C74.1635245,15.3810591 73.7855555,15.4586311 73.4338644,15.6141308 C73.0821733,15.7696306 72.7718787,15.9913155 72.5022609,16.2798974 C72.233003,16.5681235 72.0195405,16.9125714 71.8625934,17.3118179 C71.7052863,17.7110644 71.6268127,18.1626185 71.6268127,18.6657687 L71.6268127,18.7098922 C71.6268127,19.1980973 71.7052863,19.6457373 71.8625934,20.0524563 C72.0195405,20.459887 72.233003,20.8071816 72.5022609,21.0954076 C72.7718787,21.3839895 73.0821733,21.6060304 73.4338644,21.7611743 C73.7855555,21.916674 74.1635245,21.9942459 74.5677713,21.9942459 M73.6919632,24.8569356 C72.988581,24.8569356 72.3075169,24.7238535 71.6491309,24.4576892 C70.990385,24.1915249 70.4065129,23.7954809 69.8982346,23.270269 C69.3892364,22.7454129 68.9810299,22.101708 68.6746951,21.339866 C68.3676403,20.5780241 68.2142928,19.7012475 68.2142928,18.7098922 L68.2142928,18.6657687 C68.2142928,17.6744134 68.3676403,16.7979927 68.6746951,16.0357949 C68.9810299,15.2739529 69.3852767,14.630248 69.8870755,14.1050361 C70.3881544,13.58018 70.9680668,13.1841361 71.6268127,12.9179717 C72.2851987,12.6514516 72.9738222,12.5183694 73.6919632,12.5183694 C74.6048483,12.5183694 75.3568266,12.6959309 75.948258,13.0510539 C76.3985811,13.3214882 76.7949085,13.6260827 77.1365205,13.9655489 C77.2488313,14.0769252 77.4410555,13.9957949 77.4410555,13.8388718 L77.4410555,8.61272841 C77.4410555,8.51451805 77.5216889,8.43516693 77.6206807,8.43516693 L80.6739501,8.43516693 C80.773302,8.43516693 80.8535754,8.51451805 80.8535754,8.61272841 L80.8535754,24.4576892 C80.8535754,24.5555437 80.773302,24.6352507 80.6739501,24.6352507 L77.6206807,24.6352507 C77.5216889,24.6352507 77.4410555,24.5555437 77.4410555,24.4576892 L77.4410555,23.4275479 C77.4410555,23.2642198 77.2376722,23.1877153 77.1282412,23.3101224 C76.7776299,23.7026081 76.3766229,24.0370926 75.9259399,24.3135761 C75.3345084,24.6758158 74.5900895,24.8569356 73.6919632,24.8569356" id="Fill-16"></path>
                        <path d="M89.3974021,24.8571136 C88.1997804,24.8571136 87.0251968,24.6549995 85.8725714,24.2511272 C84.9503271,23.9283851 84.0953973,23.4665118 83.3077819,22.8658629 C82.9816487,22.6174903 82.9344926,22.1481444 83.1983509,21.8357216 L84.3250584,20.5038325 C84.5691184,20.2156065 84.9978432,20.1593846 85.3063379,20.3792904 C85.8549329,20.7703527 86.413967,21.0941622 86.9841602,21.350719 C87.7397382,21.6912527 88.5665903,21.8613417 89.4647166,21.8613417 C90.1832176,21.8613417 90.7404519,21.7314621 91.1371393,21.4720586 C91.5338267,21.2126552 91.7321704,20.853618 91.7321704,20.3942355 L91.7321704,20.3497561 C91.7321704,20.1273595 91.6907738,19.9312946 91.6083406,19.760494 C91.5255474,19.5900492 91.3682403,19.4306353 91.1356994,19.2822522 C90.9031585,19.134225 90.580265,18.9861978 90.1677389,18.8378148 C89.7548528,18.6897875 89.2184968,18.533932 88.558311,18.3709597 C87.7627763,18.1638639 87.0424754,17.9450256 86.3974083,17.7155123 C85.7519813,17.485999 85.2041063,17.1967054 84.7541432,16.8486991 C84.3038202,16.500337 83.9550088,16.0665746 83.7073491,15.5477677 C83.4596895,15.0289608 83.3358596,14.3845442 83.3358596,13.6138064 L83.3358596,13.5693271 C83.3358596,12.8580136 83.4697686,12.2175113 83.7372267,11.6467525 C84.0050447,11.0759937 84.3801339,10.5831627 84.8635742,10.1679037 C85.3470146,9.75335636 85.9240472,9.43488435 86.5950321,9.2124877 C87.2656571,8.99009105 88.0053964,8.87871481 88.81353,8.87871481 C89.9661554,8.87871481 91.0248285,9.04773626 91.9906292,9.38542334 C92.7256889,9.64269178 93.4153923,9.98536054 94.0593794,10.4127179 C94.3945119,10.6354704 94.4758652,11.0891596 94.2462041,11.4172391 L93.2559254,12.8327493 C93.0370633,13.1451722 92.6094184,13.238045 92.2814854,13.0405568 C91.7760868,12.7363182 91.2789676,12.4843872 90.7894078,12.2854757 C90.1159031,12.011483 89.4423984,11.8748425 88.7688937,11.8748425 C88.095389,11.8748425 87.5899904,12.0043663 87.2534181,12.2637698 C86.9168457,12.5231732 86.7483795,12.8455594 86.7483795,13.2309283 L86.7483795,13.2754076 C86.7483795,13.5273386 86.7969755,13.7461769 86.8945275,13.9312109 C86.9920795,14.1166007 87.1681051,14.2834872 87.4236841,14.4315144 C87.6785432,14.5798974 88.0277145,14.7204521 88.4701182,14.8535343 C88.9128819,14.9873281 89.471916,15.1428278 90.1472205,15.3203893 C90.9423953,15.5281968 91.6515371,15.7616243 92.2746459,16.0206719 C92.8973948,16.2800754 93.4222317,16.5914307 93.8502366,16.954382 C94.2778815,17.3176892 94.600775,17.7439791 94.8181971,18.2328959 C95.0356193,18.7218127 95.1446903,19.3071606 95.1446903,19.988584 L95.1446903,20.0330633 C95.1446903,20.8038012 95.003222,21.4894945 94.7210051,22.0897875 C94.4380683,22.6900806 94.0442607,23.1939424 93.5388622,23.6013731 C93.0331037,24.0088038 92.4294332,24.3201591 91.7289307,24.5350832 C91.0273483,24.7496515 90.2505321,24.8571136 89.3974021,24.8571136" id="Fill-18"></path>
                        <path d="M104.907413,17.755686 C105.020804,17.755686 105.104677,17.6528498 105.084158,17.5428969 C104.960689,16.8856703 104.70295,16.346225 104.310582,15.924561 C103.876098,15.4587734 103.300145,15.2257017 102.582004,15.2257017 C101.863503,15.2257017 101.28323,15.4555709 100.841907,15.9138859 C100.443059,16.3280774 100.169482,16.8693019 100.020814,17.5372036 C99.9959761,17.6489356 100.080569,17.755686 100.19612,17.755686 L104.907413,17.755686 Z M102.918576,24.9015573 C102.02045,24.9015573 101.186038,24.7535301 100.415342,24.4574757 C99.644285,24.1617771 98.9786996,23.740113 98.4175057,23.1928394 C97.8563118,22.6455657 97.4182277,21.9943883 97.1039735,21.2400188 C96.7897193,20.4852936 96.6327722,19.6569105 96.6327722,18.7545139 L96.6327722,18.7100345 C96.6327722,17.8667064 96.7785602,17.0675018 97.0704963,16.3131324 C97.3624323,15.558763 97.7699189,14.9004689 98.2936759,14.3382501 C98.8177928,13.7760314 99.4463013,13.3323056 100.179561,13.0063611 C100.912821,12.681484 101.713755,12.5185118 102.582004,12.5185118 C103.584522,12.5185118 104.45241,12.6957174 105.18603,13.0508404 C105.91929,13.4059634 106.52908,13.8831376 107.01576,14.4823632 C107.50208,15.0815887 107.861331,15.7694171 108.093511,16.5462041 C108.325332,17.3229911 108.441243,18.1328707 108.441243,18.9761988 C108.441243,19.109281 108.437643,19.2501915 108.430084,19.3978629 L108.414605,19.6956965 C108.409566,19.7899927 108.330732,19.8640063 108.23534,19.8640063 L100.250835,19.8640063 C100.132405,19.8640063 100.046372,19.9760942 100.077329,20.0892496 C100.256955,20.7475437 100.579488,21.2535406 101.04421,21.6058168 C101.560408,21.9979466 102.200075,22.1940115 102.963573,22.1940115 C103.531966,22.1940115 104.040964,22.0979362 104.490207,21.9057855 C104.901653,21.7292915 105.326059,21.4535196 105.762703,21.0781141 C105.831097,21.0190455 105.932969,21.017978 106.001003,21.0774024 L107.704383,22.5676379 C107.777097,22.6316881 107.786457,22.7419969 107.723462,22.8152988 C107.176667,23.447617 106.52584,23.946853 105.769902,24.3133626 C104.961409,24.7051366 104.010727,24.9015573 102.918576,24.9015573 Z" id="Fill-20"></path>
                        <path d="M118.059869,17.755686 C118.17326,17.755686 118.257133,17.6528498 118.236255,17.5428969 C118.113145,16.8856703 117.855406,16.346225 117.462678,15.924561 C117.028554,15.4587734 116.452601,15.2257017 115.7341,15.2257017 C115.015599,15.2257017 114.435687,15.4555709 113.994363,15.9138859 C113.595516,16.3280774 113.321578,16.8693019 113.173271,17.5372036 C113.148433,17.6489356 113.233026,17.755686 113.348576,17.755686 L118.059869,17.755686 Z M116.071033,24.9015573 C115.172906,24.9015573 114.338495,24.7535301 113.567798,24.4574757 C112.796741,24.1617771 112.131156,23.740113 111.569602,23.1928394 C111.008408,22.6455657 110.570684,21.9943883 110.25643,21.2400188 C109.942176,20.4852936 109.784869,19.6569105 109.784869,18.7545139 L109.784869,18.7100345 C109.784869,17.8667064 109.930657,17.0675018 110.222953,16.3131324 C110.514529,15.558763 110.922015,14.9004689 111.446132,14.3382501 C111.969889,13.7760314 112.598758,13.3323056 113.332017,13.0063611 C114.065277,12.681484 114.865852,12.5185118 115.7341,12.5185118 C116.736618,12.5185118 117.604867,12.6957174 118.338487,13.0508404 C119.071746,13.4059634 119.681536,13.8831376 120.167856,14.4823632 C120.654536,15.0815887 121.013427,15.7694171 121.245608,16.5462041 C121.477429,17.3229911 121.593699,18.1328707 121.593699,18.9761988 C121.593699,19.109281 121.58974,19.2501915 121.58254,19.3978629 L121.566702,19.6956965 C121.562022,19.7899927 121.483188,19.8640063 121.387436,19.8640063 L113.403292,19.8640063 C113.284861,19.8640063 113.198828,19.9760942 113.229786,20.0892496 C113.409411,20.7475437 113.731585,21.2535406 114.196307,21.6058168 C114.712864,21.9979466 115.352532,22.1940115 116.116029,22.1940115 C116.684422,22.1940115 117.193421,22.0979362 117.642304,21.9057855 C118.05411,21.7292915 118.478155,21.4535196 118.915159,21.0781141 C118.983554,21.0190455 119.085425,21.017978 119.1531,21.0774024 L120.85684,22.5676379 C120.929554,22.6316881 120.938913,22.7419969 120.875558,22.8152988 C120.329123,23.447617 119.677937,23.946853 118.922359,24.3133626 C118.113865,24.7051366 117.163183,24.9015573 116.071033,24.9015573 Z" id="Fill-22"></path>
                        <path d="M129.175217,21.9942459 C129.579464,21.9942459 129.957073,21.916674 130.308764,21.7611743 C130.660455,21.6060304 130.96751,21.3839895 131.229568,21.0954076 C131.491267,20.8071816 131.70077,20.459887 131.858077,20.0524563 C132.015384,19.6457373 132.093857,19.1980973 132.093857,18.7098922 L132.093857,18.6657687 C132.093857,18.1772077 132.015384,17.7299236 131.858077,17.3228488 C131.70077,16.9161298 131.491267,16.5681235 131.229568,16.2798974 C130.96751,15.9913155 130.660455,15.7696306 130.308764,15.6141308 C129.957073,15.4586311 129.579464,15.3810591 129.175217,15.3810591 C128.77097,15.3810591 128.393001,15.4586311 128.04167,15.6141308 C127.689979,15.7696306 127.379324,15.9913155 127.110067,16.2798974 C126.840449,16.5681235 126.626986,16.9125714 126.470039,17.3118179 C126.312732,17.7110644 126.234258,18.1626185 126.234258,18.6657687 L126.234258,18.7098922 C126.234258,19.1980973 126.312732,19.6457373 126.470039,20.0524563 C126.626986,20.459887 126.840449,20.8071816 127.110067,21.0954076 C127.379324,21.3839895 127.689979,21.6060304 128.04167,21.7611743 C128.393001,21.916674 128.77097,21.9942459 129.175217,21.9942459 M128.299769,24.8569356 C127.596027,24.8569356 126.915323,24.7238535 126.256937,24.4576892 C125.597831,24.1915249 125.014319,23.7954809 124.50568,23.270269 C123.996682,22.7454129 123.588836,22.101708 123.282141,21.339866 C122.975086,20.5780241 122.822099,19.7012475 122.822099,18.7098922 L122.822099,18.6657687 C122.822099,17.6744134 122.975086,16.7979927 123.282141,16.0357949 C123.588836,15.2739529 123.993082,14.630248 124.494521,14.1050361 C124.9956,13.58018 125.575513,13.1841361 126.234258,12.9179717 C126.892644,12.6514516 127.581268,12.5183694 128.299769,12.5183694 C129.212654,12.5183694 129.964632,12.6959309 130.555704,13.0510539 C130.809123,13.2029953 131.045264,13.3659676 131.264126,13.5399707 C131.57982,13.7904783 132.048861,13.5623883 132.048861,13.1620743 L132.048861,8.91518786 C132.048861,8.65009105 132.266283,8.43516693 132.534461,8.43516693 L134.975781,8.43516693 C135.243959,8.43516693 135.461381,8.65009105 135.461381,8.91518786 L135.461381,24.4576892 C135.461381,24.5555437 135.380748,24.6352507 135.281756,24.6352507 L132.534461,24.6352507 C132.266283,24.6352507 132.048861,24.4203265 132.048861,24.1552297 C132.048861,23.7406824 131.556422,23.5243349 131.240728,23.7972601 C131.020426,23.9872758 130.784645,24.1591439 130.533386,24.3135761 C129.941954,24.6758158 129.197535,24.8569356 128.299769,24.8569356" id="Fill-24"></path>
                        <path d="M56.0372124,7.57130717 C55.7938723,7.57130717 55.566371,7.61792151 55.3547084,7.71150602 C55.1430458,7.80509053 54.9583809,7.93888435 54.8007139,8.11253166 C54.6430468,8.28617896 54.5166972,8.4950539 54.4223849,8.74022397 C54.3277127,8.9850382 54.2805565,9.25440502 54.2805565,9.54832444 L54.2805565,9.57501204 C54.2805565,9.86928728 54.3277127,10.1382983 54.4223849,10.3834683 C54.5166972,10.6282826 54.6430468,10.8375133 54.8007139,11.0111606 C54.9583809,11.184808 55.1430458,11.3186018 55.3547084,11.4118305 C55.566371,11.505415 55.7938723,11.5523851 56.0372124,11.5523851 C56.2805524,11.5523851 56.5080537,11.505415 56.7197163,11.4118305 C56.931379,11.3186018 57.1182036,11.184808 57.2805503,11.0111606 C57.442537,10.8375133 57.5710465,10.6304176 57.6657187,10.3898734 C57.7603909,10.149685 57.807547,9.87782732 57.807547,9.57501204 L57.807547,9.54832444 C57.807547,9.25440502 57.7603909,8.9850382 57.6657187,8.74022397 C57.5710465,8.4950539 57.442537,8.28617896 57.2805503,8.11253166 C57.1182036,7.93888435 56.931379,7.80509053 56.7197163,7.71150602 C56.5080537,7.61792151 56.2805524,7.57130717 56.0372124,7.57130717" id="Fill-27"></path>
                    </g>
                </g>
            </g>
        </g>
    </g>
</svg>