<?xml version="1.0" encoding="UTF-8"?>
<svg width="190px" height="45px" viewBox="0 0 190 45" version="1.1" xmlns="http://www.w3.org/2000/svg" xmlns:xlink="http://www.w3.org/1999/xlink">
    <!-- Generator: Sketch 51.3 (57544) - http://www.bohemiancoding.com/sketch -->
    <title>Logo</title>
    <desc>Created with Sketch.</desc>
    <defs></defs>
    <g id="Symbols" stroke="none" stroke-width="1" fill="none" fill-rule="evenodd">
        <g id="header" transform="translate(-151.000000, -33.000000)">
            <g id="Group-7">
                <g id="spec-/-logo-/-logo" transform="translate(141.000000, 28.000000)">
                    <g id="Group-29" transform="translate(10.632911, 5.333333)">
                        <g id="Group-2" transform="translate(53.164557, 8.000000)">
                            <path d="M11.8511131,22.2950212 C12.9124299,22.2950212 13.7449629,22.1037245 14.348712,21.7201348 C14.9519605,21.3370432 15.2543357,20.7417319 15.2543357,19.9337026 L15.2543357,19.8714315 C15.2543357,19.1465963 14.9729866,18.5722081 14.4112897,18.1472703 C13.8490921,17.7228308 12.943969,17.510611 11.6949192,17.510611 L6.38683309,17.510611 C6.24916227,17.510611 6.13752376,17.6217026 6.13752376,17.7591971 L6.13752376,22.0464352 C6.13752376,22.1834315 6.24916227,22.2950212 6.38683309,22.2950212 L11.8511131,22.2950212 Z M10.5710247,13.5337319 C11.6323416,13.5337319 12.4753876,13.3523985 13.1001628,12.9897319 C13.7244374,12.6275634 14.0363244,12.0422154 14.0363244,11.2341861 L14.0363244,11.1724132 C14.0363244,10.447578 13.765989,9.89361465 13.2248175,9.51002491 C12.6831454,9.12693333 11.902677,8.93563663 10.8829117,8.93563663 L6.38683309,8.93563663 C6.24916227,8.93563663 6.13752376,9.04672821 6.13752376,9.18422271 L6.13752376,13.2851458 C6.13752376,13.4221421 6.24916227,13.5337319 6.38683309,13.5337319 L10.5710247,13.5337319 Z M1.45421281,4.98964396 C1.45421281,4.85214945 1.56585132,4.74105788 1.70402276,4.74105788 L11.5832807,4.74105788 C14.0968996,4.74105788 15.9982587,5.38319707 17.286357,6.66747546 C18.2835943,7.66132161 18.782213,8.89428864 18.782213,10.3643839 L18.782213,10.4266549 C18.782213,11.6486623 18.5028664,12.6275634 17.9446738,13.3623619 C17.4856042,13.9666403 16.9504402,14.4692923 16.3386811,14.8703179 C16.1729755,14.9789187 16.1909979,15.2245158 16.3722227,15.305219 C16.8212799,15.5044864 17.2377967,15.7216879 17.6222738,15.9568234 C18.1299036,16.2676806 18.5599372,16.6358271 18.9118739,17.0597685 C19.2643112,17.4847062 19.5336454,17.9763985 19.7198764,18.5358418 C19.9061075,19.0947868 19.9997237,19.7374242 19.9997237,20.4617612 L19.9997237,20.5240322 C19.9997237,21.5183766 19.8079858,22.3881788 19.4230081,23.133937 C19.0390317,23.8796952 18.4878478,24.5009114 17.7709583,24.9980835 C17.0540688,25.4952557 16.1919991,25.8678857 15.1837481,26.1164718 C14.1759977,26.3650579 13.0596125,26.4891018 11.8335913,26.4891018 L1.70402276,26.4891018 C1.56585132,26.4891018 1.45421281,26.3780103 1.45421281,26.2405158 L1.45421281,4.98964396 Z" id="Fill-10" fill="#424651"></path>
                            <path d="M30.5882116,9.83617582 L34.8344803,9.83617582 C34.9721511,9.83617582 35.0837896,9.94776557 35.0837896,10.0847619 L35.0837896,12.116293 C35.0837896,12.3713553 35.4227102,12.4595311 35.5498679,12.2383443 C35.9638816,11.5174945 36.4700096,10.918696 37.0667501,10.4419487 C37.8602346,9.80877656 38.8980223,9.50090842 40.1801131,9.51834432 C40.3152808,9.520337 40.4229143,9.63292308 40.4229143,9.76742857 L40.4229143,14.2170696 C40.4229143,14.3540659 40.3112758,14.4656557 40.1731044,14.4656557 C38.5911415,14.4656557 37.3475985,14.9424029 36.4419749,15.8949011 C35.5368518,16.8478974 35.0837896,18.3289524 35.0837896,20.3375678 L35.0837896,26.2408645 C35.0837896,26.3778608 34.9721511,26.4894505 34.8344803,26.4894505 L30.5882116,26.4894505 C30.4500402,26.4894505 30.3384017,26.3778608 30.3384017,26.2408645 L30.3384017,10.0847619 C30.3384017,9.94776557 30.4500402,9.83617582 30.5882116,9.83617582" id="Fill-14" fill="#424651"></path>
                            <path d="M50.5389661,22.7919443 C51.1011637,22.7919443 51.6263152,22.6833436 52.1154221,22.465644 C52.6040284,22.2484425 53.0315588,21.9375853 53.396011,21.5335707 C53.759462,21.1300542 54.0513241,20.6438418 54.2700956,20.0734388 C54.4883664,19.5040322 54.5975018,18.8773363 54.5975018,18.1938491 L54.5975018,18.1320762 C54.5975018,17.4480908 54.4883664,16.821893 54.2700956,16.2519883 C54.0513241,15.6825817 53.759462,15.1953729 53.396011,14.7918564 C53.0315588,14.3878418 52.6040284,14.0774828 52.1154221,13.8597832 C51.6263152,13.6420835 51.1011637,13.5334828 50.5389661,13.5334828 C49.9767685,13.5334828 49.4511163,13.6420835 48.9620094,13.8597832 C48.4729026,14.0774828 48.0413671,14.3878418 47.6664019,14.7918564 C47.2919372,15.1953729 46.9950689,15.6776 46.7767981,16.2365451 C46.5580266,16.7954901 46.4488912,17.4276659 46.4488912,18.1320762 L46.4488912,18.1938491 C46.4488912,18.8773363 46.5580266,19.5040322 46.7767981,20.0734388 C46.9950689,20.6438418 47.2919372,21.1300542 47.6664019,21.5335707 C48.0413671,21.9375853 48.4729026,22.2484425 48.9620094,22.465644 C49.4511163,22.6833436 49.9767685,22.7919443 50.5389661,22.7919443 M49.3209548,26.7997099 C48.3427411,26.7997099 47.3955658,26.6133949 46.4799297,26.2407648 C45.563793,25.8681348 44.7517855,25.3136733 44.0449084,24.5783766 C43.3370301,23.843578 42.7693257,22.9423912 42.3432971,21.8758125 C41.9162672,20.8092337 41.7030026,19.5817465 41.7030026,18.1938491 L41.7030026,18.1320762 C41.7030026,16.7441788 41.9162672,15.5171897 42.3432971,14.4501128 C42.7693257,13.3835341 43.3315233,12.4823473 44.0293891,11.7470505 C44.7262538,11.012252 45.5327545,10.4577905 46.4488912,10.0851604 C47.3645273,9.71203223 48.3222156,9.52571722 49.3209548,9.52571722 C50.5905301,9.52571722 51.6363277,9.7743033 52.4588482,10.2714755 C53.0851253,10.6500835 53.6363092,11.0765158 54.1113987,11.5517685 C54.2675925,11.7076952 54.5349242,11.5941128 54.5349242,11.3744205 L54.5349242,4.05781978 C54.5349242,3.92032527 54.6470633,3.8092337 54.7847341,3.8092337 L59.0310028,3.8092337 C59.1691743,3.8092337 59.2808128,3.92032527 59.2808128,4.05781978 L59.2808128,26.2407648 C59.2808128,26.3777612 59.1691743,26.4893509 59.0310028,26.4893509 L54.7847341,26.4893509 C54.6470633,26.4893509 54.5349242,26.3777612 54.5349242,26.2407648 L54.5349242,24.798567 C54.5349242,24.5699077 54.2520732,24.4628015 54.0998844,24.6341714 C53.6122794,25.1836513 53.0545874,25.6519297 52.4278097,26.0390066 C51.6052892,26.5461421 50.5700046,26.7997099 49.3209548,26.7997099" id="Fill-16" fill="#424651"></path>
                            <path d="M71.1629559,26.799959 C69.4973893,26.799959 67.8638624,26.5169993 66.2608735,25.951578 C64.9782821,25.4997392 63.7893068,24.8531165 62.6939477,24.0122081 C62.240385,23.6644864 62.1748036,23.0074022 62.5417589,22.5700103 L64.1087031,20.7053656 C64.4481243,20.3018491 65.0443641,20.2231385 65.4733964,20.5310066 C66.236343,21.0784938 67.0138077,21.5318271 67.8067916,21.8910066 C68.8575954,22.3677538 70.0075222,22.6058784 71.256572,22.6058784 C72.2558119,22.6058784 73.0307734,22.4240469 73.5824579,22.0608821 C74.1341425,21.6977172 74.4099847,21.1950652 74.4099847,20.5519297 L74.4099847,20.4896586 C74.4099847,20.1783033 74.3524133,19.9038125 74.237771,19.6646916 C74.1226282,19.4260689 73.9038567,19.2028894 73.5804555,18.9951531 C73.2570542,18.787915 72.807997,18.5806769 72.2342852,18.3729407 C71.6600727,18.1657026 70.9141472,17.9475048 69.996008,17.7193436 C68.8896352,17.4294095 67.8878923,17.1230359 66.9907791,16.8017172 C66.0931654,16.4803985 65.33122,16.0753875 64.7054435,15.5881788 C64.0791665,15.1004718 63.5940646,14.4932044 63.2496372,13.7668747 C62.9052099,13.0405451 62.7329962,12.1383619 62.7329962,11.0593289 L62.7329962,10.9970579 C62.7329962,10.001219 62.9192272,9.10451575 63.2911888,8.30545348 C63.6636509,7.50639121 64.1852982,6.81642784 64.8576324,6.2350652 C65.5299666,5.6546989 66.3324623,5.2088381 67.2656202,4.89748278 C68.1982774,4.58612747 69.2270539,4.43020073 70.3509484,4.43020073 C71.9539373,4.43020073 73.4262641,4.66683077 74.7694307,5.13959267 C75.7916991,5.4997685 76.7508893,5.97950476 77.6465005,6.57780513 C78.1125788,6.88965861 78.2257192,7.52482344 77.9063229,7.9841348 L76.5291141,9.96584908 C76.2247364,10.403241 75.6299985,10.533263 75.1739326,10.2567795 C74.4710605,9.83084542 73.7797027,9.47814212 73.0988579,9.19966593 C72.1621957,8.81607619 71.2255335,8.62477949 70.2888713,8.62477949 C69.3522091,8.62477949 68.649337,8.80611282 68.1812563,9.16927766 C67.7131755,9.53244249 67.4788848,9.98378315 67.4788848,10.5232996 L67.4788848,10.5855707 C67.4788848,10.938274 67.5464686,11.2446476 67.682137,11.5036952 C67.8178053,11.763241 68.062609,11.9968821 68.4180501,12.2041201 C68.7724898,12.4118564 69.2580924,12.608633 69.8733558,12.794948 C70.4891198,12.9822593 71.2665845,13.199959 72.2057498,13.4485451 C73.3116219,13.7394755 74.2978456,14.066274 75.1644208,14.4289407 C76.0304954,14.7921055 76.7604011,15.2280029 77.3556396,15.7361348 C77.9503776,16.2447648 78.3994347,16.8415707 78.7018099,17.5260542 C79.0041851,18.2105377 79.1558733,19.0300249 79.1558733,19.9840176 L79.1558733,20.0462886 C79.1558733,21.1253216 78.9591292,22.0852923 78.5666422,22.9257026 C78.173154,23.7661128 77.6254744,24.4715194 76.9226023,25.0419223 C76.2192296,25.6123253 75.3796879,26.0482227 74.4054791,26.3491165 C73.4297685,26.6495121 72.349428,26.799959 71.1629559,26.799959" id="Fill-18" fill="#424651"></path>
                            <path d="M92.7331697,16.8579604 C92.8908654,16.8579604 93.0075101,16.7139897 92.9789747,16.5600557 C92.8072617,15.6399385 92.4488169,14.884715 91.9031398,14.2943853 C91.2988901,13.6422828 90.4978962,13.3159824 89.499157,13.3159824 C88.4999172,13.3159824 87.6929159,13.6377993 87.0791543,14.2794403 C86.5244661,14.8593084 86.143994,15.6170227 85.9372375,16.552085 C85.9026946,16.7085099 86.0203406,16.8579604 86.18104,16.8579604 L92.7331697,16.8579604 Z M89.9672378,26.8621802 C88.718188,26.8621802 87.5577482,26.6549421 86.4859183,26.2404659 C85.4135878,25.8264879 84.4879392,25.2361582 83.7074708,24.4699751 C82.9270025,23.7037919 82.3177465,22.7921436 81.8807042,21.7360264 C81.443662,20.679411 81.2253911,19.5196747 81.2253911,18.2563194 L81.2253911,18.1940484 C81.2253911,17.013389 81.4281427,15.8945026 81.8341465,14.8383853 C82.2401502,13.7822681 82.8068534,12.8606564 83.5352572,12.0735502 C84.2641616,11.286444 85.1382461,10.6652278 86.1580114,10.2089055 C87.1777767,9.75407766 88.2916588,9.52591648 89.499157,9.52591648 C90.893387,9.52591648 92.1003846,9.7740044 93.1206505,10.2711766 C94.1404158,10.7683487 94.9884681,11.4363927 95.6653079,12.2753084 C96.341647,13.1142242 96.841267,14.0771839 97.1641676,15.1646857 C97.4865676,16.2521875 97.6477677,17.386019 97.6477677,18.5666784 C97.6477677,18.7529934 97.6427614,18.9502681 97.6322484,19.1570081 L97.6107217,19.5739751 C97.603713,19.7059897 97.494077,19.8096088 97.3614123,19.8096088 L86.2571344,19.8096088 C86.09243,19.8096088 85.9727816,19.9665319 86.015835,20.1249495 C86.265645,21.0465612 86.7142015,21.7549568 87.3605034,22.2481436 C88.0783942,22.7971253 88.967998,23.0716161 90.0298155,23.0716161 C90.8202963,23.0716161 91.5281746,22.9371106 92.1529498,22.6680996 C92.7251598,22.4210081 93.3153921,22.0349275 93.9226456,21.5093597 C94.0177636,21.4266637 94.1594394,21.4251692 94.2540568,21.5083634 L96.6229961,23.594693 C96.7241216,23.6843634 96.7371378,23.8387956 96.6495291,23.9414183 C95.8890855,24.8266637 94.9839625,25.5255941 93.932658,26.0387077 C92.8082629,26.5871912 91.4861224,26.8621802 89.9672378,26.8621802 Z" id="Fill-20" fill="#424651"></path>
                            <path d="M111.024665,16.8579604 C111.182361,16.8579604 111.299006,16.7139897 111.26997,16.5600557 C111.098757,15.6399385 110.740313,14.884715 110.194135,14.2943853 C109.590386,13.6422828 108.789392,13.3159824 107.790152,13.3159824 C106.790912,13.3159824 105.984412,13.6377993 105.37065,14.2794403 C104.815962,14.8593084 104.434989,15.6170227 104.228733,16.552085 C104.19419,16.7085099 104.311836,16.8579604 104.472536,16.8579604 L111.024665,16.8579604 Z M108.258734,26.8621802 C107.009684,26.8621802 105.849244,26.6549421 104.777414,26.2404659 C103.705083,25.8264879 102.779435,25.2361582 101.998466,24.4699751 C101.217998,23.7037919 100.609242,22.7921436 100.1722,21.7360264 C99.7351576,20.679411 99.5163862,19.5196747 99.5163862,18.2563194 L99.5163862,18.1940484 C99.5163862,17.013389 99.7191378,15.8945026 100.125642,14.8383853 C100.531145,13.7822681 101.097848,12.8606564 101.826753,12.0735502 C102.555157,11.286444 103.429742,10.6652278 104.449507,10.2089055 C105.469272,9.75407766 106.582654,9.52591648 107.790152,9.52591648 C109.184382,9.52591648 110.39188,9.7740044 111.412146,10.2711766 C112.431911,10.7683487 113.279964,11.4363927 113.956303,12.2753084 C114.633143,13.1142242 115.132262,14.0771839 115.455163,15.1646857 C115.777563,16.2521875 115.939263,17.386019 115.939263,18.5666784 C115.939263,18.7529934 115.933757,18.9502681 115.923744,19.1570081 L115.901717,19.5739751 C115.895209,19.7059897 115.785573,19.8096088 115.652407,19.8096088 L104.54863,19.8096088 C104.383926,19.8096088 104.264277,19.9665319 104.307331,20.1249495 C104.557141,21.0465612 105.005197,21.7549568 105.651499,22.2481436 C106.36989,22.7971253 107.259494,23.0716161 108.321311,23.0716161 C109.111792,23.0716161 109.81967,22.9371106 110.443945,22.6680996 C111.016655,22.4210081 111.606387,22.0349275 112.214141,21.5093597 C112.309259,21.4266637 112.450935,21.4251692 112.545052,21.5083634 L114.914492,23.594693 C115.015617,23.6843634 115.028633,23.8387956 114.940524,23.9414183 C114.180581,24.8266637 113.274958,25.5255941 112.224154,26.0387077 C111.099759,26.5871912 109.777618,26.8621802 108.258734,26.8621802 Z" id="Fill-22" fill="#424651"></path>
                            <path d="M126.483096,22.7919443 C127.045293,22.7919443 127.570445,22.6833436 128.059552,22.465644 C128.548659,22.2484425 128.975689,21.9375853 129.340141,21.5335707 C129.704092,21.1300542 129.995454,20.6438418 130.214225,20.0734388 C130.432997,19.5040322 130.542132,18.8773363 130.542132,18.1938491 L130.542132,18.1320762 C130.542132,17.4480908 130.432997,16.821893 130.214225,16.2519883 C129.995454,15.6825817 129.704092,15.1953729 129.340141,14.7918564 C128.975689,14.3878418 128.548659,14.0774828 128.059552,13.8597832 C127.570445,13.6420835 127.045293,13.5334828 126.483096,13.5334828 C125.920898,13.5334828 125.395246,13.6420835 124.90664,13.8597832 C124.417533,14.0774828 123.985497,14.3878418 123.611032,14.7918564 C123.236067,15.1953729 122.939199,15.6776 122.720928,16.2365451 C122.502156,16.7954901 122.393021,17.4276659 122.393021,18.1320762 L122.393021,18.1938491 C122.393021,18.8773363 122.502156,19.5040322 122.720928,20.0734388 C122.939199,20.6438418 123.236067,21.1300542 123.611032,21.5335707 C123.985497,21.9375853 124.417533,22.2484425 124.90664,22.465644 C125.395246,22.6833436 125.920898,22.7919443 126.483096,22.7919443 M125.265585,26.7997099 C124.286871,26.7997099 123.340196,26.6133949 122.42456,26.2407648 C121.507923,25.8681348 120.696416,25.3136733 119.989038,24.5783766 C119.28116,23.843578 118.713956,22.9423912 118.287427,21.8758125 C117.860397,20.8092337 117.647633,19.5817465 117.647633,18.1938491 L117.647633,18.1320762 C117.647633,16.7441788 117.860397,15.5171897 118.287427,14.4501128 C118.713956,13.3835341 119.276154,12.4823473 119.973519,11.7470505 C120.670384,11.012252 121.476884,10.4577905 122.393021,10.0851604 C123.308657,9.71203223 124.266345,9.52571722 125.265585,9.52571722 C126.53516,9.52571722 127.580958,9.7743033 128.402978,10.2714755 C128.755415,10.4841934 129.083823,10.7123546 129.3882,10.955959 C129.827245,11.3066696 130.479555,10.9873436 130.479555,10.426904 L130.479555,4.481263 C130.479555,4.11012747 130.78193,3.8092337 131.154893,3.8092337 L134.550105,3.8092337 C134.923068,3.8092337 135.225443,4.11012747 135.225443,4.481263 L135.225443,26.2407648 C135.225443,26.3777612 135.113304,26.4893509 134.975633,26.4893509 L131.154893,26.4893509 C130.78193,26.4893509 130.479555,26.1884571 130.479555,25.8173216 C130.479555,25.2369553 129.794705,24.9340689 129.35566,25.3161641 C129.04928,25.5821861 128.721373,25.8228015 128.37194,26.0390066 C127.549419,26.5461421 126.514134,26.7997099 125.265585,26.7997099" id="Fill-24" fill="#424651"></path>
                            <path d="M22.6543174,9.83617582 L26.9005861,9.83617582 C27.0382569,9.83617582 27.1503961,9.94776557 27.1503961,10.0847619 L27.1503961,26.2408645 C27.1503961,26.3778608 27.0382569,26.4894505 26.9005861,26.4894505 L22.6543174,26.4894505 C22.5166466,26.4894505 22.4045075,26.3778608 22.4045075,26.2408645 L22.4045075,10.0847619 C22.4045075,9.94776557 22.5166466,9.83617582 22.6543174,9.83617582" id="Fill-12" fill="#424651"></path>
                            <path d="M24.76799,2.59983004 C24.4295701,2.59983004 24.1131776,2.66509011 23.8188123,2.79610842 C23.5244471,2.92712674 23.2676284,3.1144381 23.0483563,3.35754432 C22.8290843,3.60065055 22.6533662,3.89307546 22.5222035,4.23631355 C22.3905401,4.57905348 22.3249588,4.95616703 22.3249588,5.36765421 L22.3249588,5.40501685 C22.3249588,5.8170022 22.3905401,6.19361758 22.5222035,6.53685568 C22.6533662,6.8795956 22.8290843,7.17251868 23.0483563,7.41562491 C23.2676284,7.65873114 23.5244471,7.84604249 23.8188123,7.97656264 C24.1131776,8.10758095 24.4295701,8.17333919 24.76799,8.17333919 C25.1064099,8.17333919 25.4228025,8.10758095 25.7171677,7.97656264 C26.011533,7.84604249 26.2713554,7.65873114 26.4971355,7.41562491 C26.722415,7.17251868 26.9011368,6.88258462 27.0328002,6.54582271 C27.1644635,6.20955897 27.2300449,5.82895824 27.2300449,5.40501685 L27.2300449,5.36765421 C27.2300449,4.95616703 27.1644635,4.57905348 27.0328002,4.23631355 C26.9011368,3.89307546 26.722415,3.60065055 26.4971355,3.35754432 C26.2713554,3.1144381 26.011533,2.92712674 25.7171677,2.79610842 C25.4228025,2.66509011 25.1064099,2.59983004 24.76799,2.59983004" id="Fill-27" fill="#40CC79"></path>
                        </g>
                        <g id="spec-/-logo-/-icon-/-color" fill="#40CC79">
                            <g id="Group">
                                <path d="M0.0848276882,24.9552692 C0.0848276882,25.522467 0.675528566,25.9418077 1.30983483,25.838456 C5.09082748,25.2213132 8.19390849,23.9316429 10.6185708,21.9694451 C13.299288,19.7975769 14.6404072,16.9170824 14.6404072,13.3240055 C14.6404072,9.73092857 13.3195696,6.82966484 10.6819507,4.62219231 C8.29734452,2.62686264 5.18361569,1.25856593 1.34177831,0.516313187 C0.698345338,0.392192308 0.0848276882,0.814005495 0.0848276882,1.39307143 L0.0848276882,24.9552692 Z" id="Fill-1"></path>
                                <path d="M7.34801469,43.6441154 C8.3575301,43.6441154 9.30163742,43.471533 10.1808437,43.1263681 C11.0590359,42.7812033 11.8256795,42.2876868 12.4807743,41.6463132 C13.1343481,41.0054341 13.6586268,40.2330165 14.0510753,39.3280714 C14.4440308,38.4241154 14.640255,37.4291703 14.640255,36.3442253 L14.640255,36.2453242 C14.640255,35.1598846 14.4440308,34.1659286 14.0510753,33.2609835 C13.6586268,32.3570275 13.1343481,31.5841154 12.4807743,30.9427418 C11.8256795,30.3013681 11.0590359,29.8083462 10.1808437,29.4626868 C9.30163742,29.1180165 8.3575301,28.9449396 7.34801469,28.9449396 C6.33849929,28.9449396 5.39388492,29.1180165 4.51569272,29.4626868 C3.63648643,29.8083462 2.86071618,30.3013681 2.18736788,30.9427418 C1.51452663,31.5841154 0.981628239,32.3486209 0.58867272,33.2367527 C0.19622424,34.1243901 0,35.1277418 0,36.2453242 L0,36.3442253 C0,37.4291703 0.19622424,38.4241154 0.58867272,39.3280714 C0.981628239,40.2330165 1.51452663,41.0054341 2.18736788,41.6463132 C2.86071618,42.2876868 3.63648643,42.7812033 4.51569272,43.1263681 C5.39388492,43.471533 6.33849929,43.6441154 7.34801469,43.6441154" id="Fill-4"></path>
                                <path d="M33.8232787,20.172511 C33.8232787,19.6053132 33.2325778,19.1859725 32.5982716,19.2893242 C28.8167719,19.906467 25.7141979,21.1961374 23.2895356,23.1583352 C20.6083114,25.3302033 19.2676992,28.2106978 19.2676992,31.8037747 C19.2676992,35.3968516 20.5885368,38.2981154 23.2261557,40.5055879 C25.6102548,42.5009176 28.7244907,43.8692143 32.5663281,44.611467 C33.209254,44.7355879 33.8232787,44.3137747 33.8232787,43.7347088 L33.8232787,20.172511 Z" id="Fill-6"></path>
                                <path d="M26.5598382,1.48366484 C25.5503228,1.48366484 24.6062155,1.65624725 23.7275162,2.00141209 C22.848817,2.34657692 22.0821734,2.84009341 21.4270786,3.48146703 C20.7735048,4.12234615 20.2497331,4.89476374 19.8567776,5.79970879 C19.4643291,6.70366484 19.2681049,7.69860989 19.2681049,8.78355495 L19.2681049,8.88245604 C19.2681049,9.9678956 19.4643291,10.9618516 19.8567776,11.8667967 C20.2497331,12.7707527 20.7735048,13.5436648 21.4270786,14.1850385 C22.0821734,14.8264121 22.848817,15.3194341 23.7275162,15.6650934 C24.6062155,16.0097637 25.5503228,16.1828407 26.5598382,16.1828407 C27.5693536,16.1828407 28.514475,16.0097637 29.3926672,15.6650934 C30.2713665,15.3194341 31.0471367,14.8264121 31.720485,14.1850385 C32.3933263,13.5436648 32.9262246,12.7791593 33.3191802,11.8910275 C33.7116286,11.0033901 33.9078529,10.0000385 33.9078529,8.88245604 L33.9078529,8.78355495 C33.9078529,7.69860989 33.7116286,6.70366484 33.3191802,5.79970879 C32.9262246,4.89476374 32.3933263,4.12234615 31.720485,3.48146703 C31.0471367,2.84009341 30.2713665,2.34657692 29.3926672,2.00141209 C28.514475,1.65624725 27.5693536,1.48366484 26.5598382,1.48366484" id="Fill-8"></path>
                            </g>
                        </g>
                        <g id="Group" transform="translate(74.430380, 8.000000)"></g>
                    </g>
                </g>
            </g>
        </g>
    </g>
</svg>