<?xml version="1.0" encoding="UTF-8"?>
<svg width="81px" height="81px" viewBox="0 0 81 81" version="1.1" xmlns="http://www.w3.org/2000/svg" xmlns:xlink="http://www.w3.org/1999/xlink">
    <!-- Generator: Sketch 51.3 (57544) - http://www.bohemiancoding.com/sketch -->
    <title>tool-icon-contact</title>
    <desc>Created with Sketch.</desc>
    <defs>
        <circle id="path-1" cx="36.5" cy="36.5" r="36.5"></circle>
        <polygon id="path-2" points="0.000102698246 0.197411118 34.6904052 0.197411118 34.6904052 7.94693109 0.000102698246 7.94693109"></polygon>
    </defs>
    <g id="Home" stroke="none" stroke-width="1" fill="none" fill-rule="evenodd">
        <g id="Home---1" transform="translate(-182.000000, -2309.000000)">
            <g id="tool-icon-contact" transform="translate(186.000000, 2312.000000)">
                <g id="Group-18" transform="translate(0.000000, 0.750000)">
                    <g id="Oval-2">
                        <use stroke="#EDEDED" stroke-width="7" fill="#9A7DFF" fill-rule="evenodd" xlink:href="#path-1"></use>
                        <use stroke="#FFFFFF" stroke-width="2" xlink:href="#path-1"></use>
                    </g>
                </g>
                <g id="Group-10" transform="translate(35.939539, 37.274263) rotate(-89.000000) translate(-35.939539, -37.274263) translate(12.939539, 31.274263)">
                    <g id="Group-3" transform="translate(0.000000, 3.178772)">
                        <mask id="mask-3" fill="white">
                            <use xlink:href="#path-2"></use>
                        </mask>
                        <g id="Clip-2"></g>
                        <path d="M34.6904052,7.94707133 L1.51534259,7.94707133 C0.558793359,7.94707133 -0.147721474,7.63246636 0.0266320167,7.29448805 C1.06652605,5.28157715 3.24163375,3.63001788 6.55099713,2.33887531 C10.2138574,0.911232517 15.0722845,0.197411118 21.1315473,0.197411118 C22.8746032,0.197411118 33.1403835,0.257714301 34.6904052,0.374113468 L34.6904052,7.94707133 Z" id="Fill-1" fill="#FFFFFF" mask="url(#mask-3)"></path>
                    </g>
                    <path d="M37.3505761,10.8442408 C37.3505761,11.0219068 37.5441407,11.1533309 37.7517922,11.1207183 C38.9909187,10.9274761 40.0072633,10.5234685 40.8013477,9.9082088 C41.6799536,9.22772376 42.1187348,8.32479118 42.1187348,7.19892429 C42.1187348,6.07305741 41.6862144,5.16379699 40.8222172,4.47211656 C40.0411762,3.84663496 39.0211795,3.41780282 37.762227,3.18562016 C37.5514451,3.14667967 37.3505761,3.27859057 37.3505761,3.4601506 L37.3505761,10.8442408 Z" id="Fill-4" fill="#FFFFFF"></path>
                    <path d="M21.4802509,1.58938622 L36.5328369,1.58938622 C36.9824462,1.58938622 37.3505761,1.23173855 37.3505761,0.794454678 C37.3505761,0.357647664 36.9824462,0 36.5328369,0 L21.4802509,0 C21.0301507,0 20.6620208,0.357647664 20.6620208,0.794454678 C20.6620208,1.23173855 21.0301507,1.58938622 21.4802509,1.58938622" id="Fill-6" fill="#FFFFFF"></path>
                    <path d="M44.1101039,8.7416242 C44.2744343,8.7416242 44.4284619,8.71360564 44.5716715,8.65756852 C44.714366,8.60203173 44.8395456,8.5219787 44.9461801,8.41790976 C45.0522994,8.31384082 45.1378131,8.18875796 45.2016907,8.04216084 C45.2655684,7.8950634 45.2975072,7.73345634 45.2975072,7.55784001 L45.2975072,7.5418294 C45.2975072,7.36571273 45.2655684,7.20460601 45.2016907,7.05750856 C45.1378131,6.91091145 45.0522994,6.78582859 44.9461801,6.68175965 C44.8395456,6.57769071 44.714366,6.49763768 44.5716715,6.44160056 C44.4284619,6.38556344 44.2744343,6.35754487 44.1101039,6.35754487 C43.9457734,6.35754487 43.7917458,6.38556344 43.6485362,6.44160056 C43.5053266,6.49763768 43.3791167,6.57769071 43.2693913,6.68175965 C43.1601811,6.78582859 43.0731221,6.90991079 43.0092444,7.05350591 C42.9453667,7.19760137 42.9134279,7.36020909 42.9134279,7.5418294 L42.9134279,7.55784001 C42.9134279,7.73345634 42.9453667,7.8950634 43.0092444,8.04216084 C43.0731221,8.18875796 43.1601811,8.31384082 43.2693913,8.41790976 C43.3791167,8.5219787 43.5053266,8.60203173 43.6485362,8.65756852 C43.7917458,8.71360564 43.9457734,8.7416242 44.1101039,8.7416242" id="Fill-8" fill="#FFFFFF"></path>
                </g>
            </g>
        </g>
    </g>
</svg>