<?xml version="1.0" encoding="UTF-8"?>
<svg width="81px" height="81px" viewBox="0 0 81 81" version="1.1" xmlns="http://www.w3.org/2000/svg" xmlns:xlink="http://www.w3.org/1999/xlink">
    <!-- Generator: Sketch 51.3 (57544) - http://www.bohemiancoding.com/sketch -->
    <title>tool-icon-event</title>
    <desc>Created with Sketch.</desc>
    <defs>
        <circle id="path-1" cx="36.5" cy="36.5" r="36.5"></circle>
        <polygon id="path-2" points="0.000139671171 0.0225 34.7233667 0.0225 34.7233667 11.7726375 0.000139671171 11.7726375"></polygon>
    </defs>
    <g id="Home" stroke="none" stroke-width="1" fill="none" fill-rule="evenodd">
        <g id="Home---1" transform="translate(-571.000000, -2143.000000)">
            <g id="tool-icon-event" transform="translate(575.000000, 2146.000000)">
                <g id="Group-19" transform="translate(0.000000, 0.750000)">
                    <g id="Oval-2">
                        <use stroke="#EDEDED" stroke-width="7" fill="#FFBB5A" fill-rule="evenodd" xlink:href="#path-1"></use>
                        <use stroke="#FFFFFF" stroke-width="2" xlink:href="#path-1"></use>
                    </g>
                </g>
                <g id="Group-6" transform="translate(19.000000, 15.000000)">
                    <g id="Group-3">
                        <mask id="mask-3" fill="white">
                            <use xlink:href="#path-2"></use>
                        </mask>
                        <g id="Clip-2"></g>
                        <path d="M34.7018389,11.5551502 C33.8571722,10.1814302 32.0916167,9.05418725 29.4047833,8.17319224 C28.6460611,7.9246536 27.8235611,7.70841354 26.93845,7.5233267 L26.93845,5.88182638 C26.93845,5.29907773 26.1291722,4.8223875 25.1398389,4.8223875 C24.1508944,4.8223875 23.3412278,5.29907773 23.3412278,5.88182638 L23.3412278,6.98020679 C21.59395,6.80222106 19.6705056,6.71219739 17.5670056,6.71219739 C15.3040611,6.71219739 13.2441167,6.81527793 11.3821167,7.01777392 L11.3821167,5.88182638 C11.3821167,5.29907773 10.5728389,4.8223875 9.58350556,4.8223875 C8.59417222,4.8223875 7.78489444,5.29907773 7.78489444,5.88182638 L7.78489444,7.58929825 C7.02889444,7.75353991 6.31606111,7.93977208 5.65222778,8.15028545 C2.91989444,9.01639105 1.04661667,10.1475282 0.0300611111,11.5432387 C-0.140272222,11.777117 0.437616667,12 1.23017222,12 L33.4931722,12 C34.2693944,12 34.8433944,11.7853634 34.7018389,11.5551502" id="Fill-1" fill="#FFFFFF" mask="url(#mask-3)"></path>
                    </g>
                    <path d="M4.90601239,34.5348441 L11.5870706,34.5348441 L11.5870706,30.5946389 L4.90601239,30.5946389 L4.90601239,34.5348441 Z M4.90601239,27.9702864 L11.5870706,27.9702864 L11.5870706,24.0297136 L4.90601239,24.0297136 L4.90601239,27.9702864 Z M4.90601239,21.4057288 L11.5870706,21.4057288 L11.5870706,17.4651559 L4.90601239,17.4651559 L4.90601239,21.4057288 Z M14.6594709,34.5348441 L21.3405291,34.5348441 L21.3405291,30.5946389 L14.6594709,30.5946389 L14.6594709,34.5348441 Z M14.6594709,27.9702864 L21.3405291,27.9702864 L21.3405291,24.0297136 L14.6594709,24.0297136 L14.6594709,27.9702864 Z M14.6594709,21.4057288 L21.3405291,21.4057288 L21.3405291,17.4651559 L14.6594709,17.4651559 L14.6594709,21.4057288 Z M24.4125371,34.5348441 L31.0935953,34.5348441 L31.0935953,30.5946389 L24.4125371,30.5946389 L24.4125371,34.5348441 Z M24.4125371,27.9702864 L31.0935953,27.9702864 L31.0935953,24.0297136 L24.4125371,24.0297136 L24.4125371,27.9702864 Z M24.4125371,21.4057288 L31.0935953,21.4057288 L31.0935953,17.4651559 L24.4125371,17.4651559 L24.4125371,21.4057288 Z M1,37 L35,37 L35,15 L1,15 L1,37 Z" id="Fill-4" fill="#FFFFFF"></path>
                </g>
            </g>
        </g>
    </g>
</svg>