<?xml version="1.0" encoding="UTF-8"?>
<svg width="81px" height="81px" viewBox="0 0 81 81" version="1.1" xmlns="http://www.w3.org/2000/svg" xmlns:xlink="http://www.w3.org/1999/xlink">
    <!-- Generator: Sketch 51.3 (57544) - http://www.bohemiancoding.com/sketch -->
    <title>tool-icon-idea</title>
    <desc>Created with Sketch.</desc>
    <defs>
        <circle id="path-1" cx="36.5" cy="36.5" r="36.5"></circle>
    </defs>
    <g id="Home" stroke="none" stroke-width="1" fill="none" fill-rule="evenodd">
        <g id="Home---1" transform="translate(-464.000000, -2309.000000)">
            <g id="tool-icon-idea" transform="translate(468.000000, 2312.000000)">
                <g id="Group-20" transform="translate(0.000000, 0.750000)">
                    <g id="Oval-2">
                        <use stroke="#EDEDED" stroke-width="7" fill="#FFE67E" fill-rule="evenodd" xlink:href="#path-1"></use>
                        <use stroke="#FFFFFF" stroke-width="2" xlink:href="#path-1"></use>
                    </g>
                </g>
                <g id="Group-11" transform="translate(23.000000, 14.750000)" fill="#FFFFFF">
                    <path d="M16.751977,41 L10.2479899,41 C10.0914085,41 9.97585653,41.1624105 10.0043259,41.3363607 C10.1747232,42.375788 10.5305899,43.2284432 11.0723446,43.8947537 C11.6718753,44.6315846 12.4669234,45 13.4587448,45 C14.4505662,45 15.2514756,44.6371407 15.8606356,43.912277 C16.4111823,43.2570787 16.7892384,42.4010044 16.9939664,41.3457634 C17.028297,41.1688215 16.9119077,41 16.751977,41" id="Fill-1"></path>
                    <path d="M18.6326231,13.5520733 C18.1701288,14.4997912 17.6769124,15.4341433 17.2675593,16.4044159 C16.5543051,18.095188 16.1910354,19.8799384 16.0772801,21.7072921 C15.9876043,23.1436966 15.9689219,24.5851133 15.9249144,26.0240239 C15.9174414,26.2650257 15.8879647,26.4901557 15.6816274,26.6417738 C15.4682324,26.7979865 15.2328337,26.851032 14.9837344,26.7286515 C14.7470901,26.6121185 14.6279377,26.4120494 14.628768,26.1501635 C14.6304287,25.3678472 14.6246163,24.5851133 14.6470353,23.802797 C14.7022523,21.890654 14.8442388,19.9881177 15.3245852,18.1256787 C15.6342986,16.92777 16.0693919,15.7770592 16.6111828,14.6113119 C16.5069763,14.641385 16.4363981,14.6547508 16.3712172,14.6814823 C15.6484142,14.9776181 14.9941135,14.8706918 14.3937844,14.3669686 C14.0068502,14.0428483 13.9927346,14.0428483 13.6082914,14.3657156 C13.0245689,14.857326 12.3814777,14.9508865 11.6752813,14.6965188 C11.6017971,14.670205 11.5274825,14.6455618 11.4639622,14.6238424 C11.8143618,15.5853437 12.1983898,16.5301378 12.5022908,17.4999928 C13.0121139,19.1276951 13.2217725,20.8134551 13.2998236,22.5121632 C13.3533799,23.6845933 13.3529647,24.8582766 13.378705,26.0319598 C13.3841021,26.2846567 13.3338671,26.5147989 13.1105081,26.6626579 C12.8996041,26.802581 12.6691873,26.8472728 12.4329582,26.7257277 C12.1988049,26.6054356 12.0875406,26.4045311 12.0829738,26.1426452 C12.0671975,25.2446314 12.063461,24.3466175 12.0339843,23.4490213 C11.9704639,21.4988694 11.7745059,19.5675131 11.1941047,17.6925437 C10.7536142,16.2703403 10.1329419,14.9291671 9.41761191,13.6293442 C9.22788132,13.2851752 9.22746616,13.0090882 9.43048204,12.7668333 C9.63349792,12.5245784 9.91996204,12.4602555 10.2724375,12.6152151 C10.7652388,12.8311561 11.2543036,13.0571215 11.7342348,13.3002117 C12.221639,13.5474788 12.6579778,13.5516556 13.057367,13.1297979 C13.1906351,12.9890395 13.3537951,12.8779364 13.5015939,12.7505437 C13.8411992,12.4577494 14.1608766,12.4564964 14.4963302,12.7455315 C14.6773423,12.9017442 14.8741307,13.0412496 15.0426879,13.2099927 C15.3661017,13.5336953 15.7239743,13.5483142 16.1117388,13.3653699 C16.5107128,13.1769959 16.9051199,12.9781798 17.304509,12.7906411 C17.4718206,12.7116994 17.6453598,12.6444528 17.8197293,12.5822183 C18.1124209,12.4769627 18.381448,12.5442094 18.5661966,12.7588973 C18.7559272,12.9790151 18.7687974,13.2730625 18.6326231,13.5520733 M26.8736563,8.51484207 C26.1226221,6.73134479 25.1204128,5.20639196 23.8699346,3.94081894 C22.6177958,2.67566361 21.1510164,1.70288488 19.4712572,1.02122971 C17.7902525,0.340409903 15.9846982,0 14.0537639,0 C12.1228296,0 10.3156147,0.340409903 8.63585546,1.02122971 C6.95485076,1.70288488 5.47146479,2.67566361 4.18403689,3.94081894 C2.89660899,5.20639196 1.87737793,6.71463755 1.12634373,8.46639109 C0.375309521,10.2181446 0,12.1975342 0,14.4024715 L0,14.5975285 C0,16.7381429 0.375309521,18.7016606 1.12634373,20.4851579 C1.87737793,22.2703259 2.89660899,23.793608 4.18403689,25.0587634 C5.47146479,26.3239187 6.95485076,27.2971151 8.63585546,27.9783526 C10.3156147,28.6600078 12.1228296,29 14.0537639,29 C15.9846982,29 17.7902525,28.6600078 19.4712572,27.9783526 C21.1510164,27.2971151 22.6177958,26.3239187 23.8699346,25.0587634 C25.1204128,23.793608 26.1226221,22.2703259 26.8736563,20.4851579 C27.6246905,18.7016606 28,16.7381429 28,14.5975285 L28,14.4024715 C28,12.2614394 27.6246905,10.3004278 26.8736563,8.51484207" id="Fill-3"></path>
                    <polygon id="Fill-7" points="8 32 19 32 19 29 8 29"></polygon>
                    <polygon id="Fill-9" points="8 36 19 36 19 33 8 33"></polygon>
                    <polygon id="Fill-10" points="8 40 19 40 19 37 8 37"></polygon>
                </g>
            </g>
        </g>
    </g>
</svg>