<?xml version="1.0" encoding="UTF-8"?>
<svg width="81px" height="81px" viewBox="0 0 81 81" version="1.1" xmlns="http://www.w3.org/2000/svg" xmlns:xlink="http://www.w3.org/1999/xlink">
    <!-- Generator: Sketch 51.3 (57544) - http://www.bohemiancoding.com/sketch -->
    <title>tool-icon-launch</title>
    <desc>Created with Sketch.</desc>
    <defs>
        <circle id="path-1" cx="36.5" cy="36.5" r="36.5"></circle>
        <polygon id="path-2" points="0 0 38 0 38 52 0 52"></polygon>
    </defs>
    <g id="Home" stroke="none" stroke-width="1" fill="none" fill-rule="evenodd">
        <g id="Home---1" transform="translate(-571.000000, -2301.000000)">
            <g id="tool-icon-launch" transform="translate(575.000000, 2304.000000)">
                <g id="Group-17" transform="translate(0.000000, 0.750000)">
                    <g id="Oval-2">
                        <use stroke="#EDEDED" stroke-width="7" fill="#8E8E93" fill-rule="evenodd" xlink:href="#path-1"></use>
                        <use stroke="#FFFFFF" stroke-width="2" xlink:href="#path-1"></use>
                    </g>
                </g>
                <g id="Group-3" transform="translate(18.000000, 12.000000)">
                    <mask id="mask-3" fill="white">
                        <use xlink:href="#path-2"></use>
                    </mask>
                    <g id="Clip-2"></g>
                    <path d="M23,20.5234245 C23,21.0401902 22.9062325,21.5141498 22.7184527,21.9448276 C22.5306729,22.3755054 22.2799734,22.7431629 21.9673335,23.0485137 C21.6544488,23.3538644 21.2877029,23.5890606 20.8678302,23.7533888 C20.4474678,23.917717 19.9960129,24 19.5134653,24 C19.0306729,24 18.5789731,23.917717 18.1591004,23.7533888 C17.7387381,23.5890606 17.3678302,23.3538644 17.045887,23.0485137 C16.7241886,22.7431629 16.4693271,22.3755054 16.2815473,21.9448276 C16.0937675,21.5141498 16,21.0401902 16,20.5234245 L16,20.4765755 C16,19.9441141 16.0937675,19.4663496 16.2815473,19.0435196 C16.4693271,18.6209275 16.7241886,18.2568371 17.045887,17.9512485 C17.3678302,17.6458977 17.7387381,17.4109394 18.1591004,17.2466112 C18.5789731,17.0820452 19.0306729,17 19.5134653,17 C19.9960129,17 20.4474678,17.0820452 20.8678302,17.2466112 C21.2877029,17.4109394 21.6544488,17.6458977 21.9673335,17.9512485 C22.2799734,18.2568371 22.5306729,18.6249703 22.7184527,19.0551724 C22.9062325,19.4863258 23,19.9595719 23,20.4765755 L23,20.5234245 Z M31.76214,31.511 C30.6363097,29.8081286 29.1465821,28.7643869 27.2982836,28.3754669 C27.3852025,27.2793107 27.4331411,26.152759 27.4331411,24.9998803 C27.4331411,14.5066982 19.0196785,6 19.0196785,6 C19.0196785,6 10.6062159,14.5066982 10.6062159,24.9998803 C10.6062159,26.1498869 10.6541545,27.273806 10.7408313,28.3675688 C8.87437425,28.7497874 7.37157246,29.7961618 6.23775245,31.511 C4.99207576,33.3948089 4.68701208,35.3535299 5.32086661,37.3885988 C5.89516109,39.2281307 7.05319251,40.9412935 8.79544507,42.5285659 C9.08767671,42.7949462 9.53849304,42.7724487 9.73508963,42.4751941 L12.8118747,37.8220352 C14.3500252,41.6183734 16.5614947,44 19.0196785,44 C21.4701146,44 23.674805,41.6329729 25.2124712,37.8584142 L28.2648028,42.4751941 C28.4616415,42.7724487 28.9124578,42.7949462 29.2044473,42.5285659 C30.946942,40.9412935 32.1049734,39.2281307 32.6790258,37.3885988 C33.3131224,35.3535299 33.0078166,33.3948089 31.76214,31.511 Z" id="Fill-1" fill="#FFFFFF" mask="url(#mask-3)"></path>
                </g>
            </g>
        </g>
    </g>
</svg>