<?xml version="1.0" encoding="UTF-8"?>
<svg width="81px" height="81px" viewBox="0 0 81 81" version="1.1" xmlns="http://www.w3.org/2000/svg" xmlns:xlink="http://www.w3.org/1999/xlink">
    <!-- Generator: Sketch 51.3 (57544) - http://www.bohemiancoding.com/sketch -->
    <title>tool-icon-call</title>
    <desc>Created with Sketch.</desc>
    <defs>
        <circle id="path-1" cx="36.5" cy="36.5" r="36.5"></circle>
        <polygon id="path-2" points="0.0442604651 0.0681777778 11.9211073 0.0681777778 11.9211073 12.7923756 0.0442604651 12.7923756"></polygon>
        <polygon id="path-4" points="0 0.0996176471 28.7718374 0.0996176471 28.7718374 34.9999586 0 34.9999586"></polygon>
    </defs>
    <g id="Home" stroke="none" stroke-width="1" fill="none" fill-rule="evenodd">
        <g id="Home---1" transform="translate(-334.000000, -2151.000000)">
            <g id="tool-icon-call" transform="translate(338.000000, 2154.000000)">
                <g id="Group-19" transform="translate(0.000000, 0.750000)">
                    <g id="Oval-2">
                        <use stroke="#EDEDED" stroke-width="7" fill="#FF5071" fill-rule="evenodd" xlink:href="#path-1"></use>
                        <use stroke="#FFFFFF" stroke-width="2" xlink:href="#path-1"></use>
                    </g>
                </g>
                <g id="Group-9" transform="translate(19.000000, 16.750000)">
                    <g id="Group-3" transform="translate(5.000000, 0.000000)">
                        <mask id="mask-3" fill="white">
                            <use xlink:href="#path-2"></use>
                        </mask>
                        <g id="Clip-2"></g>
                        <path d="M7.42788837,12.6392644 C11.6435163,9.21708667 13.2392372,5.64093111 10.7117023,2.30484222 L10.6140279,2.17599778 C8.37784186,-0.775868889 4.88221395,-0.63258 0.852725581,2.63850889 L0.0442604651,3.29486444 L7.23923721,12.7923756 L7.42788837,12.6392644 Z" id="Fill-1" fill="#FFFFFF" mask="url(#mask-3)"></path>
                    </g>
                    <path d="M32.4603593,37.8435709 C36.7195145,34.3472331 38.3318183,30.6938758 35.7780171,27.2851973 L35.6796096,27.1535608 C33.4199029,24.1377259 29.887948,24.2841199 25.8165848,27.6260947 L25,28.2966738 L32.2697477,38 L32.4603593,37.8435709 Z" id="Fill-4" fill="#FFFFFF"></path>
                    <g id="Group-8" transform="translate(0.000000, 6.000000)">
                        <mask id="mask-5" fill="white">
                            <use xlink:href="#path-4"></use>
                        </mask>
                        <g id="Clip-7"></g>
                        <path d="M28.7718374,34.1634412 C27.149302,35.0490294 25.5610394,35.1134412 23.9396758,34.8928529 C20.5935444,34.4369706 17.7128778,32.8746176 15.1641,30.7816765 C9.20650404,25.8893235 4.53076667,19.9613824 1.50099899,12.8166765 C0.375857576,10.1637353 -0.250132323,7.37402941 0.0946454545,4.45402941 C0.276261616,2.91520588 0.679039394,1.44667647 1.82878687,0.0996176471 C4.40832222,3.3555 6.94831212,6.56167647 9.53370606,9.82491176 C8.47125152,10.9793235 8.84297879,12.2205 9.54044343,13.2990294 C10.6790596,15.0590294 11.899403,16.7799118 13.2307667,18.3957941 C14.8301606,20.3366765 16.5227061,22.2099118 18.2899485,23.9975588 C19.3588475,25.0787353 20.0032919,25.1072647 21.2775343,24.6775588 C23.7337465,27.7866765 26.2054838,30.9149118 28.7718374,34.1634412" id="Fill-6" fill="#FFFFFF" mask="url(#mask-5)"></path>
                    </g>
                </g>
            </g>
        </g>
    </g>
</svg>